<svg width="17" height="23" viewBox="0 0 13 23" fill="none" xmlns="http://www.w3.org/2000/svg">
<path fill-rule="evenodd" clip-rule="evenodd" d="M5.92504 1.95578C5.56365 2.01317 5.48936 2.02565 5.37304 2.04842C5.30347 2.06204 5.22067 2.08119 5.18904 2.09102C5.15742 2.10086 5.08497 2.1215 5.02804 2.13685C4.97112 2.1522 4.90654 2.17405 4.88458 2.1855C4.86261 2.19694 4.82587 2.20625 4.80293 2.20625C4.77999 2.20625 4.75141 2.21448 4.73939 2.22454C4.72738 2.2346 4.67614 2.25657 4.62554 2.27336C4.10574 2.4458 3.35692 2.92213 2.86915 3.39075C1.80867 4.4096 1.25604 5.70967 1.25604 7.18575C1.25604 7.74529 1.30371 8.11265 1.43993 8.60353C1.77642 9.8158 2.51558 10.8273 3.62234 11.5901C3.69634 11.6411 4.21994 11.9353 4.23673 11.9353C4.2411 11.9353 4.29952 11.9603 4.36651 11.991C4.59892 12.0973 4.78516 12.1656 5.02804 12.2336C5.08497 12.2495 5.15742 12.2705 5.18904 12.2801C5.27224 12.3054 5.45418 12.3427 5.62604 12.3697C5.70827 12.3827 5.84403 12.4041 5.92769 12.4173C6.12325 12.4481 6.86724 12.4483 7.08211 12.4176C7.49307 12.3589 7.63469 12.3296 7.98354 12.2317C8.09527 12.2003 8.34775 12.1179 8.39754 12.0965C8.42284 12.0857 8.49 12.0579 8.54681 12.0348C9.3575 11.7047 10.2751 10.9752 10.7548 10.2793C10.7853 10.235 10.816 10.1936 10.8229 10.1873C10.8476 10.1648 10.939 10.0279 10.939 10.0135C10.939 10.0054 10.9585 9.9714 10.9823 9.93782C11.122 9.74076 11.3135 9.34793 11.4435 8.99166C11.9679 7.55473 11.8318 5.9142 11.0779 4.58675C11.0492 4.53615 11.0061 4.46727 10.9823 4.43369C10.9585 4.40011 10.939 4.36607 10.939 4.35802C10.939 4.34364 10.8476 4.20674 10.8229 4.18425C10.816 4.17793 10.7852 4.13653 10.7546 4.09225C10.1439 3.20974 9.04591 2.43861 7.97204 2.13789C7.91512 2.12196 7.84267 2.10103 7.81104 2.09143C7.67701 2.05072 7.37789 1.99684 7.04537 1.95354C6.83239 1.92588 6.1045 1.92732 5.92504 1.95578ZM7.13254 2.62181C8.80194 2.86451 10.1881 3.9565 10.7947 5.50675C11.5502 7.43743 10.9201 9.64353 9.26004 10.8801C8.93948 11.1189 8.43992 11.3916 8.1285 11.4978C8.0488 11.525 7.96284 11.5558 7.93754 11.5662C7.91224 11.5765 7.84497 11.5977 7.78804 11.6133C7.73112 11.6288 7.65867 11.6498 7.62704 11.6598C7.59542 11.6698 7.50744 11.6889 7.43154 11.7023C7.35564 11.7155 7.22109 11.7393 7.13254 11.7549C6.92244 11.7921 6.08242 11.7912 5.85604 11.7535C4.20746 11.4793 2.9922 10.5507 2.2712 9.01425C1.41762 7.1953 2.01544 4.89179 3.69416 3.53157C3.91915 3.34924 4.46655 3.03471 4.74054 2.93035C4.82909 2.8966 4.92224 2.86066 4.94754 2.85048C5.01441 2.82346 5.11705 2.79057 5.23504 2.75825C5.29197 2.74267 5.36442 2.72174 5.39604 2.71168C5.42767 2.70167 5.51564 2.68264 5.59154 2.66942C5.66744 2.65619 5.76577 2.63819 5.81004 2.6294C6.07489 2.57696 6.79553 2.57282 7.13254 2.62181Z" fill="#F8FAFA"/>
<path fill-rule="evenodd" clip-rule="evenodd" d="M5.89052 0.944875C5.8827 0.957525 5.79473 0.967875 5.69502 0.967875C5.59532 0.967875 5.50734 0.978225 5.49952 0.990875C5.4917 1.00353 5.43932 1.01388 5.38314 1.01388C5.32696 1.01388 5.28102 1.02423 5.28102 1.03688C5.28102 1.04953 5.23508 1.05987 5.1789 1.05987C5.12272 1.05987 5.07034 1.07022 5.06252 1.08287C5.0547 1.09552 5.00749 1.10588 4.95764 1.10588C4.90779 1.10588 4.86702 1.11623 4.86702 1.12888C4.86702 1.14153 4.83597 1.15188 4.79802 1.15188C4.76007 1.15188 4.72902 1.16222 4.72902 1.17487C4.72902 1.18752 4.6928 1.19787 4.64852 1.19787C4.60425 1.19787 4.56802 1.20823 4.56802 1.22088C4.56802 1.23353 4.54278 1.24388 4.5119 1.24388C4.48102 1.24388 4.44934 1.25423 4.44152 1.26688C4.4337 1.27953 4.40202 1.28987 4.37114 1.28987C4.34026 1.28987 4.31502 1.30022 4.31502 1.31287C4.31502 1.32552 4.29639 1.33588 4.27362 1.33588C4.22222 1.33588 4.10842 1.38728 4.10819 1.41063C4.10808 1.42011 4.08209 1.42787 4.05041 1.42787C4.01872 1.42787 3.93914 1.45375 3.87359 1.48537C3.80804 1.517 3.74083 1.54287 3.72421 1.54287C3.70759 1.54287 3.69402 1.55323 3.69402 1.56588C3.69402 1.57853 3.67332 1.58888 3.64802 1.58888C3.62272 1.58888 3.60202 1.59923 3.60202 1.61188C3.60202 1.62453 3.58132 1.63487 3.55602 1.63487C3.53072 1.63487 3.51002 1.64402 3.51002 1.65517C3.51002 1.66639 3.49191 1.68128 3.46977 1.68829C3.41595 1.70531 3.29348 1.78 3.28387 1.80162C3.27962 1.81111 3.26628 1.81888 3.25415 1.81888C3.22839 1.81888 3.08803 1.91444 3.07687 1.93963C3.07262 1.94911 3.05606 1.95688 3.04002 1.95688C3.02397 1.95688 2.97838 1.98793 2.93864 2.02588C2.89891 2.06383 2.8559 2.09488 2.84302 2.09488C2.83014 2.09488 2.78713 2.12592 2.7474 2.16387C2.70767 2.20182 2.66604 2.23287 2.65482 2.23287C2.64367 2.23287 2.60026 2.26651 2.55845 2.30762C2.51659 2.34874 2.4423 2.41342 2.39337 2.45137C2.27492 2.54314 1.73902 3.07864 1.73902 3.10521C1.73902 3.11671 1.69762 3.16921 1.64702 3.22188C1.59642 3.27455 1.55502 3.32641 1.55502 3.33711C1.55502 3.3478 1.54145 3.37028 1.52478 3.38696C1.45658 3.45555 1.23302 3.77364 1.23302 3.80205C1.23302 3.81895 1.21232 3.84765 1.18702 3.86587C1.16172 3.8841 1.14102 3.91745 1.14102 3.93993C1.14102 3.96247 1.13067 3.98087 1.11802 3.98087C1.10537 3.98087 1.09502 3.99444 1.09502 4.01106C1.09502 4.02762 1.07432 4.06345 1.04902 4.09059C1.02372 4.11773 1.00302 4.15591 1.00302 4.1754C1.00302 4.19489 0.992671 4.21087 0.980021 4.21087C0.967371 4.21087 0.957021 4.23158 0.957021 4.25688C0.957021 4.28218 0.946671 4.30288 0.934021 4.30288C0.921371 4.30288 0.911021 4.32357 0.911021 4.34887C0.911021 4.37417 0.900671 4.39488 0.888021 4.39488C0.875371 4.39488 0.865021 4.4104 0.865021 4.42938C0.865021 4.44835 0.854671 4.46387 0.842021 4.46387C0.829371 4.46387 0.819021 4.47911 0.819021 4.49769C0.819021 4.51626 0.798321 4.56835 0.773021 4.61337C0.747721 4.6584 0.727021 4.71567 0.727021 4.74057C0.727021 4.76546 0.716671 4.78587 0.704021 4.78587C0.691371 4.78587 0.681021 4.80594 0.681021 4.83049C0.681021 4.85505 0.670671 4.88156 0.658021 4.88938C0.645371 4.8972 0.635021 4.92888 0.635021 4.95976C0.635021 4.99063 0.624671 5.01587 0.612021 5.01587C0.599371 5.01587 0.589021 5.04693 0.589021 5.08488C0.589021 5.12283 0.578671 5.15387 0.566021 5.15387C0.553371 5.15387 0.543021 5.18493 0.543021 5.22288C0.543021 5.26083 0.532671 5.29188 0.520021 5.29188C0.507371 5.29188 0.497021 5.32229 0.497021 5.3595C0.497021 5.3967 0.486671 5.43355 0.474021 5.44137C0.461371 5.44919 0.451021 5.48605 0.451021 5.52326C0.451021 5.56046 0.440671 5.59087 0.428021 5.59087C0.415371 5.59087 0.405021 5.63021 0.405021 5.67828C0.405021 5.72635 0.395706 5.77551 0.384378 5.78753C0.373051 5.79954 0.358561 5.85078 0.352293 5.90138C0.345968 5.95198 0.330041 6.06065 0.316816 6.14288C0.303649 6.2251 0.289618 6.36741 0.285708 6.45907C0.281741 6.55078 0.270068 6.62582 0.259718 6.62582C0.213546 6.62593 0.266446 7.81745 0.324061 8.07487C0.339643 8.14445 0.380008 8.37595 0.397316 8.4948C0.404216 8.54229 0.419108 8.58691 0.430436 8.59387C0.441763 8.60088 0.451021 8.6474 0.451021 8.69726C0.451021 8.74711 0.461371 8.78788 0.474021 8.78788C0.486671 8.78788 0.497021 8.81829 0.497021 8.8555C0.497021 8.8927 0.507371 8.92955 0.520021 8.93737C0.532671 8.94519 0.543021 8.98142 0.543021 9.01788C0.543021 9.05433 0.553371 9.09055 0.566021 9.09837C0.578671 9.10619 0.589021 9.14823 0.589021 9.19176C0.589021 9.23528 0.599371 9.27087 0.612021 9.27087C0.624671 9.27087 0.635021 9.30192 0.635021 9.33987C0.635021 9.37782 0.645371 9.40888 0.658021 9.40888C0.670671 9.40888 0.681021 9.43929 0.681021 9.4765C0.681021 9.5137 0.691371 9.55055 0.704021 9.55837C0.716671 9.56619 0.727021 9.59724 0.727021 9.62737C0.727021 9.6575 0.737371 9.68856 0.750021 9.69638C0.762671 9.7042 0.773021 9.74042 0.773021 9.77688C0.773021 9.81333 0.783371 9.84955 0.796021 9.85737C0.808671 9.86519 0.819021 9.89688 0.819021 9.92775C0.819021 9.95863 0.829371 9.98388 0.842021 9.98388C0.854671 9.98388 0.865021 10.0149 0.865021 10.0529C0.865021 10.0908 0.875371 10.1219 0.888021 10.1219C0.900671 10.1219 0.911021 10.1478 0.911021 10.1794C0.911021 10.211 0.921371 10.2369 0.934021 10.2369C0.946671 10.2369 0.957021 10.2629 0.957021 10.2947C0.957021 10.3265 0.967371 10.373 0.980021 10.3982C0.992671 10.4233 1.01337 10.4645 1.02602 10.4896C1.03867 10.5147 1.04902 10.5561 1.04902 10.5816C1.04902 10.6071 1.05937 10.6279 1.07202 10.6279C1.08467 10.6279 1.09502 10.6531 1.09502 10.684C1.09502 10.7149 1.10537 10.7466 1.11802 10.7544C1.13067 10.7622 1.14102 10.7887 1.14102 10.8133C1.14102 10.8378 1.15137 10.8579 1.16402 10.8579C1.17667 10.8579 1.18702 10.8831 1.18702 10.914C1.18702 10.9449 1.19737 10.9766 1.21002 10.9844C1.22267 10.9922 1.23302 11.0239 1.23302 11.0548C1.23302 11.0856 1.2451 11.1109 1.25987 11.1109C1.27459 11.1109 1.28109 11.1165 1.27431 11.1232C1.26752 11.1301 1.29259 11.2206 1.33002 11.3245C1.36751 11.4284 1.42053 11.5755 1.44784 11.6514C1.47515 11.7273 1.50528 11.7928 1.51477 11.797C1.52426 11.8013 1.53202 11.8239 1.53202 11.8474C1.53202 11.8709 1.54237 11.8966 1.55502 11.9044C1.56767 11.9122 1.57802 11.9387 1.57802 11.9633C1.57802 11.9878 1.58837 12.0079 1.60102 12.0079C1.61367 12.0079 1.62402 12.0389 1.62402 12.0769C1.62402 12.1148 1.63437 12.1459 1.64702 12.1459C1.65967 12.1459 1.67002 12.1666 1.67002 12.1919C1.67002 12.2172 1.68037 12.2379 1.69302 12.2379C1.70567 12.2379 1.71602 12.2579 1.71602 12.2825C1.71602 12.307 1.72637 12.3336 1.73902 12.3414C1.75167 12.3492 1.76202 12.3809 1.76202 12.4118C1.76202 12.4426 1.77237 12.4679 1.78502 12.4679C1.79767 12.4679 1.80802 12.4835 1.80802 12.5027C1.80802 12.5218 1.81837 12.558 1.83102 12.5832C1.84367 12.6083 1.86437 12.6495 1.87702 12.6746C1.88967 12.6997 1.90002 12.7359 1.90002 12.7551C1.90002 12.7742 1.90778 12.7899 1.91727 12.79C1.94062 12.7903 1.99202 12.9041 1.99202 12.9555C1.99202 12.9782 2.00237 12.9969 2.01502 12.9969C2.02767 12.9969 2.03802 13.0176 2.03802 13.0429C2.03802 13.0682 2.04837 13.0889 2.06102 13.0889C2.07367 13.0889 2.08402 13.1089 2.08402 13.1335C2.08402 13.158 2.09437 13.1846 2.10702 13.1924C2.11967 13.2002 2.13002 13.2319 2.13002 13.2628C2.13002 13.2936 2.14037 13.3189 2.15302 13.3189C2.16567 13.3189 2.17602 13.3396 2.17602 13.3649C2.17602 13.3902 2.18522 13.4109 2.19643 13.4109C2.2077 13.4109 2.22392 13.4484 2.23254 13.4942C2.24111 13.54 2.25669 13.5944 2.2671 13.6149C2.27745 13.6355 2.3104 13.7041 2.34024 13.7674C2.37008 13.8306 2.40228 13.8858 2.41177 13.89C2.42126 13.8943 2.42902 13.9129 2.42902 13.9314C2.42902 13.9499 2.44972 14.008 2.47502 14.0603C2.50032 14.1127 2.52102 14.1691 2.52102 14.1857C2.52102 14.2023 2.53137 14.2159 2.54402 14.2159C2.55667 14.2159 2.56702 14.2366 2.56702 14.2619C2.56702 14.2872 2.57737 14.3079 2.59002 14.3079C2.60267 14.3079 2.61302 14.3271 2.61302 14.3507C2.61302 14.3742 2.65442 14.474 2.70502 14.5724C2.75562 14.6708 2.79702 14.7653 2.79702 14.7825C2.79702 14.7998 2.80484 14.8139 2.81439 14.8139C2.82399 14.8139 2.84532 14.8475 2.86194 14.8886C2.8785 14.9297 2.90173 14.9814 2.91352 15.0033C2.92536 15.0253 2.93502 15.0589 2.93502 15.0781C2.93502 15.0972 2.94537 15.1129 2.95802 15.1129C2.97067 15.1129 2.98102 15.1336 2.98102 15.1589C2.98102 15.1842 2.99137 15.2049 3.00402 15.2049C3.01667 15.2049 3.02702 15.2256 3.02702 15.2509C3.02702 15.2762 3.03737 15.2969 3.05002 15.2969C3.06267 15.2969 3.07302 15.3176 3.07302 15.3429C3.07302 15.3682 3.08337 15.3889 3.09602 15.3889C3.10867 15.3889 3.11902 15.4096 3.11902 15.4349C3.11902 15.4602 3.12811 15.4809 3.13915 15.4809C3.15024 15.4809 3.16548 15.5119 3.17307 15.5498C3.1806 15.5876 3.2078 15.662 3.23345 15.7151C3.25903 15.7681 3.28002 15.8206 3.28002 15.8319C3.28002 15.843 3.29606 15.8682 3.31567 15.8878C3.33522 15.9074 3.35724 15.9532 3.36455 15.9896C3.37179 16.0261 3.38686 16.0559 3.3979 16.0559C3.40899 16.0559 3.41802 16.0766 3.41802 16.1019C3.41802 16.1272 3.42837 16.1479 3.44102 16.1479C3.45367 16.1479 3.46402 16.1686 3.46402 16.1939C3.46402 16.2192 3.47437 16.2399 3.48702 16.2399C3.49967 16.2399 3.51002 16.2606 3.51002 16.2859C3.51002 16.3112 3.52037 16.3319 3.53302 16.3319C3.54567 16.3319 3.55602 16.3526 3.55602 16.3779C3.55602 16.4032 3.56637 16.4239 3.57902 16.4239C3.59167 16.4239 3.60202 16.4439 3.60202 16.4685C3.60202 16.493 3.61237 16.5196 3.62502 16.5274C3.63767 16.5352 3.64802 16.5617 3.64802 16.5863C3.64802 16.6108 3.65578 16.6309 3.66527 16.631C3.68591 16.6313 3.74002 16.7427 3.74002 16.785C3.74002 16.8014 3.75037 16.8149 3.76302 16.8149C3.77567 16.8149 3.78602 16.8356 3.78602 16.8609C3.78602 16.8862 3.79637 16.9069 3.80902 16.9069C3.82167 16.9069 3.83202 16.9276 3.83202 16.9529C3.83202 16.9782 3.84237 16.9989 3.85502 16.9989C3.86767 16.9989 3.87802 17.0196 3.87802 17.0449C3.87802 17.0702 3.88837 17.0909 3.90102 17.0909C3.91367 17.0909 3.92402 17.1116 3.92402 17.1369C3.92402 17.1622 3.93437 17.1829 3.94702 17.1829C3.95967 17.1829 3.97002 17.2036 3.97002 17.2289C3.97002 17.2542 3.98037 17.2749 3.99302 17.2749C4.00567 17.2749 4.01602 17.2956 4.01602 17.3209C4.01602 17.3462 4.02637 17.3669 4.03902 17.3669C4.05167 17.3669 4.06202 17.3876 4.06202 17.4129C4.06202 17.4382 4.07237 17.4589 4.08502 17.4589C4.09767 17.4589 4.10802 17.4738 4.10802 17.4922C4.10802 17.5105 4.1339 17.5741 4.16552 17.6336C4.19715 17.6931 4.22302 17.7557 4.22302 17.7728C4.22302 17.7899 4.23337 17.8039 4.24602 17.8039C4.25867 17.8039 4.26902 17.8246 4.26902 17.8499C4.26902 17.8752 4.27937 17.8959 4.29202 17.8959C4.30467 17.8959 4.31502 17.9166 4.31502 17.9419C4.31502 17.9672 4.32537 17.9879 4.33802 17.9879C4.35067 17.9879 4.36102 18.0086 4.36102 18.0339C4.36102 18.0592 4.37137 18.0799 4.38402 18.0799C4.39667 18.0799 4.40702 18.1006 4.40702 18.1259C4.40702 18.1512 4.41737 18.1719 4.43002 18.1719C4.44267 18.1719 4.45302 18.1926 4.45302 18.2179C4.45302 18.2432 4.46337 18.2639 4.47602 18.2639C4.48867 18.2639 4.49902 18.2846 4.49902 18.3099C4.49902 18.3352 4.50937 18.3559 4.52202 18.3559C4.53467 18.3559 4.54502 18.3766 4.54502 18.4019C4.54502 18.4272 4.55537 18.4479 4.56802 18.4479C4.58067 18.4479 4.59102 18.4686 4.59102 18.4939C4.59102 18.5192 4.59942 18.5399 4.60971 18.5399C4.62 18.5399 4.64266 18.5761 4.66002 18.6204C4.67739 18.6646 4.70004 18.7009 4.71033 18.7009C4.72063 18.7009 4.72902 18.7216 4.72902 18.7469C4.72902 18.7722 4.73937 18.7929 4.75202 18.7929C4.76467 18.7929 4.77502 18.8136 4.77502 18.8389C4.77502 18.8642 4.78537 18.8849 4.79802 18.8849C4.81067 18.8849 4.82102 18.9056 4.82102 18.9309C4.82102 18.9562 4.83137 18.9769 4.84402 18.9769C4.85667 18.9769 4.86702 18.9976 4.86702 19.0229C4.86702 19.0482 4.87737 19.0689 4.89002 19.0689C4.90267 19.0689 4.91302 19.0896 4.91302 19.1149C4.91302 19.1402 4.92337 19.1609 4.93602 19.1609C4.94867 19.1609 4.95902 19.1816 4.95902 19.2069C4.95902 19.2322 4.96937 19.2529 4.98202 19.2529C4.99467 19.2529 5.00502 19.2736 5.00502 19.2989C5.00502 19.3242 5.01537 19.3449 5.02802 19.3449C5.04067 19.3449 5.05102 19.3647 5.05102 19.389C5.05102 19.4132 5.05878 19.4365 5.06827 19.4407C5.07776 19.4449 5.1471 19.5726 5.22243 19.7244C5.2977 19.8762 5.36756 20.0038 5.37768 20.008C5.38774 20.0123 5.39602 20.0356 5.39602 20.0598C5.39602 20.084 5.40637 20.1039 5.41902 20.1039C5.43167 20.1039 5.44202 20.1246 5.44202 20.1499C5.44202 20.1752 5.45237 20.1959 5.46502 20.1959C5.47767 20.1959 5.48802 20.2166 5.48802 20.2419C5.48802 20.2672 5.49837 20.2879 5.51102 20.2879C5.52367 20.2879 5.53402 20.3077 5.53402 20.332C5.53402 20.3562 5.54178 20.3795 5.55127 20.3837C5.56076 20.3879 5.59428 20.4431 5.62573 20.5064C5.65719 20.5696 5.68824 20.6265 5.69473 20.6329C5.70123 20.6392 5.72981 20.6884 5.75827 20.7421C5.78673 20.7959 5.83331 20.8839 5.86177 20.9376C5.89023 20.9914 5.92128 21.0388 5.93077 21.043C5.94026 21.0473 5.94802 21.0706 5.94802 21.0948C5.94802 21.119 5.95837 21.1389 5.97102 21.1389C5.98367 21.1389 5.99402 21.1596 5.99402 21.1849C5.99402 21.2102 6.00437 21.2309 6.01702 21.2309C6.02967 21.2309 6.04002 21.2447 6.04002 21.2616C6.04002 21.2785 6.0924 21.3897 6.1564 21.5088C6.2204 21.6279 6.27853 21.7435 6.28555 21.7656C6.29262 21.7878 6.30751 21.8059 6.31872 21.8059C6.32988 21.8059 6.33902 21.8266 6.33902 21.8519C6.33902 21.8772 6.34678 21.8979 6.35627 21.898C6.37691 21.8983 6.43102 22.0097 6.43102 22.052C6.43102 22.0699 6.45874 22.0819 6.50002 22.0819C6.55269 22.0819 6.56902 22.0715 6.56902 22.0378C6.56902 22.0136 6.57678 21.9903 6.58627 21.986C6.60162 21.9792 6.72134 21.7647 6.78608 21.6278C6.79954 21.5995 6.81828 21.5762 6.82777 21.576C6.83726 21.5759 6.84502 21.5594 6.84502 21.5392C6.84502 21.519 6.86641 21.4724 6.89257 21.4357C6.91874 21.3989 6.93443 21.3689 6.92742 21.3689C6.9204 21.3689 6.93518 21.3352 6.96025 21.2941C6.98532 21.253 7.00591 21.2013 7.00596 21.1791C7.00596 21.157 7.01637 21.1389 7.02902 21.1389C7.04167 21.1389 7.05202 21.1253 7.05202 21.1087C7.05202 21.0921 7.07272 21.0563 7.09802 21.0292C7.12332 21.002 7.14402 20.9638 7.14402 20.9444C7.14402 20.9249 7.15437 20.9089 7.16702 20.9089C7.17967 20.9089 7.19002 20.8882 7.19002 20.8629C7.19002 20.8376 7.20037 20.8169 7.21302 20.8169C7.22567 20.8169 7.23602 20.7962 7.23602 20.7709C7.23602 20.7456 7.24637 20.7249 7.25902 20.7249C7.27167 20.7249 7.28202 20.7042 7.28202 20.6789C7.28202 20.6536 7.29042 20.6329 7.30071 20.6329C7.311 20.6329 7.33366 20.5967 7.35102 20.5524C7.36839 20.5081 7.39104 20.4719 7.40133 20.4719C7.41163 20.4719 7.42002 20.452 7.42002 20.4278C7.42002 20.4036 7.42778 20.3803 7.43727 20.376C7.45377 20.3687 7.52933 20.232 7.68297 19.9314C7.72178 19.8555 7.76128 19.7899 7.77077 19.7857C7.78026 19.7815 7.78802 19.7659 7.78802 19.7512C7.78808 19.7365 7.82413 19.6519 7.86818 19.5634C7.91222 19.4748 7.94845 19.3894 7.94862 19.3736C7.94885 19.3578 7.95937 19.3449 7.97202 19.3449C7.98467 19.3449 7.99502 19.3242 7.99502 19.2989C7.99502 19.2736 8.00537 19.2529 8.01802 19.2529C8.03067 19.2529 8.04102 19.2322 8.04102 19.2069C8.04102 19.1816 8.05137 19.1609 8.06402 19.1609C8.07667 19.1609 8.08702 19.1402 8.08702 19.1149C8.08702 19.0896 8.09737 19.0689 8.11002 19.0689C8.12267 19.0689 8.13302 19.0482 8.13302 19.0229C8.13302 18.9976 8.14337 18.9769 8.15602 18.9769C8.16867 18.9769 8.17902 18.9562 8.17902 18.9309C8.17902 18.9056 8.18678 18.8848 8.19627 18.8848C8.20576 18.8848 8.2394 18.8278 8.27102 18.7584C8.30265 18.6889 8.33628 18.632 8.34577 18.6319C8.35526 18.6319 8.36302 18.6112 8.36302 18.5859C8.36302 18.5606 8.37337 18.5399 8.38602 18.5399C8.39867 18.5399 8.40902 18.52 8.40902 18.4958C8.40902 18.4716 8.41678 18.4483 8.42627 18.444C8.45065 18.4332 8.59302 18.1489 8.59302 18.1112C8.59302 18.094 8.60337 18.0799 8.61602 18.0799C8.62867 18.0799 8.63902 18.0592 8.63902 18.0339C8.63902 18.0086 8.64937 17.9879 8.66202 17.9879C8.67467 17.9879 8.68502 17.9672 8.68502 17.9419C8.68502 17.9166 8.69537 17.8959 8.70802 17.8959C8.72067 17.8959 8.73102 17.8796 8.73102 17.8597C8.73102 17.8399 8.74655 17.8081 8.76552 17.7891C8.7845 17.7701 8.80002 17.7359 8.80002 17.713C8.80002 17.6902 8.81526 17.6589 8.83389 17.6434C8.85258 17.6279 8.87443 17.5801 8.88248 17.5371C8.89053 17.4941 8.90634 17.4589 8.91761 17.4589C8.92882 17.4589 8.93802 17.4382 8.93802 17.4129C8.93802 17.3876 8.94837 17.3669 8.96102 17.3669C8.97367 17.3669 8.98402 17.3462 8.98402 17.3209C8.98402 17.2956 8.99437 17.2749 9.00702 17.2749C9.01967 17.2749 9.03002 17.2542 9.03002 17.2289C9.03002 17.2036 9.04037 17.1829 9.05302 17.1829C9.06567 17.1829 9.07602 17.1622 9.07602 17.1369C9.07602 17.1116 9.08637 17.0909 9.09902 17.0909C9.11167 17.0909 9.12202 17.0702 9.12202 17.0449C9.12202 17.0196 9.13237 16.9989 9.14502 16.9989C9.15767 16.9989 9.16802 16.9782 9.16802 16.9529C9.16802 16.9276 9.17837 16.9069 9.19102 16.9069C9.20367 16.9069 9.21402 16.887 9.21402 16.8628C9.21402 16.8386 9.2219 16.8153 9.23156 16.811C9.24122 16.8068 9.30441 16.6895 9.37209 16.5504C9.43971 16.4112 9.51463 16.2576 9.53855 16.2089C9.56247 16.1603 9.58202 16.106 9.58202 16.0882C9.58202 16.0704 9.59157 16.0559 9.60324 16.0559C9.61491 16.0559 9.6359 16.0212 9.64987 15.9788C9.6639 15.9364 9.72157 15.8096 9.7781 15.6971C9.83468 15.5845 9.88091 15.4743 9.88096 15.4521C9.88102 15.43 9.89137 15.4119 9.90402 15.4119C9.91667 15.4119 9.92702 15.3918 9.92702 15.3673C9.92702 15.3427 9.93737 15.3162 9.95002 15.3084C9.96267 15.3006 9.97302 15.274 9.97302 15.2495C9.97302 15.2249 9.98337 15.2049 9.99602 15.2049C10.0087 15.2049 10.019 15.1842 10.019 15.1589C10.019 15.1336 10.0294 15.1129 10.042 15.1129C10.0547 15.1129 10.065 15.0922 10.065 15.0669C10.065 15.0416 10.0754 15.0209 10.088 15.0209C10.1007 15.0209 10.111 15.0002 10.111 14.9749C10.111 14.9496 10.1214 14.9289 10.134 14.9289C10.1467 14.9289 10.157 14.9082 10.157 14.8829C10.157 14.8576 10.1674 14.8369 10.18 14.8369C10.1927 14.8369 10.203 14.8168 10.203 14.7923C10.203 14.7677 10.2134 14.7412 10.226 14.7334C10.2387 14.7256 10.249 14.699 10.249 14.6745C10.249 14.6499 10.2594 14.6299 10.272 14.6299C10.2847 14.6299 10.295 14.6092 10.295 14.5839C10.295 14.5586 10.3054 14.5379 10.318 14.5379C10.3307 14.5379 10.341 14.5222 10.341 14.5031C10.341 14.4839 10.3514 14.4477 10.364 14.4226C10.3767 14.3975 10.3974 14.3563 10.41 14.3312C10.4227 14.306 10.433 14.2698 10.433 14.2507C10.433 14.2315 10.4434 14.2159 10.456 14.2159C10.4687 14.2159 10.479 14.1952 10.479 14.1699C10.479 14.1446 10.4894 14.1239 10.502 14.1239C10.5147 14.1239 10.525 14.1082 10.525 14.0891C10.525 14.0699 10.535 14.0363 10.5473 14.0143C10.624 13.8764 10.801 13.4692 10.8138 13.4008C10.8222 13.3557 10.8383 13.3189 10.8496 13.3189C10.8608 13.3189 10.87 13.2982 10.87 13.2729C10.87 13.2476 10.8804 13.2269 10.893 13.2269C10.9057 13.2269 10.916 13.1958 10.916 13.1579C10.916 13.1199 10.9264 13.0889 10.939 13.0889C10.9517 13.0889 10.962 13.0682 10.962 13.0429C10.962 13.0176 10.9724 12.9969 10.985 12.9969C10.9977 12.9969 11.008 12.9762 11.008 12.9509C11.008 12.9256 11.0184 12.9049 11.031 12.9049C11.0437 12.9049 11.054 12.879 11.054 12.8474C11.054 12.8157 11.0644 12.7899 11.077 12.7899C11.0897 12.7899 11.1 12.7698 11.1 12.7453C11.1 12.7207 11.1104 12.6942 11.123 12.6864C11.1357 12.6786 11.146 12.652 11.146 12.6275C11.146 12.6029 11.1564 12.5829 11.169 12.5829C11.1817 12.5829 11.192 12.557 11.192 12.5254C11.192 12.4938 11.2024 12.4679 11.215 12.4679C11.2277 12.4679 11.238 12.4472 11.238 12.4219C11.238 12.3966 11.2465 12.3759 11.2569 12.3759C11.2672 12.3759 11.2898 12.3241 11.307 12.2609C11.3243 12.1976 11.3468 12.1459 11.3572 12.1459C11.3676 12.1459 11.376 12.12 11.376 12.0884C11.376 12.0568 11.3864 12.0309 11.399 12.0309C11.4117 12.0309 11.422 12.0152 11.422 11.9961C11.422 11.9769 11.4312 11.9433 11.4423 11.9213C11.4535 11.8994 11.4742 11.8529 11.4883 11.8181C11.5025 11.7833 11.5258 11.7264 11.5401 11.6916C11.5544 11.6568 11.5764 11.6025 11.5888 11.5709C11.6012 11.5393 11.6205 11.4954 11.6317 11.4734C11.6429 11.4514 11.652 11.4126 11.652 11.3872C11.652 11.3617 11.6601 11.3409 11.6699 11.3409C11.6798 11.3409 11.7062 11.2762 11.7287 11.1971C11.7683 11.0578 11.7965 10.9815 11.8387 10.8984C11.8499 10.8764 11.859 10.8376 11.859 10.8122C11.859 10.7867 11.8694 10.7659 11.882 10.7659C11.8947 10.7659 11.905 10.7348 11.905 10.6969C11.905 10.6589 11.9154 10.6279 11.928 10.6279C11.9407 10.6279 11.951 10.6072 11.951 10.5819C11.951 10.5566 11.9614 10.5359 11.974 10.5359C11.9867 10.5359 11.997 10.5048 11.997 10.4669C11.997 10.4289 12.0074 10.3979 12.02 10.3979C12.0327 10.3979 12.043 10.3668 12.043 10.3289C12.043 10.2909 12.0534 10.2599 12.066 10.2599C12.0787 10.2599 12.089 10.2288 12.089 10.1909C12.089 10.1529 12.0994 10.1219 12.112 10.1219C12.1247 10.1219 12.135 10.0966 12.135 10.0658C12.135 10.0349 12.1454 10.0032 12.158 9.99538C12.1707 9.98756 12.181 9.95651 12.181 9.92638C12.181 9.89625 12.1914 9.86519 12.204 9.85737C12.2167 9.84955 12.227 9.8185 12.227 9.78837C12.227 9.75824 12.2374 9.7272 12.25 9.71938C12.2627 9.71156 12.273 9.68493 12.273 9.66021C12.273 9.63548 12.2821 9.5973 12.2932 9.57534C12.3271 9.50823 12.365 9.37392 12.365 9.32102C12.365 9.29342 12.3754 9.27087 12.388 9.27087C12.4007 9.27087 12.411 9.23983 12.411 9.20188C12.411 9.16393 12.4214 9.13288 12.434 9.13288C12.4467 9.13288 12.457 9.09728 12.457 9.05375C12.457 9.01023 12.4674 8.9682 12.48 8.96038C12.4927 8.95256 12.503 8.91633 12.503 8.87987C12.503 8.84342 12.5122 8.80788 12.5235 8.80093C12.5347 8.79397 12.5497 8.75458 12.5567 8.71336C12.5637 8.67213 12.581 8.58662 12.595 8.52337C12.6091 8.46012 12.6258 8.37215 12.6322 8.32788C12.6386 8.2836 12.6529 8.22668 12.664 8.20138C12.6859 8.15141 12.7006 8.06458 12.7322 7.79888C12.7849 7.35607 12.7398 6.14299 12.6643 5.97038C12.6435 5.92294 12.6246 5.83111 12.6028 5.67137C12.5959 5.62077 12.581 5.56954 12.5697 5.55753C12.5583 5.54551 12.549 5.5125 12.549 5.48416C12.549 5.45581 12.5387 5.42619 12.526 5.41837C12.5134 5.41055 12.503 5.37433 12.503 5.33788C12.503 5.30142 12.4947 5.26646 12.4846 5.26019C12.4744 5.25392 12.4517 5.19573 12.434 5.13087C12.4164 5.06601 12.3936 5.00782 12.3835 5.00156C12.3733 4.99529 12.365 4.96487 12.365 4.934C12.365 4.90312 12.3547 4.87788 12.342 4.87788C12.3294 4.87788 12.319 4.86224 12.319 4.84309C12.319 4.82394 12.3087 4.78771 12.296 4.76259C12.2834 4.73746 12.2627 4.69629 12.25 4.67116C12.2374 4.64604 12.227 4.60981 12.227 4.59066C12.227 4.57152 12.2186 4.55587 12.2083 4.55587C12.198 4.55587 12.1754 4.51965 12.158 4.47538C12.1407 4.4311 12.118 4.39488 12.1077 4.39488C12.0974 4.39488 12.089 4.37417 12.089 4.34887C12.089 4.32357 12.0787 4.30288 12.066 4.30288C12.0534 4.30288 12.043 4.28218 12.043 4.25688C12.043 4.23158 12.0327 4.21087 12.02 4.21087C12.0074 4.21087 11.997 4.19018 11.997 4.16488C11.997 4.13958 11.9867 4.11887 11.974 4.11887C11.9614 4.11887 11.951 4.10048 11.951 4.07794C11.951 4.05545 11.9303 4.0221 11.905 4.00387C11.8797 3.98565 11.859 3.9523 11.859 3.92981C11.859 3.90727 11.8487 3.88887 11.836 3.88887C11.8234 3.88887 11.813 3.87421 11.813 3.85627C11.813 3.83839 11.8053 3.82028 11.7958 3.81602C11.7863 3.81183 11.7602 3.77215 11.7377 3.72788C11.6891 3.63197 11.5235 3.40777 11.4108 3.28518C11.3664 3.23688 11.33 3.18755 11.33 3.17559C11.33 3.13752 10.5035 2.32488 10.4649 2.32488C10.4575 2.32488 10.4225 2.29383 10.387 2.25588C10.3515 2.21793 10.3127 2.18688 10.3007 2.18688C10.2887 2.18688 10.2464 2.15582 10.2066 2.11787C10.1669 2.07992 10.1211 2.04887 10.1048 2.04887C10.0885 2.04887 10.0602 2.02817 10.042 2.00287C10.0238 1.97757 9.99522 1.95688 9.97848 1.95688C9.96175 1.95688 9.92765 1.93784 9.9027 1.91456C9.87769 1.89127 9.82898 1.85763 9.79437 1.83986C9.75981 1.82204 9.72635 1.80226 9.72002 1.79593C9.7076 1.78346 9.58628 1.71653 9.42102 1.63097C9.3641 1.60147 9.31407 1.56961 9.30987 1.56013C9.30562 1.55064 9.28233 1.54287 9.25812 1.54287C9.23386 1.54287 9.21402 1.53252 9.21402 1.51987C9.21402 1.50722 9.19746 1.49688 9.17722 1.49688C9.14295 1.49688 9.02439 1.45133 8.93256 1.40292C8.91059 1.39136 8.87178 1.38188 8.84631 1.38188C8.82084 1.38188 8.80002 1.37153 8.80002 1.35888C8.80002 1.34623 8.78438 1.33588 8.76523 1.33588C8.74609 1.33588 8.70986 1.32552 8.68473 1.31287C8.65961 1.30022 8.61844 1.27953 8.59331 1.26688C8.56818 1.25423 8.52741 1.24388 8.50269 1.24388C8.47796 1.24388 8.45134 1.23353 8.44352 1.22088C8.4357 1.20823 8.39948 1.19787 8.36302 1.19787C8.32657 1.19787 8.29034 1.18752 8.28252 1.17487C8.2747 1.16222 8.23784 1.15188 8.20064 1.15188C8.16344 1.15188 8.13302 1.14153 8.13302 1.12888C8.13302 1.11623 8.09162 1.10588 8.04102 1.10588C7.99042 1.10588 7.94902 1.09552 7.94902 1.08287C7.94902 1.07022 7.90245 1.05987 7.84552 1.05987C7.7886 1.05987 7.74202 1.04953 7.74202 1.03688C7.74202 1.02423 7.68573 1.01388 7.6169 1.01388C7.54807 1.01388 7.48534 1.00353 7.47752 0.990875C7.4697 0.978225 7.38109 0.967875 7.28064 0.967875C7.17421 0.967875 7.09802 0.958272 7.09802 0.944875C7.09802 0.930155 6.88383 0.921875 6.5014 0.921875C6.1284 0.921875 5.89943 0.9305 5.89052 0.944875ZM6.75262 1.91134C7.36844 1.94877 7.88715 2.05462 8.38602 2.24449C8.63091 2.33775 8.97039 2.50008 9.09166 2.58196C9.14456 2.61766 9.19418 2.64688 9.202 2.64688C9.22293 2.64688 9.6179 2.91281 9.77752 3.03443C9.91403 3.13844 10.4632 3.674 10.5721 3.80947C11.2066 4.59814 11.5731 5.41469 11.7329 6.39587C11.7931 6.76566 11.7931 7.61355 11.7329 7.98288C11.524 9.26409 10.9419 10.3151 9.95002 11.2018C9.61899 11.4978 9.02352 11.8673 8.55852 12.0654C8.50792 12.0869 8.44582 12.1134 8.42052 12.1243C7.6506 12.4538 6.44695 12.5672 5.53402 12.3961C5.29373 12.3512 4.86863 12.2353 4.68877 12.1659C4.66031 12.1548 4.61373 12.1368 4.58527 12.1258C3.2772 11.6181 2.15722 10.525 1.62488 9.23638C1.51621 8.97331 1.51489 8.9698 1.4847 8.86837C1.46969 8.81777 1.4483 8.75838 1.4372 8.73641C1.42611 8.71445 1.41702 8.67109 1.41702 8.64004C1.41702 8.60899 1.40667 8.5772 1.39402 8.56938C1.38137 8.56156 1.37102 8.52159 1.37102 8.48059C1.37102 8.4396 1.36171 8.39624 1.35038 8.38423C1.33905 8.37221 1.32381 8.32098 1.31657 8.27038C1.30927 8.21978 1.29253 8.1111 1.27925 8.02888C1.20186 7.54829 1.21888 6.31377 1.30415 6.22453C1.31565 6.21251 1.32502 6.1588 1.32502 6.10515C1.32502 6.05151 1.33537 6.00119 1.34802 5.99337C1.36067 5.98555 1.37102 5.94416 1.37102 5.90138C1.37102 5.8586 1.38137 5.8172 1.39402 5.80938C1.40667 5.80156 1.41702 5.76976 1.41702 5.73871C1.41702 5.70766 1.42611 5.6643 1.4372 5.64234C1.4483 5.62037 1.46969 5.56098 1.4847 5.51038C1.51489 5.40895 1.51621 5.40544 1.62488 5.14238C1.78065 4.76529 2.05372 4.28476 2.25698 4.02998C2.7033 3.47062 3.09878 3.09791 3.58742 2.77608C3.69534 2.70501 3.79005 2.64688 3.79792 2.64688C3.8058 2.64688 3.85738 2.61582 3.91252 2.57787C3.96766 2.53992 4.02907 2.50887 4.04891 2.50887C4.06875 2.50887 4.08502 2.50106 4.08502 2.49151C4.08502 2.48191 4.11866 2.46029 4.15977 2.44344C4.20088 2.42659 4.29662 2.3837 4.37252 2.34811C4.85765 2.12058 5.52476 1.95164 6.09752 1.91128C6.22402 1.90237 6.33787 1.89357 6.35052 1.89167C6.36317 1.88983 6.54412 1.89869 6.75262 1.91134ZM6.0157 2.6329C6.00903 2.63952 5.93158 2.65527 5.84354 2.66786C5.65029 2.69552 5.48244 2.73146 5.21202 2.80316C4.93539 2.87647 4.2478 3.17093 4.22687 3.2251C4.22262 3.23596 4.20928 3.24488 4.1972 3.24488C4.17547 3.24488 3.77579 3.50679 3.72547 3.55394C3.71116 3.56739 3.65423 3.61397 3.59897 3.65744C3.30981 3.88497 2.93933 4.29575 2.69841 4.65598C2.53476 4.90059 2.52706 4.91375 2.40826 5.15387C2.36755 5.2361 2.32454 5.32137 2.31264 5.34334C2.30074 5.3653 2.29102 5.39894 2.29102 5.41809C2.29102 5.43724 2.28067 5.45288 2.26802 5.45288C2.25537 5.45288 2.24502 5.47369 2.24502 5.49916C2.24502 5.52464 2.23467 5.56604 2.22202 5.59116C2.20937 5.61629 2.18867 5.65746 2.17602 5.68259C2.16337 5.70771 2.15302 5.74848 2.15302 5.77321C2.15302 5.79793 2.14267 5.82456 2.13002 5.83238C2.11737 5.8402 2.10702 5.87642 2.10702 5.91288C2.10702 5.94933 2.09776 5.98487 2.08644 5.99188C2.07511 5.99884 2.06027 6.04346 2.05343 6.09095C2.04659 6.13851 2.0298 6.22913 2.01617 6.29238C1.90502 6.80717 1.90497 7.57382 2.01606 8.08638C2.0298 8.14963 2.04659 8.24024 2.05343 8.2878C2.06027 8.33529 2.07511 8.37991 2.08644 8.38687C2.09776 8.39389 2.10702 8.42942 2.10702 8.46587C2.10702 8.50233 2.11737 8.53856 2.13002 8.54638C2.14267 8.5542 2.15302 8.58525 2.15302 8.61538C2.15302 8.64551 2.16337 8.67656 2.17602 8.68438C2.18867 8.6922 2.19902 8.71882 2.19902 8.74354C2.19902 8.76827 2.20845 8.80645 2.22001 8.82841C2.23157 8.85038 2.26894 8.93048 2.3031 9.00638C2.54419 9.54233 2.93324 10.1164 3.26737 10.429C3.48811 10.6356 3.5662 10.7022 3.83237 10.9111C3.85151 10.9261 3.8955 10.953 3.93012 10.971C3.96473 10.989 3.99302 11.0123 3.99302 11.0228C3.99302 11.0333 4.00659 11.0419 4.02321 11.0419C4.03977 11.0419 4.07559 11.0626 4.10273 11.0879C4.12987 11.1132 4.16719 11.1339 4.18565 11.1339C4.2041 11.1339 4.22262 11.1424 4.22687 11.1528C4.23855 11.1817 4.69337 11.3984 4.90698 11.4769C5.18839 11.5803 5.54696 11.6694 5.92767 11.7304C6.11506 11.7605 6.88401 11.7626 7.05392 11.7335C7.12246 11.7218 7.25097 11.7 7.33952 11.685C7.7587 11.6141 8.26964 11.4396 8.63902 11.2411C8.7086 11.2037 8.78875 11.1617 8.8171 11.1477C8.84545 11.1338 8.86873 11.1146 8.86885 11.1051C8.86896 11.0956 8.88012 11.0879 8.89363 11.0879C8.91404 11.0879 9.06722 10.9915 9.15652 10.9225C9.53953 10.6266 9.88947 10.3016 10.0311 10.1104C10.0686 10.0598 10.105 10.0132 10.112 10.0069C10.119 10.0006 10.1496 9.95915 10.18 9.91487C10.2104 9.8706 10.2414 9.8292 10.2489 9.82288C10.3111 9.77015 10.649 9.15041 10.7347 8.93163C10.7789 8.81898 10.8073 8.75159 10.8267 8.71341C10.8379 8.69145 10.847 8.65327 10.847 8.62854C10.847 8.60382 10.8562 8.57794 10.8674 8.57104C10.8786 8.56409 10.8934 8.52987 10.9004 8.49491C10.9075 8.45995 10.9248 8.3848 10.939 8.32788C10.9737 8.18913 11.0043 8.03003 11.0365 7.82188C11.0718 7.59389 11.0707 6.77785 11.0348 6.54538C11.0192 6.44418 11.0005 6.31998 10.9934 6.26938C10.9862 6.21878 10.971 6.16754 10.9597 6.15552C10.9483 6.14351 10.939 6.10015 10.939 6.05916C10.939 6.01816 10.9287 5.9782 10.916 5.97038C10.9034 5.96256 10.893 5.92633 10.893 5.88988C10.893 5.85342 10.8827 5.8172 10.87 5.80938C10.8574 5.80156 10.847 5.77493 10.847 5.75021C10.847 5.72548 10.8379 5.6873 10.8267 5.66534C10.8155 5.64337 10.7959 5.5995 10.783 5.56788C10.6656 5.27848 10.4849 4.91772 10.3568 4.71688C10.3045 4.63465 10.2556 4.5622 10.2484 4.55587C10.2412 4.54955 10.2104 4.50815 10.18 4.46387C10.1496 4.4196 10.1189 4.3782 10.1118 4.37188C10.1047 4.36555 10.0524 4.30362 9.99573 4.23428C9.8203 4.01986 9.42907 3.65157 9.23702 3.52001C9.19275 3.48971 9.14284 3.45165 9.12616 3.43537C9.10943 3.41916 9.04733 3.37793 8.98816 3.34372C8.92894 3.30956 8.87535 3.27524 8.86902 3.26742C8.84056 3.2324 8.33128 2.99015 8.14452 2.92276C8.03067 2.88171 7.91682 2.84025 7.89152 2.83064C7.84638 2.81345 7.73495 2.78281 7.56377 2.7406C7.4624 2.71559 7.26253 2.67672 7.13252 2.65677C7.01183 2.63825 6.03128 2.61726 6.0157 2.6329ZM6.56632 4.53288C6.59277 4.6212 6.59777 4.62487 6.69069 4.62522C6.87228 4.62591 6.87435 4.66409 6.69972 4.79157C6.66062 4.82003 6.66016 4.82877 6.69311 4.92439C6.73847 5.05601 6.71542 5.07596 6.60479 5.00081C6.52682 4.9478 6.50985 4.94406 6.46765 4.97068C6.29101 5.08206 6.27755 5.07855 6.31481 4.93055L6.34253 4.82049L6.25703 4.74873C6.15347 4.66173 6.16813 4.62488 6.30636 4.62488C6.41205 4.62488 6.4201 4.61752 6.46293 4.48113C6.48496 4.41109 6.53774 4.43748 6.56632 4.53288ZM5.32668 4.87212C5.35617 4.96608 5.361 4.96987 5.45145 4.97022C5.57186 4.97068 5.63309 5.00575 5.57416 5.04048C5.44363 5.11742 5.41908 5.16043 5.44731 5.26238C5.46203 5.31574 5.46761 5.36594 5.45967 5.37387C5.44271 5.39089 5.30402 5.31338 5.30402 5.28693C5.30402 5.25266 5.2506 5.26905 5.17545 5.32637C5.13399 5.358 5.08903 5.38387 5.07557 5.38387C5.04452 5.38387 5.0432 5.27641 5.07402 5.25738C5.13894 5.21724 5.08598 5.12012 4.95321 5.03571C4.90359 5.00414 4.96724 4.96988 5.0754 4.96988C5.17459 4.96988 5.18902 4.9639 5.18902 4.92273C5.18902 4.8585 5.25785 4.72981 5.27895 4.75448C5.28838 4.76541 5.30983 4.81836 5.32668 4.87212ZM7.78296 4.81462C7.79711 4.84309 7.81188 4.88708 7.81579 4.91238C7.82108 4.9467 7.84322 4.95993 7.90319 4.96458C8.11146 4.98068 8.12808 5.00282 7.9937 5.08522C7.89537 5.14542 7.89463 5.14887 7.94523 5.30913C7.97478 5.40274 7.94701 5.40653 7.82735 5.32517L7.74099 5.26652L7.66675 5.31833C7.62593 5.34685 7.58608 5.37951 7.57815 5.39095C7.54497 5.43902 7.5322 5.34961 7.55871 5.2549C7.57447 5.19861 7.58338 5.14985 7.57843 5.14652C7.37448 5.00892 7.36821 4.97091 7.54945 4.97022C7.64801 4.96987 7.65267 4.96482 7.70465 4.80313C7.7223 4.74821 7.75214 4.75258 7.78296 4.81462ZM4.41059 5.75762C4.44026 5.85129 4.44601 5.85589 4.54979 5.86785C4.69849 5.88493 4.70729 5.90402 4.60597 5.98906L4.51851 6.06249L4.54623 6.17255C4.56147 6.23309 4.56802 6.28852 4.56078 6.29577C4.54709 6.30951 4.40116 6.21527 4.38793 6.18416C4.37844 6.16185 4.29679 6.20279 4.2305 6.26316C4.14085 6.3447 4.11481 6.26621 4.18404 6.12333C4.20514 6.0798 4.20341 6.0641 4.17501 6.04282C3.98146 5.89764 3.98054 5.86791 4.16972 5.86722C4.2497 5.86693 4.26839 5.85814 4.28041 5.81513C4.32888 5.64217 4.3685 5.62463 4.41059 5.75762ZM8.66202 5.70668C8.66202 5.80575 8.72884 5.86688 8.83717 5.86688C8.96171 5.86688 8.96815 5.90448 8.85603 5.97716C8.8006 6.01304 8.77823 6.04248 8.78605 6.06916C8.79237 6.09072 8.80474 6.14868 8.81348 6.19796C8.83073 6.29491 8.83009 6.29496 8.70446 6.20808C8.63994 6.16346 8.57002 6.15208 8.57002 6.18623C8.57002 6.20429 8.43329 6.28087 8.40103 6.28087C8.39413 6.28087 8.40454 6.22694 8.42409 6.16099L8.45974 6.0411L8.39413 5.9886C8.35802 5.95974 8.32076 5.93605 8.31127 5.93599C8.30178 5.93593 8.29402 5.92035 8.29402 5.90138C8.29402 5.87596 8.32053 5.86688 8.3947 5.86688C8.50654 5.86688 8.5342 5.84439 8.55772 5.73462C8.57623 5.6478 8.66202 5.62486 8.66202 5.70668ZM4.10877 6.99388C4.14833 7.09617 4.16684 7.10807 4.28627 7.10853C4.40507 7.10893 4.40892 7.13308 4.30352 7.21715C4.21756 7.28575 4.20715 7.3249 4.24999 7.41892C4.29432 7.51615 4.2443 7.53903 4.14091 7.46877C4.0933 7.43639 4.0431 7.41656 4.02942 7.42466C4.01573 7.43277 3.976 7.4602 3.9411 7.48561C3.85542 7.548 3.82782 7.515 3.8614 7.39011C3.88757 7.29276 3.88699 7.29115 3.80224 7.21761C3.69086 7.12095 3.69425 7.10888 3.8326 7.10888C3.95674 7.10888 3.94317 7.12187 4.01688 6.93264C4.04374 6.86364 4.06352 6.87681 4.10877 6.99388ZM9.0295 7.03292C9.02996 7.07748 9.04411 7.08427 9.14899 7.09042C9.31758 7.10025 9.31959 7.13883 9.15767 7.25521C9.11656 7.28477 9.11541 7.29506 9.1433 7.3797C9.18665 7.51097 9.16095 7.53409 9.05193 7.46193L8.96102 7.40178L8.86643 7.46434C8.75293 7.53949 8.72188 7.5192 8.76385 7.39712C8.7941 7.30921 8.7903 7.24688 8.75471 7.24688C8.74511 7.24688 8.70963 7.21922 8.67588 7.18547C8.60234 7.11192 8.62585 7.08674 8.76845 7.08622C8.8677 7.08588 8.86988 7.0834 8.92577 6.91355C8.94521 6.85444 9.0287 6.95052 9.0295 7.03292ZM4.441 8.20425C4.47056 8.29056 4.47527 8.29361 4.58878 8.30033C4.7285 8.30861 4.73305 8.32471 4.62098 8.41464L4.53594 8.48284L4.56526 8.5807C4.60517 8.71399 4.57274 8.74239 4.47004 8.66402C4.37344 8.5903 4.37166 8.59031 4.27845 8.66138C4.23699 8.693 4.19203 8.71888 4.17857 8.71888C4.14752 8.71888 4.14626 8.63441 4.17702 8.61538C4.23119 8.58191 4.20031 8.47157 4.11952 8.40993C4.00901 8.32563 4.01809 8.30487 4.16552 8.30487C4.25764 8.30487 4.29202 8.29625 4.29202 8.27319C4.29202 8.25577 4.30824 8.20264 4.32807 8.15515C4.3693 8.05648 4.39408 8.06728 4.441 8.20425ZM8.69008 8.18413C8.72475 8.29309 8.7251 8.29338 8.83717 8.30051C8.99086 8.31028 9.00219 8.33276 8.89064 8.40659C8.8075 8.46156 8.79732 8.47743 8.8106 8.53097C8.86344 8.74406 8.86247 8.74561 8.7305 8.65833L8.63902 8.59778L8.54754 8.65833C8.42087 8.7421 8.40482 8.716 8.46445 8.52337C8.47549 8.48778 8.45772 8.46266 8.38608 8.4124C8.27367 8.33363 8.28488 8.30487 8.428 8.30487H8.53621L8.57709 8.18987C8.62781 8.04699 8.64615 8.04607 8.69008 8.18413ZM5.34571 9.1185C5.36284 9.18491 5.37325 9.1913 5.48221 9.20239C5.65328 9.21982 5.65546 9.25581 5.49182 9.36288C5.44156 9.39577 5.44047 9.40244 5.46813 9.50588C5.50527 9.64474 5.49061 9.65647 5.37509 9.58L5.28091 9.51767L5.19034 9.58046C5.09553 9.64618 5.03492 9.64302 5.07161 9.57425C5.09121 9.5375 5.10519 9.44884 5.09955 9.39657C5.09817 9.38352 5.06597 9.35448 5.02802 9.33206C4.92159 9.26915 4.93821 9.22493 5.06827 9.2247C5.18091 9.22453 5.23502 9.17209 5.23502 9.06313C5.23502 8.96262 5.31598 9.0031 5.34571 9.1185ZM7.76502 9.03949C7.76502 9.06405 7.77537 9.09055 7.78802 9.09837C7.80067 9.10619 7.81102 9.1327 7.81102 9.15726C7.81102 9.19538 7.82752 9.20188 7.92464 9.20188C7.98714 9.20188 8.0447 9.21217 8.05246 9.22476C8.06678 9.24799 7.9588 9.36288 7.92269 9.36288C7.89417 9.36288 7.89859 9.46597 7.92999 9.53492C7.97288 9.62904 7.92665 9.64767 7.82379 9.57781L7.73478 9.51732L7.63582 9.57137C7.51426 9.63772 7.50276 9.62806 7.53956 9.49058C7.56601 9.39174 7.56481 9.38001 7.52622 9.35839C7.36982 9.27088 7.37431 9.20188 7.5364 9.20188C7.59919 9.20188 7.65002 9.19124 7.65002 9.17813C7.65002 9.16508 7.66503 9.1185 7.68337 9.07463C7.71965 8.9878 7.76502 8.96825 7.76502 9.03949ZM6.58846 9.45079C6.61818 9.54308 6.62313 9.54687 6.71496 9.54722C6.83663 9.54768 6.89838 9.58258 6.83916 9.61748C6.72122 9.687 6.67729 9.74433 6.70392 9.79407C6.77844 9.93333 6.7318 9.98606 6.60835 9.90217L6.52199 9.84352L6.44775 9.89561C6.40693 9.92425 6.37007 9.95593 6.36582 9.96593C6.36156 9.97594 6.34862 9.9783 6.33707 9.97117C6.30878 9.95369 6.31021 9.8522 6.33902 9.83438C6.36559 9.81793 6.37053 9.70828 6.34477 9.70707C6.19355 9.69982 6.19424 9.54785 6.34552 9.54722C6.40785 9.54699 6.43614 9.53549 6.4454 9.50663C6.50807 9.31153 6.5397 9.29922 6.58846 9.45079Z" fill="#005493"/>
<path fill-rule="evenodd" clip-rule="evenodd" d="M6.4611 4.5704C6.42499 4.64728 6.40797 4.6601 6.33322 4.66625C6.22897 4.67488 6.22667 4.68851 6.3162 4.76705C6.3768 4.82024 6.3825 4.8353 6.3622 4.88866C6.3193 5.00148 6.33132 5.02425 6.40584 4.97118C6.48686 4.9135 6.50865 4.91253 6.59352 4.96267C6.67661 5.01171 6.69075 4.99797 6.65487 4.90298C6.62796 4.83168 6.63038 4.82444 6.70128 4.76107C6.79598 4.67643 6.79558 4.67471 6.67828 4.6662C6.59105 4.65987 6.57794 4.65119 6.55672 4.58547C6.52113 4.47535 6.50675 4.47305 6.4611 4.5704ZM5.24112 4.84611C5.22749 4.8824 5.21053 4.93024 5.2034 4.95237C5.19363 4.98291 5.16522 4.99262 5.08627 4.99262C4.96322 4.99262 4.96006 5.0001 5.05103 5.07663C5.12399 5.13804 5.14349 5.23596 5.09283 5.28662C5.05379 5.32566 5.09174 5.35292 5.13837 5.3194C5.24538 5.24258 5.27505 5.23821 5.346 5.28875C5.438 5.3543 5.44047 5.35252 5.41512 5.23987C5.39355 5.14442 5.39511 5.14034 5.48078 5.06772L5.56853 4.99331L5.45111 4.99297L5.33375 4.99262L5.29983 4.88636L5.2659 4.7801L5.24112 4.84611ZM7.71903 4.84071C7.71903 4.94151 7.66751 4.99262 7.56585 4.99262C7.4478 4.99262 7.44142 5.01177 7.53618 5.08186C7.6015 5.13016 7.60529 5.1408 7.59109 5.23568C7.5739 5.35027 7.58333 5.35723 7.66676 5.29162C7.6989 5.26632 7.73743 5.24562 7.75232 5.24562C7.76715 5.24562 7.8016 5.26632 7.82874 5.29162C7.89055 5.34924 7.93724 5.3524 7.91372 5.29737C7.8668 5.18766 7.87468 5.13758 7.9469 5.08618C8.04419 5.01689 8.03625 4.99262 7.91631 4.99262C7.82051 4.99262 7.81304 4.98797 7.78814 4.91247C7.75968 4.82616 7.71903 4.78396 7.71903 4.84071ZM8.5986 5.73225C8.58291 5.74794 8.57003 5.77738 8.57003 5.79762C8.57003 5.85834 8.52017 5.88957 8.42168 5.89054L8.32853 5.89152L8.40328 5.95546C8.48383 6.02446 8.49292 6.06178 8.45129 6.15315C8.41426 6.23439 8.4399 6.24848 8.52052 6.19115C8.60631 6.13003 8.64012 6.13026 8.71912 6.19242L8.78237 6.24216L8.76639 6.12578C8.75092 6.01325 8.7527 6.00802 8.82119 5.96754C8.91589 5.91165 8.91048 5.89365 8.79663 5.8852C8.70216 5.87818 8.68813 5.86611 8.64696 5.7564C8.63115 5.71442 8.62132 5.70953 8.5986 5.73225ZM4.33038 5.74398C4.32193 5.75237 4.31503 5.7775 4.31503 5.79981C4.31503 5.8649 4.2493 5.91257 4.15811 5.91354L4.07353 5.91452L4.14828 5.97846C4.22676 6.04568 4.23918 6.09248 4.19853 6.16838C4.15581 6.24819 4.18582 6.25992 4.27334 6.19765L4.35809 6.13739L4.42985 6.18851C4.51731 6.25078 4.54071 6.23399 4.50299 6.13601C4.47626 6.06638 4.47861 6.05867 4.54434 6.00296C4.63358 5.92723 4.63202 5.91262 4.53485 5.91262C4.45096 5.91262 4.38403 5.84909 4.38403 5.76951C4.38403 5.72811 4.35838 5.71592 4.33038 5.74398ZM4.0162 7.01616C3.98078 7.12334 3.93863 7.15445 3.82777 7.15503L3.75153 7.15537L3.82628 7.20327C3.86739 7.2296 3.90218 7.26307 3.90356 7.27762C3.90942 7.33868 3.89562 7.42062 3.87607 7.44097C3.82311 7.496 3.86388 7.49445 3.94881 7.43821L4.04265 7.37611L4.12706 7.42039C4.17352 7.44477 4.22027 7.47513 4.23096 7.48789C4.24189 7.501 4.24332 7.491 4.2343 7.46512C4.17243 7.28791 4.17622 7.26911 4.28961 7.19378L4.34464 7.15715L4.28961 7.14508C4.25931 7.13841 4.20992 7.13013 4.17984 7.12656C4.13919 7.12179 4.11527 7.09465 4.08641 7.02053L4.04759 6.92094L4.0162 7.01616ZM8.93803 6.95585C8.93803 7.05061 8.87058 7.13162 8.79175 7.13162C8.68508 7.13162 8.67841 7.14939 8.75828 7.22075C8.8232 7.27871 8.8263 7.28866 8.80428 7.36824C8.77691 7.46737 8.80089 7.47841 8.89174 7.4086C8.95016 7.36375 9.06079 7.40015 9.12979 7.48692C9.14043 7.50037 9.14192 7.48554 9.13312 7.45362C9.08724 7.28768 9.09167 7.25358 9.16458 7.21051C9.24853 7.16095 9.23818 7.13162 9.13675 7.13162C9.0563 7.13162 9.00749 7.09758 9.00628 7.04077C9.00519 6.98609 8.93803 6.90254 8.93803 6.95585ZM4.33325 8.2159C4.30054 8.31428 4.29783 8.31624 4.18738 8.32337L4.07485 8.33056L4.16012 8.40387C4.24039 8.47275 4.2443 8.48218 4.22544 8.56222C4.20077 8.66699 4.21365 8.68315 4.27581 8.62524C4.33728 8.56797 4.39478 8.56878 4.47821 8.62818C4.55158 8.68039 4.55313 8.67774 4.52358 8.55049C4.50391 8.46574 4.50633 8.46062 4.5966 8.39524L4.68993 8.32762H4.57073C4.47758 8.32762 4.44871 8.31883 4.43842 8.28737C4.43118 8.26524 4.41203 8.21751 4.39587 8.1814L4.36655 8.11562L4.33325 8.2159ZM8.61603 8.15167C8.61603 8.26156 8.55007 8.32762 8.44042 8.32762H8.33497L8.4203 8.40358C8.50304 8.47718 8.50494 8.48236 8.48096 8.56907C8.45002 8.68125 8.45865 8.68959 8.54352 8.62915C8.62833 8.56872 8.63949 8.56884 8.74552 8.63145C8.82728 8.6797 8.83067 8.67998 8.81233 8.6372C8.78283 8.56832 8.76955 8.44262 8.79175 8.44262C8.80261 8.44257 8.8416 8.41669 8.87834 8.38512L8.94516 8.32762H8.82837C8.71366 8.32762 8.71113 8.32607 8.68405 8.24137C8.65162 8.13994 8.61603 8.09302 8.61603 8.15167ZM7.70028 9.09801C7.68527 9.1309 7.67303 9.17161 7.67303 9.18851C7.67303 9.22089 7.60466 9.24676 7.51778 9.24734C7.44872 9.24774 7.45234 9.2785 7.52606 9.318C7.58258 9.34825 7.58528 9.35739 7.57171 9.47285L7.55728 9.59556L7.63456 9.53656C7.72765 9.46555 7.74571 9.46417 7.79953 9.52362C7.82241 9.54892 7.85576 9.56962 7.87364 9.56962C7.89515 9.56962 7.9017 9.5541 7.89308 9.52362C7.88589 9.49832 7.87439 9.45773 7.86755 9.43341C7.8557 9.39137 7.93178 9.29362 7.97634 9.29362C8.03924 9.29362 7.97956 9.24912 7.90878 9.24325C7.83247 9.23693 7.81706 9.22468 7.77503 9.13717L7.72748 9.03821L7.70028 9.09801ZM5.24733 9.12613C5.2237 9.22025 5.19207 9.24762 5.10709 9.24762C5.06511 9.24762 5.02435 9.25797 5.01653 9.27062C5.00871 9.28327 5.01187 9.29362 5.02354 9.29362C5.07909 9.29362 5.16482 9.41386 5.14101 9.45836C5.08886 9.55582 5.12348 9.60378 5.19897 9.53863C5.27016 9.47722 5.30702 9.48199 5.40189 9.56479C5.45335 9.60964 5.48354 9.58153 5.44691 9.52288C5.39787 9.44433 5.4131 9.36872 5.48676 9.32519C5.56864 9.27683 5.55737 9.24762 5.45675 9.24762C5.37469 9.24762 5.32703 9.21318 5.32703 9.15384C5.32703 9.07765 5.26493 9.05603 5.24733 9.12613ZM6.50003 9.41903C6.50003 9.51856 6.44805 9.56962 6.34685 9.56962C6.22736 9.56962 6.22408 9.58164 6.32149 9.66295C6.39354 9.72309 6.39515 9.72827 6.37071 9.81986C6.34374 9.92101 6.37255 9.95056 6.43028 9.88099C6.48013 9.82096 6.54269 9.8171 6.61635 9.8696C6.70363 9.9317 6.71255 9.92359 6.67862 9.81314C6.65269 9.72867 6.65441 9.72332 6.7256 9.66484C6.82289 9.58486 6.81863 9.56962 6.69921 9.56962C6.60312 9.56962 6.59824 9.56617 6.56903 9.47762C6.53913 9.387 6.50003 9.35377 6.50003 9.41903Z" fill="#E9CA22"/>
<path fill-rule="evenodd" clip-rule="evenodd" d="M6.0975 1.91109C5.52475 1.95145 4.85763 2.12039 4.3725 2.34791C4.2966 2.38351 4.20087 2.4264 4.15975 2.44325C4.11864 2.4601 4.085 2.48172 4.085 2.49132C4.085 2.50086 4.06873 2.50868 4.04889 2.50868C4.02905 2.50868 3.96765 2.53973 3.9125 2.57768C3.85736 2.61563 3.80578 2.64668 3.79791 2.64668C3.79003 2.64668 3.69532 2.70482 3.5874 2.77589C3.09876 3.09771 2.70328 3.47043 2.25696 4.02979C2.0537 4.28457 1.78063 4.7651 1.62486 5.14218C1.51619 5.40525 1.51487 5.40875 1.48468 5.51018C1.46967 5.56078 1.44828 5.62018 1.43718 5.64215C1.42609 5.66411 1.417 5.70747 1.417 5.73852C1.417 5.76957 1.40665 5.80136 1.394 5.80918C1.38135 5.817 1.371 5.8584 1.371 5.90118C1.371 5.94396 1.36065 5.98536 1.348 5.99318C1.33535 6.001 1.325 6.05132 1.325 6.10496C1.325 6.15861 1.31563 6.21232 1.30413 6.22433C1.21886 6.31357 1.20184 7.5481 1.27923 8.02868C1.29252 8.11091 1.30925 8.21958 1.31655 8.27018C1.32379 8.32078 1.33903 8.37202 1.35036 8.38403C1.36169 8.39605 1.371 8.43941 1.371 8.4804C1.371 8.5214 1.38135 8.56136 1.394 8.56918C1.40665 8.577 1.417 8.6088 1.417 8.63985C1.417 8.6709 1.42609 8.71426 1.43718 8.73622C1.44828 8.75819 1.46967 8.81758 1.48468 8.86818C1.51487 8.96961 1.51619 8.97312 1.62486 9.23618C2.1572 10.5248 3.27718 11.6179 4.58525 12.1256C4.61371 12.1367 4.66029 12.1547 4.68875 12.1657C4.86861 12.2351 5.29371 12.351 5.534 12.3959C6.44693 12.567 7.65058 12.4536 8.4205 12.1241C8.4458 12.1133 8.5079 12.0867 8.5585 12.0652C10.1793 11.3749 11.369 9.90508 11.6956 8.18968C11.7396 7.95859 11.7458 7.90477 11.7703 7.53763C11.793 7.19792 11.7752 6.65576 11.7328 6.39568C11.5731 5.4145 11.2066 4.59795 10.5721 3.80928C10.4631 3.67381 9.91401 3.13825 9.7775 3.03423C9.61788 2.91262 9.22292 2.64668 9.20199 2.64668C9.19417 2.64668 9.14454 2.61747 9.09164 2.58177C9.00534 2.52352 8.79207 2.41605 8.57 2.31893C8.22161 2.16656 7.75253 2.0354 7.2816 1.95864C7.1463 1.93656 6.40639 1.88326 6.3505 1.89148C6.33785 1.89338 6.224 1.90217 6.0975 1.91109ZM7.04533 1.95697C7.37785 2.00027 7.67697 2.05415 7.811 2.09486C7.84263 2.10446 7.91508 2.12539 7.972 2.14132C9.04587 2.44204 10.1438 3.21317 10.7546 4.09568C10.7852 4.13996 10.816 4.18136 10.8229 4.18768C10.8475 4.21017 10.939 4.34707 10.939 4.36145C10.939 4.3695 10.9585 4.40354 10.9823 4.43712C11.0061 4.4707 11.0491 4.53958 11.0779 4.59018C11.8317 5.91763 11.9679 7.55816 11.4435 8.99509C11.3134 9.35136 11.122 9.7442 10.9823 9.94125C10.9585 9.97483 10.939 10.0089 10.939 10.0169C10.939 10.0313 10.8475 10.1682 10.8229 10.1907C10.816 10.197 10.7853 10.2384 10.7548 10.2827C10.2751 10.9786 9.35746 11.7082 8.54677 12.0382C8.48996 12.0613 8.4228 12.0891 8.3975 12.1C8.34771 12.1213 8.09523 12.2037 7.9835 12.2351C7.63465 12.3331 7.49303 12.3623 7.08208 12.4211C6.8672 12.4518 6.12321 12.4515 5.92765 12.4207C5.84399 12.4075 5.70823 12.3861 5.626 12.3732C5.45414 12.3461 5.27221 12.3088 5.189 12.2835C5.15738 12.2739 5.08493 12.253 5.028 12.2371C4.78512 12.169 4.59888 12.1007 4.36647 11.9944C4.29948 11.9638 4.24106 11.9387 4.23669 11.9387C4.2199 11.9387 3.6963 11.6445 3.6223 11.5935C2.08349 10.533 1.256 8.99284 1.256 7.18918C1.256 6.62965 1.30367 6.26228 1.43989 5.77141C1.87534 4.20252 3.19979 2.74967 4.6255 2.27679C4.6761 2.26 4.72734 2.23803 4.73935 2.22797C4.75137 2.21791 4.77995 2.20968 4.80289 2.20968C4.82583 2.20968 4.86257 2.20037 4.88454 2.18893C4.9065 2.17748 4.97108 2.15563 5.028 2.14028C5.08493 2.12493 5.15738 2.10429 5.189 2.09445C5.22063 2.08462 5.30343 2.06547 5.373 2.05185C5.48932 2.02908 5.56362 2.0166 5.925 1.95921C6.10446 1.93075 6.83235 1.92931 7.04533 1.95697ZM6.1205 2.59976C5.994 2.60919 5.85428 2.62409 5.81 2.63283C5.76573 2.64162 5.6674 2.65962 5.5915 2.67285C5.5156 2.68607 5.42763 2.7051 5.396 2.71511C5.36438 2.72517 5.29193 2.7461 5.235 2.76168C5.11701 2.794 5.01438 2.82689 4.9475 2.85391C4.9222 2.86409 4.82905 2.90003 4.7405 2.93378C4.46651 3.03814 3.91911 3.35267 3.69412 3.535C2.0154 4.89522 1.41758 7.19873 2.27117 9.01768C2.99216 10.5541 4.20742 11.4827 5.856 11.7569C6.08238 11.7946 6.9224 11.7955 7.1325 11.7584C7.22105 11.7427 7.3556 11.719 7.4315 11.7057C7.5074 11.6924 7.59538 11.6733 7.627 11.6633C7.65863 11.6532 7.73108 11.6323 7.788 11.6167C7.84493 11.6012 7.9122 11.5799 7.9375 11.5696C7.9628 11.5592 8.04877 11.5285 8.12846 11.5013C10.3709 10.7365 11.6169 8.1538 10.8912 5.77468C10.2823 3.7784 8.27043 2.43951 6.1205 2.59976ZM7.1325 2.65657C7.26251 2.67653 7.46238 2.7154 7.56375 2.74041C7.73493 2.78261 7.84637 2.81326 7.8915 2.83045C7.9168 2.84006 8.03065 2.88151 8.1445 2.92257C8.33126 2.98996 8.84054 3.23221 8.869 3.26722C8.87533 3.27504 8.92892 3.30937 8.98814 3.34353C9.04731 3.37774 9.10941 3.41897 9.12614 3.43518C9.14282 3.45145 9.19273 3.48952 9.237 3.51982C9.42905 3.65138 9.82028 4.01967 9.99572 4.23409C10.0524 4.30343 10.1047 4.36536 10.1118 4.37168C10.1189 4.37801 10.1496 4.41941 10.18 4.46368C10.2104 4.50796 10.2412 4.54936 10.2484 4.55568C10.2556 4.56201 10.3044 4.63446 10.3568 4.71668C10.4849 4.91753 10.6656 5.27829 10.783 5.56768C10.7959 5.59931 10.8155 5.64318 10.8267 5.66515C10.8379 5.68711 10.847 5.72529 10.847 5.75002C10.847 5.77474 10.8574 5.80136 10.87 5.80918C10.8827 5.817 10.893 5.85323 10.893 5.88968C10.893 5.92614 10.9034 5.96236 10.916 5.97018C10.9287 5.978 10.939 6.01797 10.939 6.05896C10.939 6.09996 10.9483 6.14332 10.9596 6.15533C10.971 6.16735 10.9862 6.21858 10.9933 6.26918C11.0005 6.31978 11.0192 6.44398 11.0348 6.54518C11.0707 6.77766 11.0718 7.5937 11.0365 7.82168C11.0043 8.02983 10.9737 8.18894 10.939 8.32768C10.9248 8.38461 10.9074 8.45976 10.9004 8.49472C10.8934 8.52968 10.8786 8.56389 10.8674 8.57085C10.8561 8.57775 10.847 8.60363 10.847 8.62835C10.847 8.65308 10.8379 8.69126 10.8267 8.71322C10.8073 8.7514 10.7789 8.81879 10.7347 8.93143C10.649 9.15022 10.3111 9.76996 10.2489 9.82268C10.2414 9.82901 10.2104 9.87041 10.18 9.91468C10.1496 9.95896 10.119 10.0004 10.112 10.0067C10.105 10.013 10.0686 10.0596 10.0311 10.1102C9.88946 10.3014 9.53951 10.6264 9.1565 10.9223C9.06721 10.9913 8.91403 11.0877 8.89361 11.0877C8.8801 11.0877 8.86895 11.0954 8.86883 11.1049C8.86872 11.1144 8.84543 11.1336 8.81708 11.1475C8.78873 11.1615 8.70858 11.2035 8.639 11.2409C8.26962 11.4394 7.75868 11.6139 7.3395 11.6848C7.25095 11.6998 7.12244 11.7216 7.0539 11.7334C6.88399 11.7624 6.11504 11.7603 5.92765 11.7302C5.54694 11.6692 5.18837 11.5801 4.90696 11.4767C4.69335 11.3982 4.23853 11.1815 4.22685 11.1526C4.2226 11.1422 4.20409 11.1337 4.18563 11.1337C4.16717 11.1337 4.12985 11.113 4.10271 11.0877C4.07557 11.0624 4.03975 11.0417 4.02319 11.0417C4.00657 11.0417 3.993 11.0331 3.993 11.0226C3.993 11.0121 3.96471 10.9888 3.9301 10.9708C3.89548 10.9528 3.8515 10.9259 3.83235 10.9109C3.56618 10.702 3.48809 10.6354 3.26735 10.4288C2.93322 10.1162 2.54418 9.54214 2.30308 9.00618C2.26892 8.93028 2.23155 8.85019 2.21999 8.82822C2.20843 8.80626 2.199 8.76808 2.199 8.74335C2.199 8.71863 2.18865 8.692 2.176 8.68418C2.16335 8.67636 2.153 8.64531 2.153 8.61518C2.153 8.58505 2.14265 8.554 2.13 8.54618C2.11735 8.53836 2.107 8.50214 2.107 8.46568C2.107 8.42923 2.09774 8.39369 2.08642 8.38668C2.07509 8.37972 2.06025 8.3351 2.05341 8.28761C2.04657 8.24005 2.02978 8.14943 2.01604 8.08618C1.90495 7.57363 1.905 6.80698 2.01615 6.29218C2.02978 6.22893 2.04657 6.13831 2.05341 6.09076C2.06025 6.04327 2.07509 5.99865 2.08642 5.99169C2.09774 5.98467 2.107 5.94914 2.107 5.91268C2.107 5.87623 2.11735 5.84 2.13 5.83218C2.14265 5.82436 2.153 5.79774 2.153 5.77302C2.153 5.74829 2.16335 5.70752 2.176 5.6824C2.18865 5.65727 2.20935 5.6161 2.222 5.59097C2.23465 5.56584 2.245 5.52444 2.245 5.49897C2.245 5.4735 2.25535 5.45268 2.268 5.45268C2.28065 5.45268 2.291 5.43704 2.291 5.4179C2.291 5.39875 2.30072 5.36511 2.31262 5.34315C2.32453 5.32118 2.36754 5.23591 2.40825 5.15368C2.52704 4.91356 2.53474 4.9004 2.69839 4.65579C2.93931 4.29555 3.30979 3.88477 3.59895 3.65725C3.65421 3.61378 3.71114 3.5672 3.72545 3.55375C3.77577 3.5066 4.17545 3.24468 4.19719 3.24468C4.20926 3.24468 4.2226 3.23577 4.22685 3.2249C4.24778 3.17074 4.93537 2.87628 5.212 2.80297C5.48243 2.73127 5.65027 2.69533 5.84352 2.66767C5.93156 2.65508 6.00901 2.63932 6.01568 2.63271C6.03126 2.61707 7.01181 2.63806 7.1325 2.65657Z" fill="#75A9C9"/>
</svg>
