<svg width="18" height="23" viewBox="0 0 19 23" fill="none" xmlns="http://www.w3.org/2000/svg">
<path d="M10.7817 0.046875C10.8308 0.0766903 10.8559 0.129026 10.8873 0.133055C11.8884 0.261612 12.827 0.589754 13.7145 1.05541C14.6912 1.56782 15.5442 2.25241 16.2742 3.07634C17.1773 4.09543 17.8288 5.26521 18.197 6.57779C18.3226 7.02565 18.3849 7.49549 18.4327 7.95975C18.479 8.40969 18.5142 8.86946 18.4734 9.31755C18.4174 9.93403 18.3211 10.5522 18.1772 11.1541C17.9613 12.0573 17.5614 12.8976 17.1296 13.7141C16.56 14.7914 15.9154 15.8267 15.1545 16.7817C14.4801 17.628 13.7945 18.4659 13.0932 19.2899C12.6263 19.8385 12.1282 20.3609 11.6352 20.8867C10.9628 21.604 10.282 22.3135 9.61974 23.0366C9.61477 23.0469 9.59481 23.0469 9.55989 23.0258C9.54424 20.9829 9.54355 18.9611 9.5637 16.9387C9.94868 16.9091 10.3157 16.8999 10.6765 16.8476C12.7189 16.5516 14.4069 15.6114 15.6955 13.9975C17.1824 12.1353 17.7881 10.005 17.3853 7.65399C16.9432 5.07341 15.4929 3.17385 13.2017 1.9256C12.0651 1.3064 10.8355 1.01712 9.53979 1.00735C9.54241 0.673489 9.54366 0.360182 9.54489 0.046875C9.95013 0.046875 10.3554 0.046875 10.7817 0.046875Z" fill="#B3B3B3"/>
<path d="M9.52388 0.046875C9.54369 0.360182 9.54245 0.673489 9.51946 1.00854C9.16232 1.04988 8.82303 1.04358 8.49217 1.09331C6.51662 1.39019 4.84564 2.26923 3.53821 3.7859C1.81632 5.78335 1.2398 8.09714 1.78588 10.6671C2.18359 12.5388 3.15062 14.0846 4.6669 15.2662C6.09806 16.3814 7.73933 16.901 9.54289 16.9393C9.54359 18.9611 9.54428 20.9829 9.54495 23.0258C9.54493 23.0469 9.52247 23.0469 9.51124 23.0469C9.46228 23.0019 9.42725 22.9542 9.38642 22.9122C8.81939 22.3292 8.24287 21.755 7.68621 21.1623C7.04625 20.4808 6.4105 19.7944 5.79655 19.0896C4.77203 17.9134 3.79016 16.7015 2.94524 15.3873C2.20427 14.2348 1.5484 13.0377 1.09464 11.7367C0.869095 11.09 0.71565 10.4339 0.6459 9.75177C0.523987 8.55952 0.624858 7.38908 0.989804 6.2518C1.31418 5.24094 1.81658 4.3185 2.48462 3.48525C3.08614 2.73498 3.77589 2.08593 4.5673 1.54209C5.42643 0.951718 6.37534 0.558786 7.37345 0.281251C7.6468 0.205243 7.9352 0.183795 8.21606 0.133774C8.24861 0.127978 8.2771 0.0994499 8.29729 0.064168C8.69235 0.046875 9.09759 0.046875 9.52388 0.046875Z" fill="#979797"/>
<path d="M9.56373 16.9373C7.73932 16.8996 6.09806 16.38 4.6669 15.2648C3.15061 14.0832 2.18359 12.5374 1.78587 10.6657C1.2398 8.09575 1.81632 5.78196 3.5382 3.7845C4.84563 2.26784 6.51662 1.3888 8.49216 1.09191C8.82303 1.04219 9.16231 1.04848 9.51808 1.0277C10.8355 1.01572 12.0651 1.30501 13.2017 1.92421C15.493 3.17245 16.9432 5.07201 17.3854 7.6526C17.7881 10.0036 17.1825 12.1339 15.6955 13.9961C14.4069 15.61 12.719 16.5502 10.6765 16.8462C10.3157 16.8985 9.94872 16.9077 9.56373 16.9373ZM9.6565 16.0031C9.99118 15.9717 10.3288 15.9586 10.6601 15.906C14.4864 15.2994 17.0891 11.6979 16.4687 7.8763C15.8611 4.13371 12.48 1.5773 8.71605 2.01452C4.84638 2.46402 2.08376 5.99079 2.5729 9.85686C3.02033 13.3932 6.06855 16.0551 9.6565 16.0031Z" fill="#C7C6C6"/>
<path d="M9.63417 16.0024C6.06857 16.054 3.02034 13.3921 2.57292 9.8558C2.08377 5.98973 4.8464 2.46296 8.71606 2.01346C12.4801 1.57624 15.8611 4.13265 16.4687 7.87524C17.0891 11.6969 14.4864 15.2983 10.6601 15.905C10.3288 15.9575 9.99119 15.9706 9.63417 16.0024ZM6.1141 7.72469C6.01295 7.72469 5.9118 7.72469 5.81236 7.72469C5.81236 8.57393 5.81236 9.39302 5.81236 10.2292C6.64202 10.2292 7.45505 10.2292 8.29269 10.2292C8.29269 11.0647 8.29269 11.8834 8.29269 12.7086C9.13701 12.7086 9.95644 12.7086 10.8007 12.7086C10.8007 11.879 10.8007 11.0604 10.8007 10.2162C11.6431 10.2162 12.4611 10.2162 13.2775 10.2162C13.2775 9.37186 13.2775 8.55367 13.2775 7.71274C12.4422 7.71274 11.6234 7.71274 10.7839 7.71274C10.7839 6.87075 10.7839 6.05161 10.7839 5.23621C9.94336 5.23621 9.12437 5.23621 8.28469 5.23621C8.28469 6.07186 8.28469 6.89112 8.28469 7.72469C7.56174 7.72469 6.85965 7.72469 6.1141 7.72469Z" fill="#222222"/>
<path d="M6.13578 7.72676C6.8596 7.72676 7.56169 7.72676 8.28465 7.72676C8.28465 6.89319 8.28465 6.07393 8.28465 5.23828C9.12433 5.23828 9.94331 5.23828 10.7838 5.23828C10.7838 6.05368 10.7838 6.87281 10.7838 7.7148C11.6234 7.7148 12.4421 7.7148 13.2775 7.7148C13.2775 8.55574 13.2775 9.37393 13.2775 10.2183C12.461 10.2183 11.6431 10.2183 10.8006 10.2183C10.8006 11.0625 10.8006 11.8811 10.8006 12.7107C9.95639 12.7107 9.13697 12.7107 8.29264 12.7107C8.29264 11.8854 8.29264 11.0668 8.29264 10.2313C7.455 10.2313 6.64197 10.2313 5.81232 10.2313C5.81232 9.39509 5.81232 8.576 5.81232 7.72676C5.91175 7.72676 6.0129 7.72676 6.13578 7.72676Z" fill="#F0EEEF"/>
</svg>
