<svg width="80" height="34" viewBox="0 0 80 34" fill="none" xmlns="http://www.w3.org/2000/svg">
<path d="M13.1572 7.24406H1.47042V25.0165H4.18151V9.89868H13.1419C15.0258 9.92868 16.5729 11.4585 16.5729 13.3032V20.5022C16.5729 22.3469 15.0412 23.8767 13.1419 23.9067H9.92533V15.9878H7.21425V26.5613H13.1572C16.2818 26.5313 18.8857 24.1616 19.238 21.1921H19.2839V13.3032C19.2686 10.0037 16.5269 7.27406 13.1572 7.24406Z" fill="black"/>
<path d="M25.0124 12.2083H24.9818C24.7674 9.3887 23.542 6.76408 21.4589 4.76936C19.3758 2.77465 16.6801 1.60482 13.8005 1.45484V1.43984H1.47042V4.09446H13.1419C18.0892 4.09446 22.1941 8.0239 22.3014 12.8682V20.937C22.1941 25.7813 18.0892 29.7108 13.1419 29.7108H2.175V32.3654H13.1419C19.4524 32.3654 24.6295 27.5061 24.9818 21.417H24.9971V12.8532L25.0124 12.2083Z" fill="black"/>
<path d="M8.57751 12.6578C7.01519 12.6578 5.7592 13.9027 5.7592 15.4174C5.7592 16.9322 7.0305 18.177 8.57751 18.177C10.1398 18.177 11.3958 16.9322 11.3958 15.4174C11.3958 13.9027 10.1245 12.6578 8.57751 12.6578Z" fill="black"/>
<path d="M2.8183 21.0262C1.2713 21.0262 0 22.271 0 23.8008C0 25.3306 1.2713 26.5604 2.8183 26.5604C4.38062 26.5604 5.63661 25.3156 5.63661 23.8008C5.63661 22.286 4.38062 21.0262 2.8183 21.0262Z" fill="black"/>
<path d="M2.8183 28.2708C1.2713 28.2708 0 29.5156 0 31.0304C0 32.5452 1.2713 33.79 2.8183 33.79C4.38062 33.79 5.63661 32.5452 5.63661 31.0304C5.63661 29.5156 4.38062 28.2708 2.8183 28.2708Z" fill="black"/>
<path d="M2.8183 0C1.2713 0 0 1.24482 0 2.75961C0 4.28939 1.2713 5.51921 2.8183 5.51921C4.38062 5.51921 5.63661 4.27439 5.63661 2.75961C5.65192 1.24482 4.38062 0 2.8183 0Z" fill="black"/>
<path d="M53.2419 20.1117C53.2419 18.8368 54.314 17.802 55.6313 17.802C56.9332 17.802 58.0207 18.8218 58.0207 20.1117C58.0207 21.4165 56.9485 22.4513 55.6313 22.4513C54.3294 22.4513 53.2419 21.4315 53.2419 20.1117Z" fill="black"/>
<path d="M38.4149 22.1817C37.8022 22.4067 37.2814 22.7516 37.2814 23.3515C37.2814 24.0864 38.0932 24.2364 39.0275 24.4314C41.2944 24.9413 43.9136 25.3762 46.9157 25.9911C49.5962 26.5611 51.6333 27.6109 51.6333 29.9806C51.6333 33.1151 48.0492 34 45.9661 34H36.7147C35.0605 34 33.4828 32.9202 33.4828 31.0604C33.4828 28.8107 36.4543 27.7009 38.2004 27.251C35.8723 26.831 34.0496 26.3061 34.0496 24.4914C34.0496 22.8116 35.5966 22.1067 36.9598 21.7918C34.892 21.0869 33.9423 19.7071 33.9423 17.6374C33.9423 14.1129 36.73 12.3131 42.0603 12.3131C42.7342 12.3131 43.3928 12.3431 44.0055 12.4031C43.546 11.8632 43.1631 11.1433 43.1631 10.3034C43.1631 7.76877 46.6553 7.03387 50.99 7.06387L51.0206 10.2884C50.4692 10.2584 49.5043 10.1684 48.4934 10.1684C46.8391 10.1684 45.0624 10.3934 45.0624 11.4282C45.093 12.1331 45.5832 12.5381 45.8435 12.7031C48.7537 13.393 50.1782 15.0127 50.1782 17.6074C50.1782 20.9969 47.6203 22.4817 42.0296 22.4817C40.6205 22.4367 39.4411 22.3467 38.4149 22.1817ZM37.4346 29.7556C37.4346 30.6705 38.277 31.3454 39.3032 31.3454H45.2309C46.3643 31.3454 47.6509 30.8355 47.6509 29.8906C47.6509 29.1257 46.8085 28.7507 45.1849 28.4058C43.2397 28.0309 42.1369 27.8959 39.7168 27.4909C38.7059 27.8509 37.4346 28.5858 37.4346 29.7556ZM37.8635 17.5924C37.8635 19.3621 39.3798 20.037 41.9684 20.037C44.9398 20.037 46.2111 19.1521 46.2111 17.5624C46.2111 15.9426 44.9245 14.9677 42.0296 14.9677C39.2879 14.9827 37.8635 15.9126 37.8635 17.5924Z" fill="black"/>
<path d="M31.1853 11.2179C31.2925 11.1429 31.3997 11.0529 31.4916 10.963C31.4916 10.963 31.4916 10.963 31.5069 10.963C31.9205 10.543 32.1656 9.9731 32.1656 9.34319C32.1656 8.06838 31.0934 7.03353 29.7761 7.03353C28.4742 7.03353 27.3867 8.05338 27.3867 9.34319C27.3867 9.9731 27.6471 10.543 28.0453 10.963C28.0453 10.963 28.0453 10.963 28.0606 10.963C28.1525 11.0529 28.2598 11.1429 28.367 11.2179C30.0671 12.7327 27.739 12.4927 27.739 13.7226V27.9555H31.8133V13.7226C31.8133 12.4927 29.5004 12.7327 31.1853 11.2179Z" fill="black"/>
<path d="M61.2521 7.03353H65.357V27.9555H61.2521V7.03353Z" fill="black"/>
<path d="M67.6852 7.03353H80V11.0529H75.9104V27.9555H71.8055V11.0529H67.7006V7.03353H67.6852Z" fill="black"/>
</svg>
