<svg width="149" height="57" viewBox="0 0 149 57" fill="none" xmlns="http://www.w3.org/2000/svg">
<path d="M135.665 27.9371C136.241 27.5712 136.861 27.2883 137.509 27.096L137.89 25.1763L140.973 25.1187L141.418 27.0247C142.071 27.1934 142.701 27.4535 143.288 27.798L144.846 26.7229L147.065 28.9749L146.097 30.6504C146.448 31.2613 146.718 31.9197 146.9 32.6073L148.725 33.0075L148.78 36.2499L146.968 36.718C146.808 37.4053 146.56 38.0669 146.233 38.6851L147.255 40.3063L145.11 42.6397L143.517 41.6222C142.942 41.9881 142.323 42.271 141.676 42.4634L141.295 44.383L138.212 44.4407L137.767 42.5346C137.114 42.3665 136.484 42.1064 135.897 41.7613L134.355 42.8398L132.137 40.5878L133.104 38.9123C132.757 38.3059 132.488 37.6535 132.304 36.9723L130.479 36.5721L130.424 33.3298L132.233 32.8617C132.396 32.1747 132.645 31.5133 132.972 30.8946L131.95 29.2564L134.091 26.923L135.684 27.9405L135.665 27.9371ZM137.309 32.258C136.855 32.753 136.55 33.3787 136.434 34.0559C136.317 34.7331 136.394 35.4314 136.655 36.0625C136.916 36.6937 137.349 37.2293 137.899 37.6017C138.449 37.9741 139.092 38.1666 139.746 38.1547C140.401 38.1429 141.037 37.9272 141.575 37.5351C142.112 37.143 142.527 36.592 142.767 35.9518C143.007 35.3115 143.062 34.6108 142.923 33.9383C142.784 33.2657 142.459 32.6515 141.989 32.1732C141.676 31.8562 141.306 31.6072 140.901 31.4405C140.497 31.2737 140.065 31.1924 139.63 31.2012C139.196 31.21 138.767 31.3088 138.369 31.4919C137.971 31.6749 137.611 31.9387 137.309 32.2682V32.258Z" fill="#EBEBEB"/>
<path d="M35.496 28.9452C36.529 28.3208 37.6417 27.839 38.8039 27.513L39.4853 24.2484L44.9996 24.1525L45.7902 27.3906C46.96 27.6805 48.0859 28.1254 49.1378 28.7137L51.923 26.8879L55.8925 30.7181L54.1658 33.5659C54.7894 34.5992 55.2712 35.7117 55.5981 36.8734L58.863 37.5515L58.9325 43.0454L55.6974 43.8392C55.4059 45.0073 54.9609 46.1318 54.3742 47.1831L56.2002 49.9714L52.3696 53.9405L49.538 52.2073C48.5043 52.8301 47.3917 53.3118 46.2301 53.6395L45.552 56.9041L40.0377 57L39.2439 53.7619C38.0751 53.4719 36.9504 53.0269 35.8996 52.4389L33.1308 54.2746L29.1614 50.4477L30.8881 47.5966C30.265 46.563 29.7833 45.4506 29.4558 44.289L26.1843 43.6076L26.085 38.0972L29.3235 37.3034C29.6134 36.1337 30.0584 35.008 30.6466 33.9562L28.8306 31.1844L32.6578 27.2153L35.5092 28.9419L35.496 28.9452ZM38.4334 36.288C37.6211 37.1295 37.0766 38.1929 36.8687 39.3438C36.6607 40.4946 36.7987 41.6813 37.2652 42.7538C37.7317 43.8263 38.5058 44.7364 39.4895 45.369C40.4732 46.0017 41.6224 46.3285 42.7919 46.3081C43.9613 46.2878 45.0985 45.9212 46.0596 45.2547C47.0207 44.5882 47.7626 43.6518 48.1915 42.5637C48.6204 41.4757 48.717 40.2849 48.4692 39.142C48.2214 37.999 47.6402 36.9552 46.7991 36.1425C46.2402 35.6011 45.5799 35.1753 44.8561 34.8895C44.1323 34.6037 43.3592 34.4636 42.5811 34.4771C41.803 34.4906 41.0353 34.6575 40.3218 34.9683C39.6084 35.279 38.9633 35.7275 38.4235 36.288H38.4334Z" fill="#EBEBEB"/>
<path d="M86.9773 4.08601C87.8254 3.557 88.7373 3.14681 89.6894 2.86616L90.2478 0.0826459L94.785 0L95.4391 2.76037C96.4 3.00682 97.3249 3.38481 98.1895 3.88436L100.484 2.32731L103.748 5.59017L102.328 8.01995C102.838 8.89858 103.234 9.84347 103.505 10.8299L106.192 11.4117L106.272 16.1093L103.607 16.787C103.369 17.7835 103.004 18.7428 102.522 19.64L104.025 22.0136L100.86 25.402L98.5149 23.9309C97.6676 24.4613 96.7554 24.8716 95.8028 25.1508L95.2445 27.9343L90.7073 28.017L90.0532 25.2566C89.0915 25.0107 88.1656 24.6339 87.2996 24.1359L85.0087 25.6929L81.7446 22.4268L83.1644 19.997C82.6525 19.1191 82.2565 18.174 81.987 17.187L79.3005 16.6085L79.2207 11.9076L81.8849 11.2464C82.1217 10.251 82.4854 9.29268 82.9666 8.39682L81.4638 6.01992L84.6162 2.63805L86.9614 4.10915L86.9773 4.08601ZM89.3959 10.3506C88.7278 11.068 88.28 11.9747 88.1091 12.9558C87.9383 13.9369 88.052 14.9485 88.436 15.8626C88.82 16.7768 89.4569 17.5525 90.2663 18.0916C91.0757 18.6307 92.0213 18.9091 92.9834 18.8915C93.9455 18.874 94.8809 18.5613 95.6715 17.9929C96.4621 17.4246 97.0723 16.6262 97.4249 15.6986C97.7776 14.771 97.8569 13.7559 97.6528 12.7816C97.4487 11.8073 96.9703 10.9176 96.2782 10.2249C95.818 9.7627 95.2741 9.39919 94.6779 9.15524C94.0817 8.91129 93.4448 8.79173 92.8039 8.8034C92.163 8.81507 91.5306 8.95775 90.943 9.22325C90.3554 9.48875 89.8243 9.87185 89.3799 10.3506H89.3959Z" fill="#EBEBEB"/>
<path d="M60.2265 12.7702C61.3617 12.0842 62.5841 11.5542 63.8607 11.1943L64.6074 7.60957L70.6667 7.50055L71.5389 11.0588C72.8233 11.3763 74.0599 11.8629 75.2161 12.5059L78.2788 10.5005L82.6399 14.7096L80.7435 17.8384C81.4295 18.9736 81.9596 20.196 82.3194 21.4726L85.9041 22.2193L86.0099 28.2786L82.4516 29.1508C82.1368 30.4355 81.6512 31.6723 81.0078 32.828L83.0133 35.8907L78.8041 40.2518L75.6588 38.3587C74.5231 39.0436 73.3008 39.5736 72.0246 39.9346L71.2779 43.5193L65.2186 43.625L64.3464 40.0668C63.0615 39.7526 61.8247 39.2669 60.6692 38.623L57.6164 40.6119L53.2553 36.4028L55.155 33.2707C54.4688 32.1356 53.9387 30.9132 53.5791 29.6365L49.9944 28.8898L49.8887 22.8305L53.4469 21.9583C53.7638 20.6737 54.2505 19.4371 54.894 18.2811L52.8886 15.2316L57.0977 10.8705L60.2265 12.7702Z" fill="#263238"/>
<path d="M64.1345 19.8008H60.8042V30.1981H64.1345V19.8008Z" fill="#F4FF5C"/>
<path d="M69.1067 22.1763H65.7764V30.1981H69.1067V22.1763Z" fill="#F4FF5C"/>
<path d="M73.7063 25.4339H70.376V30.1981H73.7063V25.4339Z" fill="#F4FF5C"/>
<path d="M10.3246 12.0335C11.4605 11.3495 12.6827 10.8206 13.9588 10.4608L14.7055 6.87281L20.7648 6.76709L21.637 10.3254C22.9221 10.6407 24.1589 11.1275 25.3142 11.7724L28.3769 9.7637L32.738 13.9728L30.8383 17.1049C31.5243 18.2401 32.0544 19.4625 32.4142 20.7391L35.999 21.4858L36.1047 27.5451L32.5497 28.4173C32.227 29.6978 31.7359 30.9299 31.0894 32.0813L33.0948 35.144L28.8725 39.5051L25.7437 37.6087C24.6077 38.2923 23.3855 38.8212 22.1095 39.1813L21.3628 42.7693L15.3035 42.8751L14.4313 39.3168C13.1469 38.9993 11.9104 38.5127 10.7541 37.8697L7.72775 39.8785L3.36664 35.6693L5.26637 32.5373C4.58037 31.402 4.0503 30.1796 3.69042 28.903L0.105721 28.1563L0 22.097L3.55827 21.2248C3.86864 19.9396 4.34978 18.7018 4.98884 17.5443L2.98339 14.4816L7.19252 10.1238L10.3246 12.0202V12.0335Z" fill="#263238"/>
<path d="M19.0038 34.9755C16.7888 34.966 14.635 34.247 12.8584 32.9241C11.0818 31.6012 9.7758 29.7438 9.13185 27.6244C9.12047 27.5824 9.12581 27.5376 9.14675 27.4994C9.1677 27.4612 9.20261 27.4326 9.24418 27.4196C9.2858 27.4072 9.33063 27.4117 9.36897 27.4321C9.4073 27.4525 9.43607 27.4872 9.44902 27.5286C10.1396 29.8416 11.6461 31.8254 13.6888 33.1116C15.7314 34.3979 18.1714 34.8992 20.5557 34.5225C22.94 34.1458 25.1066 32.9166 26.6532 31.0633C28.1998 29.2099 29.0213 26.8583 28.9652 24.4451C28.9091 22.0319 27.9792 19.721 26.3481 17.9415C24.717 16.1621 22.4956 15.035 20.0964 14.7695C17.6971 14.5041 15.283 15.1183 13.3024 16.4981C11.3218 17.8779 9.90912 19.9296 9.32678 22.2722C9.31626 22.316 9.28878 22.3538 9.25036 22.3774C9.21195 22.4009 9.16575 22.4082 9.12194 22.3977C9.07813 22.3872 9.04029 22.3597 9.01674 22.3213C8.9932 22.2829 8.98588 22.2367 8.99639 22.1929C9.46199 20.32 10.4445 18.6156 11.8319 17.2741C13.2193 15.9326 14.9557 15.0079 16.8432 14.6055C18.7307 14.2032 20.6933 14.3393 22.5071 14.9983C24.321 15.6574 25.9132 16.8129 27.1021 18.333C28.2911 19.8532 29.0289 21.6769 29.2316 23.5961C29.4342 25.5153 29.0935 27.4529 28.2482 29.1878C27.4029 30.9228 26.0872 32.3853 24.4509 33.4086C22.8147 34.4319 20.9238 34.9749 18.9939 34.9755H19.0038Z" fill="#F4FF5C"/>
<path d="M18.9607 31.8302C17.3998 31.8271 15.8825 31.3151 14.6388 30.3719C13.3951 29.4287 12.4929 28.1057 12.0689 26.6035C12.0628 26.5829 12.061 26.5613 12.0634 26.54C12.0658 26.5186 12.0724 26.498 12.0828 26.4792C12.0933 26.4605 12.1074 26.444 12.1242 26.4307C12.1411 26.4175 12.1605 26.4077 12.1812 26.402C12.2232 26.3897 12.2685 26.3946 12.3069 26.4157C12.3453 26.4368 12.3738 26.4722 12.386 26.5143C12.8307 28.1017 13.8351 29.4745 15.2136 30.3787C16.592 31.2829 18.2512 31.6574 19.8844 31.433C21.5176 31.2086 23.0143 30.4004 24.0978 29.1579C25.1812 27.9154 25.7781 26.3226 25.7781 24.674C25.7781 23.0255 25.1812 21.4327 24.0978 20.1902C23.0143 18.9477 21.5176 18.1395 19.8844 17.9151C18.2512 17.6907 16.592 18.0652 15.2136 18.9694C13.8351 19.8736 12.8307 21.2464 12.386 22.8338C12.3802 22.8555 12.3701 22.8758 12.3564 22.8936C12.3427 22.9114 12.3256 22.9263 12.3061 22.9375C12.2866 22.9487 12.2651 22.956 12.2428 22.9589C12.2206 22.9618 12.1979 22.9602 12.1762 22.9544C12.1545 22.9485 12.1342 22.9385 12.1164 22.9247C12.0986 22.911 12.0837 22.8939 12.0725 22.8745C12.0613 22.855 12.054 22.8335 12.0511 22.8112C12.0483 22.7889 12.0498 22.7663 12.0556 22.7446C12.4147 21.4622 13.1244 20.3055 14.105 19.4045C15.0856 18.5035 16.2982 17.894 17.6063 17.6446C18.9144 17.3951 20.2662 17.5156 21.5095 17.9925C22.7529 18.4694 23.8385 19.2837 24.6443 20.344C25.4501 21.4042 25.944 22.6682 26.0706 23.9939C26.1971 25.3195 25.9513 26.6542 25.3607 27.8478C24.7701 29.0413 23.8582 30.0464 22.7276 30.75C21.5969 31.4535 20.2924 31.8276 18.9607 31.8302Z" fill="#F4FF5C"/>
<path d="M18.961 26.2797C18.5962 26.281 18.2394 26.1728 17.9368 25.9692C17.9015 25.9433 17.8775 25.905 17.8695 25.862C17.8615 25.8191 17.8702 25.7747 17.8938 25.7379C17.9186 25.7022 17.9563 25.6777 17.999 25.6697C18.0417 25.6616 18.0858 25.6707 18.1218 25.6949C18.3157 25.8253 18.5375 25.9084 18.7694 25.9376C19.0012 25.9668 19.2367 25.9413 19.4569 25.8632C19.6772 25.7851 19.876 25.6564 20.0376 25.4876C20.1992 25.3188 20.319 25.1145 20.3875 24.8911C20.456 24.6677 20.4711 24.4313 20.4318 24.201C20.3925 23.9706 20.2999 23.7527 20.1612 23.5646C20.0225 23.3765 19.8418 23.2235 19.6333 23.1178C19.4249 23.0121 19.1947 22.9567 18.961 22.956C18.7132 22.9567 18.4693 23.018 18.2506 23.1344C18.2318 23.1448 18.2111 23.1514 18.1897 23.1537C18.1683 23.156 18.1467 23.154 18.1261 23.1478C18.1055 23.1417 18.0863 23.1315 18.0697 23.1178C18.0531 23.1042 18.0393 23.0874 18.0293 23.0684C18.0188 23.0493 18.0122 23.0283 18.0099 23.0067C18.0075 22.9851 18.0095 22.9632 18.0156 22.9423C18.0218 22.9214 18.032 22.902 18.0457 22.885C18.0593 22.8681 18.0762 22.8541 18.0954 22.8437C18.3401 22.712 18.6117 22.6379 18.8894 22.627C19.1671 22.6162 19.4437 22.6688 19.698 22.7809C19.9523 22.893 20.1777 23.0617 20.357 23.274C20.5362 23.4864 20.6647 23.7368 20.7326 24.0064C20.8005 24.2759 20.806 24.5573 20.7488 24.8293C20.6915 25.1012 20.5729 25.3565 20.4021 25.5758C20.2312 25.795 20.0126 25.9723 19.7629 26.0943C19.5132 26.2163 19.2389 26.2797 18.961 26.2797Z" fill="#F4FF5C"/>
<path d="M19.004 24.3899L16.3345 23.0915L16.384 24.2478L9.29395 24.4163L9.36993 24.935L16.4732 24.8194L16.4931 25.9956L19.004 24.3899Z" fill="#F4FF5C"/>
<path d="M11.2432 24.5881L11.2069 24.5154C11.1124 24.3327 10.9705 24.1787 10.7962 24.0694C10.6219 23.9602 10.4214 23.8997 10.2157 23.8943L7.86667 23.8051L8.88426 24.7236L7.98231 25.837L10.2289 25.7907C10.4757 25.7857 10.7143 25.7014 10.9095 25.5503C11.1046 25.3991 11.246 25.1892 11.3126 24.9516L11.2432 24.5881Z" fill="#F4FF5C"/>
<path d="M19.004 28.9955C18.07 28.9918 17.1622 28.6869 16.4152 28.1263C15.6683 27.5656 15.122 26.779 14.8576 25.8833C14.8511 25.8627 14.8489 25.8409 14.8511 25.8195C14.8532 25.798 14.8598 25.7771 14.8703 25.7583C14.8808 25.7394 14.8951 25.7229 14.9122 25.7097C14.9294 25.6965 14.949 25.687 14.97 25.6817C14.9908 25.6757 15.0126 25.6737 15.0342 25.6761C15.0557 25.6785 15.0766 25.685 15.0956 25.6955C15.1147 25.7059 15.1314 25.72 15.145 25.7369C15.1586 25.7538 15.1687 25.7732 15.1748 25.7941C15.4475 26.7136 16.0423 27.5042 16.8503 28.0211C17.6582 28.538 18.6253 28.7466 19.5745 28.6088C20.5237 28.471 21.3915 27.996 22.0192 27.2707C22.6468 26.5454 22.9922 25.6183 22.9922 24.6592C22.9922 23.7 22.6468 22.773 22.0192 22.0476C21.3915 21.3223 20.5237 20.8473 19.5745 20.7095C18.6253 20.5717 17.6582 20.7804 16.8503 21.2973C16.0423 21.8142 15.4475 22.6047 15.1748 23.5243C15.1687 23.5451 15.1586 23.5646 15.145 23.5815C15.1314 23.5984 15.1147 23.6125 15.0956 23.6229C15.0766 23.6333 15.0557 23.6399 15.0342 23.6423C15.0126 23.6446 14.9908 23.6427 14.97 23.6366C14.9488 23.6306 14.929 23.6204 14.9118 23.6065C14.8946 23.5927 14.8804 23.5756 14.8699 23.5562C14.8594 23.5368 14.853 23.5155 14.8509 23.4936C14.8487 23.4717 14.851 23.4495 14.8576 23.4285C15.089 22.6626 15.5286 21.9761 16.1274 21.4455C16.7262 20.9149 17.4606 20.5611 18.2487 20.4235C19.0369 20.2859 19.8477 20.37 20.5909 20.6664C21.334 20.9628 21.9802 21.4598 22.4573 22.1019C22.9345 22.7441 23.2239 23.5062 23.2932 24.3033C23.3625 25.1003 23.209 25.901 22.8498 26.6159C22.4907 27.3308 21.9399 27.9318 21.2591 28.352C20.5783 28.7722 19.7941 28.995 18.9941 28.9955H19.004Z" fill="#F4FF5C"/>
<path d="M109.593 11.7559C110.729 11.0723 111.952 10.5434 113.228 10.1833L113.974 6.59529L120.034 6.48956L120.906 10.0478C122.191 10.3623 123.428 10.8491 124.583 11.4949L127.646 9.48617L132.007 13.6953L130.107 16.8274C130.793 17.9626 131.323 19.185 131.683 20.4616L135.258 21.1984L135.363 27.2577L131.805 28.1167C131.49 29.4004 131.005 30.636 130.361 31.7906L132.367 34.8533L128.158 39.2144L125.016 37.3279C123.88 38.0133 122.658 38.5433 121.382 38.9038L120.635 42.4918L114.576 42.5975L113.703 39.0393C112.419 38.7224 111.182 38.2358 110.026 37.5922L106.963 39.6009L102.625 35.3852L104.525 32.2531C103.839 31.1179 103.309 29.8955 102.949 28.6189L99.3645 27.8722L99.2456 21.8393L102.801 20.9671C103.118 19.6827 103.605 18.4462 104.248 17.2899L102.242 14.2272L106.451 9.86942L109.58 11.7658L109.593 11.7559Z" fill="#263238"/>
<path d="M108.437 25.0639L110.759 22.7413L115.236 26.7224L124.027 18.2645L126.185 20.5872L114.906 31.2025L108.437 25.0639Z" fill="#F4FF5C"/>
<path d="M48.4214 13.6457C48.4298 13.6089 48.4431 13.5733 48.461 13.54L48.5932 13.2427C48.6527 13.1072 48.7253 12.9486 48.8112 12.7603C48.906 12.5327 49.0164 12.3119 49.1416 12.0995L49.5777 11.3066C49.7495 11.0192 49.9544 10.7251 50.1625 10.398C50.3707 10.071 50.6317 9.73727 50.8927 9.40688C51.172 9.03648 51.4697 8.68031 51.7847 8.33973C52.0953 7.96309 52.4785 7.61949 52.8486 7.23954C53.0336 7.04462 53.2483 6.87942 53.4532 6.69441C53.658 6.50939 53.8728 6.32437 54.0941 6.14266L54.7912 5.61404C54.9102 5.52484 55.0258 5.43233 55.1481 5.34643L55.528 5.09534C55.7857 4.92684 56.0401 4.76495 56.3077 4.58654L57.1403 4.11409C57.4145 3.94559 57.7152 3.81674 58.0125 3.67136C58.3099 3.52599 58.6072 3.37071 58.9244 3.25508L59.8726 2.87183L60.8637 2.54144C63.6441 1.68145 66.591 1.50576 69.4538 2.02934L70.478 2.23088L71.4692 2.4985C71.7996 2.57779 72.1101 2.70003 72.424 2.80245C72.7379 2.90487 73.0484 3.00729 73.3425 3.13284L74.2213 3.50287C74.5087 3.63172 74.7829 3.7804 75.0572 3.91255L75.4635 4.11739C75.5957 4.19007 75.7246 4.26936 75.8501 4.34205L76.6067 4.78477C76.8479 4.93675 77.0791 5.11516 77.3071 5.25722C77.5351 5.39929 77.7663 5.55787 77.9679 5.72637C78.3842 6.05676 78.8038 6.35411 79.154 6.69441C79.5042 7.03471 79.8709 7.32214 80.1683 7.64592C80.4656 7.9697 80.7729 8.25053 81.0107 8.55448C81.2486 8.85844 81.4964 9.12605 81.6979 9.38706L82.2266 10.1238C82.3721 10.317 82.5056 10.5189 82.6263 10.7284L82.9006 11.1811C82.9666 11.2967 83.0228 11.3925 83.0657 11.4619C83.0873 11.4921 83.104 11.5256 83.1153 11.561C83.0914 11.5327 83.0694 11.5029 83.0492 11.4718L82.8708 11.1976L82.5834 10.7549C82.4575 10.5495 82.3208 10.3509 82.1737 10.1602L81.6319 9.43662C81.427 9.17892 81.1858 8.91461 80.9381 8.62056C80.6903 8.32652 80.3929 8.03908 80.089 7.72521C79.785 7.41135 79.4282 7.10739 79.0747 6.78361C78.7212 6.45983 78.3016 6.16248 77.8886 5.8354C77.6837 5.6669 77.4525 5.52814 77.2278 5.36955C77.0031 5.21097 76.7686 5.05569 76.5274 4.90701C76.2862 4.75834 76.0318 4.61627 75.7741 4.4709C75.6486 4.39822 75.523 4.31892 75.3909 4.24954L74.9845 4.04801C74.7103 3.91585 74.4393 3.77378 74.1552 3.64493L73.2797 3.27821C72.9889 3.14605 72.6751 3.05685 72.3678 2.94782C72.0606 2.83879 71.7467 2.72316 71.4196 2.64717L70.4284 2.38286L69.4109 2.18462C67.9928 1.94257 66.5526 1.85615 65.1158 1.92692C63.6925 2.03538 62.2853 2.30019 60.9199 2.71655L59.9288 3.04693L58.9839 3.42357C58.67 3.53591 58.3759 3.69449 58.0786 3.83326C57.7812 3.97202 57.4872 4.10418 57.213 4.26937L56.387 4.73521C56.1194 4.8971 55.865 5.0656 55.6106 5.2374L55.2307 5.48519C55.1084 5.56779 54.9928 5.6603 54.8738 5.7495L54.18 6.27151C53.9587 6.44992 53.7505 6.63494 53.5391 6.81335C53.3276 6.99176 53.1195 7.16025 52.9378 7.35187C52.5644 7.72851 52.1812 8.06551 51.8706 8.43885C51.5601 8.81219 51.233 9.13596 50.9753 9.48948C50.7176 9.84299 50.4434 10.1503 50.2385 10.4806C50.0337 10.811 49.8189 11.0919 49.6471 11.3727L49.1945 12.1557C49.0732 12.3623 48.9629 12.5751 48.8641 12.7933L48.6295 13.2691C48.5701 13.3913 48.5205 13.4872 48.4842 13.5598C48.4663 13.5906 48.4453 13.6194 48.4214 13.6457Z" fill="#F4FF5C"/>
<path d="M55.2607 2.71985C55.3784 2.62196 55.5044 2.53462 55.6374 2.45884C55.8852 2.30025 56.2552 2.08881 56.7211 1.85093C59.1783 0.609325 61.8974 -0.0251272 64.6503 0.000761632C65.1757 0.000761632 65.6018 0.0338043 65.8926 0.066843C66.0455 0.0743075 66.1971 0.0975554 66.3452 0.136221C66.1935 0.148986 66.041 0.148986 65.8893 0.136221C65.5952 0.119702 65.1723 0.113094 64.6503 0.136221C61.9221 0.173642 59.2342 0.800262 56.7706 1.97317C56.3015 2.19453 55.9248 2.38946 55.6671 2.53153C55.5379 2.60692 55.4018 2.66998 55.2607 2.71985Z" fill="#F4FF5C"/>
<path d="M134.662 36.3136C134.654 36.3499 134.641 36.3854 134.626 36.4193C134.593 36.492 134.547 36.5911 134.494 36.7166L134.276 37.199C134.179 37.4256 134.068 37.6463 133.945 37.8598C133.813 38.0977 133.668 38.3653 133.506 38.6527C133.344 38.9401 133.132 39.2342 132.921 39.5613C132.71 39.8884 132.455 40.222 132.191 40.5524C131.927 40.8828 131.619 41.2495 131.299 41.6196C130.978 41.9896 130.608 42.3365 130.235 42.7198C130.053 42.9114 129.838 43.0799 129.634 43.2649C129.429 43.4499 129.214 43.6349 128.993 43.8166C128.771 43.9984 128.53 44.1669 128.296 44.3453C128.177 44.4345 128.058 44.527 127.935 44.6129L127.556 44.864C127.301 45.0292 127.043 45.1944 126.776 45.3728L125.947 45.8452C125.669 46.0104 125.368 46.1426 125.074 46.2879C124.78 46.4333 124.48 46.5886 124.162 46.7042L123.211 47.0842L122.22 47.4146C119.439 48.2746 116.493 48.4502 113.63 47.9267L112.606 47.7218L111.614 47.4575C111.284 47.3782 110.973 47.256 110.66 47.1503C110.346 47.0445 110.035 46.9487 109.741 46.8199L108.859 46.4498C108.575 46.3177 108.301 46.1723 108.026 46.0368L107.62 45.8353C107.485 45.7626 107.359 45.6833 107.23 45.6107L106.477 45.1679C106.232 45.0126 106.004 44.8375 105.773 44.6955C105.542 44.5534 105.314 44.3948 105.112 44.223C104.699 43.8926 104.28 43.5986 103.926 43.2583C103.573 42.918 103.209 42.6306 102.915 42.3035C102.621 41.9764 102.311 41.7022 102.073 41.3949C101.835 41.0877 101.587 40.8267 101.382 40.5656C101.177 40.3046 101.016 40.0502 100.854 39.8289C100.709 39.6358 100.577 39.4338 100.457 39.2243C100.348 39.0492 100.259 38.8939 100.183 38.7716C100.107 38.6494 100.061 38.5602 100.018 38.4908L99.9649 38.3917C99.9649 38.3917 99.9914 38.4214 100.034 38.4809C100.077 38.5404 100.137 38.6395 100.213 38.7518L100.5 39.1978C100.625 39.4029 100.762 39.6003 100.91 39.7892L101.448 40.5161C101.653 40.7738 101.894 41.0381 102.142 41.3321C102.39 41.6262 102.691 41.9136 102.991 42.2275C103.292 42.5414 103.652 42.8453 104.006 43.1658C104.359 43.4863 104.779 43.7869 105.192 44.1173C105.396 44.2858 105.628 44.4246 105.852 44.5831C106.077 44.7417 106.308 44.8937 106.553 45.0457L107.303 45.4818C107.432 45.5545 107.557 45.6338 107.689 45.7032L108.092 45.9047C108.367 46.0369 108.641 46.1789 108.922 46.3078L109.797 46.6712C110.091 46.8034 110.402 46.8959 110.712 47.0016C111.023 47.1073 111.334 47.2262 111.661 47.3022L112.652 47.5632L113.666 47.7615C116.508 48.2805 119.433 48.1071 122.193 47.256L123.185 46.9256L124.126 46.549C124.456 46.4333 124.737 46.278 125.031 46.1393C125.325 46.0005 125.626 45.8684 125.9 45.6999L126.726 45.234C126.994 45.0754 127.245 44.9036 127.503 44.7351L127.879 44.4873C128.002 44.4047 128.117 44.3122 128.236 44.223L128.933 43.701C129.155 43.5226 129.363 43.3343 129.571 43.1592C129.779 42.9841 129.99 42.809 130.175 42.6207C130.546 42.244 130.929 41.907 131.239 41.5337C131.55 41.1603 131.88 40.8366 132.135 40.483C132.389 40.1295 132.67 39.8223 132.871 39.4919C133.073 39.1615 133.294 38.8774 133.466 38.5965C133.638 38.3157 133.797 38.0514 133.915 37.8135C134.038 37.6076 134.148 37.3947 134.246 37.1759L134.477 36.7034L134.626 36.4094L134.662 36.3136Z" fill="#F4FF5C"/>
<path d="M127.959 48.2439C127.842 48.3428 127.716 48.4302 127.582 48.5049C127.231 48.7255 126.87 48.9284 126.498 49.1128C124.041 50.3544 121.322 50.9888 118.569 50.9629C118.154 50.9615 117.739 50.9383 117.327 50.8936C117.175 50.8888 117.024 50.8666 116.878 50.8275C117.029 50.8145 117.182 50.8145 117.333 50.8275C117.624 50.844 118.047 50.8473 118.569 50.8275C121.297 50.791 123.986 50.1643 126.449 48.9905C126.921 48.7659 127.298 48.5742 127.552 48.4322C127.682 48.3568 127.818 48.2937 127.959 48.2439Z" fill="#F4FF5C"/>
<path d="M35.8106 35.5801C35.8018 35.6158 35.7885 35.6502 35.771 35.6825C35.7379 35.7585 35.695 35.8576 35.6388 35.9799L35.4208 36.4656C35.3246 36.6925 35.2142 36.9132 35.0904 37.1263L34.6543 37.9193C34.4825 38.2034 34.2776 38.5007 34.0695 38.8245C33.8613 39.1483 33.6003 39.4853 33.3393 39.8157C33.0783 40.1461 32.7678 40.5128 32.4473 40.8795C32.1268 41.2463 31.7535 41.5998 31.3834 41.9797C31.1984 42.1746 30.9837 42.3431 30.7788 42.5282C30.574 42.7132 30.3592 42.8982 30.1379 43.0766L29.4408 43.6085C29.3218 43.6944 29.2062 43.7902 29.0806 43.8761L28.704 44.1272C28.4463 44.2924 28.1919 44.4576 27.9243 44.6327L27.0917 45.1052C26.8175 45.2737 26.5168 45.4025 26.2195 45.5512C25.9221 45.6999 25.6248 45.8485 25.3076 45.9642L24.3594 46.3474L23.3682 46.6778C20.5887 47.542 17.6407 47.7177 14.7782 47.1899L13.754 46.9884L12.7628 46.7208C12.4324 46.6448 12.1219 46.5225 11.808 46.4168C11.4941 46.3111 11.1836 46.212 10.8895 46.0864L10.0107 45.7131C9.72327 45.5842 9.44905 45.4389 9.17483 45.3034L8.76845 45.0986C8.6363 45.0292 8.50745 44.9499 8.3819 44.8739L7.62532 44.4312C7.38414 44.2792 7.15287 44.1008 6.9249 43.962C6.69693 43.8233 6.46566 43.6614 6.26413 43.4896C5.84784 43.1592 5.42825 42.8618 5.07473 42.5248C4.72122 42.1879 4.3611 41.8971 4.06375 41.57C3.7664 41.243 3.45914 40.9687 3.22126 40.6615C2.98338 40.3542 2.73559 40.0932 2.53406 39.8289L2.00544 39.0954C1.86065 38.9018 1.72717 38.6999 1.60567 38.4908L1.33145 38.0349L1.16626 37.7541C1.14468 37.7238 1.12796 37.6904 1.1167 37.6549C1.14096 37.6841 1.16304 37.715 1.18278 37.7475L1.36118 38.0184L1.64862 38.4611C1.77448 38.6665 1.91123 38.865 2.0583 39.0558L2.59683 39.7793C2.80497 40.037 3.04616 40.3047 3.29395 40.5987C3.54174 40.8927 3.83908 41.1769 4.14304 41.494C4.44699 41.8112 4.80381 42.1086 5.15733 42.4323C5.51084 42.7561 5.93043 43.0535 6.34342 43.3839C6.54826 43.5524 6.77953 43.6911 7.00419 43.8464C7.22885 44.0017 7.46343 44.1603 7.70461 44.3122L8.45459 44.7484C8.58344 44.821 8.70898 44.897 8.84114 44.9664L9.24752 45.1679C9.51844 45.3001 9.79265 45.4455 10.0768 45.5743L10.9523 45.9377C11.2431 46.0699 11.5569 46.1624 11.8642 46.2681C12.1714 46.3739 12.4853 46.4895 12.8124 46.5655L13.8035 46.8298L14.8211 47.028C17.6618 47.5469 20.5857 47.3735 23.3451 46.5225L24.3363 46.1921L25.2812 45.8155C25.6116 45.6999 25.8891 45.5413 26.1864 45.4058C26.4838 45.2704 26.7778 45.1316 27.0521 44.9664L27.878 44.5006C28.1456 44.3387 28.4 44.1702 28.6544 44.0017L29.0344 43.7539C29.1566 43.668 29.2723 43.5755 29.3912 43.4896L30.085 42.9676C30.3064 42.7892 30.5145 42.6008 30.726 42.4224C30.9374 42.244 31.1455 42.0755 31.3273 41.8839C31.7006 41.5073 32.0839 41.1736 32.3944 40.8002C32.705 40.4269 33.0321 40.0998 33.2898 39.7463C33.5475 39.3928 33.8217 39.0855 34.0265 38.7551C34.2314 38.4248 34.4461 38.1406 34.6179 37.8598C34.7897 37.579 34.9483 37.3113 35.0705 37.0768C35.1925 36.8706 35.3028 36.6577 35.4009 36.4391L35.6355 35.9634L35.7809 35.6726C35.7809 35.6099 35.8106 35.5768 35.8106 35.5801Z" fill="#F4FF5C"/>
<path d="M29.0972 47.5104C28.9813 47.608 28.8563 47.6943 28.7239 47.7681C28.4761 47.93 28.1061 48.1381 27.6402 48.3793C25.183 49.6209 22.4639 50.2553 19.711 50.2295C19.1856 50.2295 18.7595 50.1964 18.4687 50.1601C18.3163 50.1507 18.1649 50.1286 18.0161 50.094C18.1676 50.077 18.3205 50.077 18.472 50.094C18.7661 50.094 19.1889 50.1138 19.711 50.094C22.4356 50.0565 25.1204 49.4345 27.5841 48.2703C28.0565 48.0456 28.4332 47.854 28.6909 47.7119C28.8188 47.6305 28.955 47.563 29.0972 47.5104Z" fill="#F4FF5C"/>
</svg>
