<svg width="134" height="82" viewBox="0 0 134 82" fill="none" xmlns="http://www.w3.org/2000/svg">
<g filter="url(#filter0_d_3_865)">
<path d="M123.389 2.1001C121.458 1.23341 118.944 1.31917 116.188 2.5515C110.094 5.31859 105.148 12.7125 105.148 19.0773C105.148 22.5666 106.635 25.0177 108.976 26.0695L111.34 27.1393C113.277 28.006 115.79 27.9248 118.546 26.6879C124.646 23.9344 129.587 16.5359 129.587 10.1712C129.587 6.69085 128.111 4.24425 125.776 3.18797L123.389 2.1001Z" fill="#EBEBEB"/>
<path d="M127.364 18.09C131.029 11.3457 130.05 4.56244 125.178 2.93918C120.306 1.31592 113.385 5.46738 109.719 12.2117C106.054 18.956 107.033 25.7393 111.905 27.3625C116.777 28.9858 123.698 24.8344 127.364 18.09Z" fill="#E0E0E0"/>
<path d="M125.464 17.4573C128.339 12.1674 127.569 6.84638 123.746 5.57257C119.923 4.29875 114.493 7.55446 111.618 12.8444C108.743 18.1343 109.512 23.4553 113.336 24.7291C117.159 26.0029 122.589 22.7472 125.464 17.4573Z" fill="#FAFAFA"/>
<path d="M121.44 9.29091C121.475 9.27208 121.516 9.26199 121.558 9.26199C121.601 9.26199 121.642 9.27208 121.677 9.29091C121.713 9.31609 121.74 9.3477 121.757 9.38307C121.774 9.41844 121.78 9.45651 121.775 9.49404V10.8753C121.772 10.9783 121.743 11.0797 121.688 11.1733C121.63 11.2771 121.579 11.3674 121.527 11.4441L120.016 13.7011C120.279 13.6343 120.558 13.6142 120.832 13.6423C121.107 13.6704 121.369 13.746 121.602 13.8636C122.011 14.0893 122.213 14.5452 122.213 15.2178C122.229 16.157 121.89 17.0788 121.238 17.8675C120.552 18.6882 119.62 19.3654 118.523 19.8402C118.034 20.078 117.496 20.2462 116.932 20.3367C116.548 20.4032 116.148 20.3829 115.779 20.278C115.47 20.1826 115.211 20.0075 115.047 19.7815C114.868 19.5305 114.777 19.2472 114.781 18.9599C114.782 18.8761 114.809 18.7937 114.862 18.7207C114.902 18.6496 114.968 18.5898 115.052 18.5492L116.626 17.8405C116.799 17.7592 116.932 17.7411 117.024 17.7818L117.33 17.9127C117.467 17.962 117.617 17.9852 117.768 17.9804C118.042 17.9557 118.305 17.8798 118.535 17.7592C118.914 17.5894 119.25 17.3659 119.526 17.1002C119.774 16.8631 119.913 16.5671 119.918 16.2606C119.918 15.9536 119.786 15.8091 119.526 15.773C119.172 15.7714 118.826 15.8549 118.535 16.0123L117.497 16.4637C117.463 16.4838 117.421 16.4947 117.379 16.4947C117.336 16.4947 117.295 16.4838 117.26 16.4637C117.224 16.4397 117.196 16.4089 117.179 16.3742C117.162 16.3395 117.156 16.302 117.162 16.2651V15.1456C117.164 15.0412 117.194 14.9381 117.249 14.8432C117.307 14.7393 117.364 14.6445 117.422 14.5543L118.748 12.5636L115.491 14.0351C115.457 14.056 115.415 14.0674 115.372 14.0674C115.329 14.0674 115.288 14.056 115.254 14.0351C115.218 14.0102 115.189 13.9787 115.171 13.9434C115.153 13.9081 115.146 13.8699 115.15 13.832V12.4507C115.153 12.3491 115.189 12.2496 115.254 12.1618C115.304 12.0743 115.387 12.0004 115.491 11.9497L121.44 9.29091Z" fill="#455A64"/>
<path d="M107.506 20.1426C107.505 20.6129 107.533 21.083 107.592 21.551L76.6621 35.5444V32.6555L107.598 18.662C107.535 19.1586 107.506 19.6506 107.506 20.1426Z" fill="#E6E6E6"/>
<path d="M107.592 18.662L76.6622 32.6419L74.3042 31.5766L105.234 17.5922L107.592 18.662Z" fill="#F0F0F0"/>
<path d="M72.8631 24.9455C70.9318 24.0834 68.4124 24.1646 65.6624 25.3969C59.5686 28.155 54.6221 35.549 54.6221 41.9137C54.6221 45.3985 56.1095 47.8542 58.4502 48.9059L60.8139 49.9757C62.7452 50.8424 65.2646 50.7612 68.0204 49.5243C74.12 46.7663 79.0607 39.3723 79.0607 33.0076C79.0607 29.5273 77.5791 27.0807 75.2442 26.0199L72.8631 24.9455Z" fill="#222222"/>
<path opacity="0.3" d="M72.8631 24.9455C70.9318 24.0834 68.4124 24.1646 65.6624 25.3969C59.5686 28.155 54.6221 35.549 54.6221 41.9137C54.6221 45.3985 56.1095 47.8542 58.4502 48.9059L60.8139 49.9757C62.7452 50.8424 65.2646 50.7612 68.0204 49.5243C74.12 46.7663 79.0607 39.3723 79.0607 33.0076C79.0607 29.5273 77.5791 27.0807 75.2442 26.0199L72.8631 24.9455Z" fill="white"/>
<path d="M76.8274 40.94C80.4926 34.1957 79.514 27.4125 74.6417 25.7892C69.7694 24.1659 62.8484 28.3174 59.1833 35.0617C55.5181 41.806 56.4967 48.5893 61.369 50.2125C66.2413 51.8358 73.1623 47.6844 76.8274 40.94Z" fill="#222222"/>
<path d="M74.9281 40.3073C77.8029 35.0174 77.0338 29.6964 73.2104 28.4226C69.387 27.1488 63.957 30.4045 61.0822 35.6944C58.2074 40.9844 58.9765 46.3053 62.7999 47.5792C66.6233 48.853 72.0533 45.5973 74.9281 40.3073Z" fill="#FAFAFA"/>
<path d="M71.4094 34.8357C71.4072 35.0911 71.3821 35.346 71.3345 35.5986C71.2779 35.8703 71.1911 36.1377 71.075 36.3976C70.9422 36.6973 70.7843 36.9898 70.6023 37.2733C70.4063 37.5757 70.1699 37.9008 69.8874 38.2483L68.1579 40.4151L71.2884 39.0022C71.3228 38.9827 71.3641 38.9722 71.4065 38.9722C71.449 38.9722 71.4903 38.9827 71.5247 39.0022C71.5596 39.028 71.5866 39.0597 71.6036 39.0949C71.6206 39.1301 71.6271 39.1678 71.6227 39.2053V40.5866C71.6194 40.6876 71.5858 40.7865 71.5247 40.8755C71.4727 40.962 71.3908 41.0355 71.2884 41.0876L64.7045 44.0669C64.6692 44.0867 64.6269 44.0974 64.5834 44.0974C64.54 44.0974 64.4976 44.0867 64.4624 44.0669C64.4272 44.0422 64.4 44.0113 64.3829 43.9768C64.3659 43.9423 64.3595 43.9051 64.3644 43.8683V42.7398C64.368 42.5873 64.3951 42.4358 64.4451 42.2884C64.5067 42.1183 64.602 41.9568 64.7276 41.8099L68.4576 37.3365C68.6918 37.0694 68.8762 36.7776 69.0053 36.4698C69.0752 36.2774 69.112 36.0785 69.1149 35.8785C69.1143 35.7982 69.1047 35.7182 69.086 35.6392C69.067 35.5452 69.0173 35.4566 68.9419 35.3819C68.9035 35.3434 68.8557 35.3111 68.8013 35.2871C68.7468 35.2631 68.6869 35.2478 68.6248 35.242C68.4191 35.2377 68.2171 35.2852 68.0483 35.3774C67.8245 35.471 67.6281 35.6001 67.4718 35.7566C67.3362 35.8953 67.2239 36.047 67.1374 36.208C67.0627 36.3359 67.0029 36.4689 66.9587 36.6052C66.9241 36.7316 66.8953 36.8219 66.878 36.8851C66.8501 37.0041 66.7847 37.1159 66.6877 37.2101C66.6013 37.2897 66.4979 37.3569 66.3822 37.4087L64.8602 38.0903C64.8316 38.1065 64.7973 38.1152 64.7622 38.1152C64.727 38.1152 64.6927 38.1065 64.6641 38.0903C64.6354 38.0701 64.6132 38.0448 64.5992 38.0166C64.5852 37.9884 64.5798 37.958 64.5834 37.9278C64.5953 37.5258 64.6649 37.126 64.791 36.7361C64.9432 36.2939 65.1599 35.8667 65.4367 35.4632C65.7274 35.0289 66.0878 34.6254 66.509 34.2625C66.9431 33.8816 67.4532 33.5584 68.0195 33.3055C68.4612 33.087 68.9594 32.9483 69.4781 32.8992C69.8472 32.8716 70.2172 32.9433 70.5273 33.1024C70.8263 33.2746 71.0515 33.5139 71.1731 33.7885C71.3307 34.1238 71.4107 34.4784 71.4094 34.8357Z" fill="#455A64"/>
<path d="M56.962 42.9926C56.9606 43.4629 56.9895 43.9329 57.0484 44.4009L26.1182 58.3944V55.5054L57.0542 41.512C56.9908 42.0085 56.962 42.5005 56.962 42.9926Z" fill="#222222"/>
<path opacity="0.3" d="M56.962 42.9926C56.9606 43.4629 56.9895 43.9329 57.0484 44.4009L26.1182 58.3944V55.5054L57.0542 41.512C56.9908 42.0085 56.962 42.5005 56.962 42.9926Z" fill="white"/>
<path d="M57.049 41.512L26.1187 55.4919L23.7607 54.4266L54.691 40.4421L57.049 41.512Z" fill="#222222"/>
<path opacity="0.6" d="M57.049 41.512L26.1187 55.4919L23.7607 54.4266L54.691 40.4421L57.049 41.512Z" fill="white"/>
<path d="M22.3016 47.7955C20.3703 46.9288 17.8509 47.0145 15.1009 48.2469C9.00132 51.0004 4.06055 58.3944 4.06055 64.7636C4.06055 68.2485 5.54797 70.6996 7.88864 71.7559C8.28067 71.9274 9.8488 72.6587 10.2524 72.8257C12.1837 73.6924 14.7031 73.6066 17.4589 72.3743C23.5527 69.6162 28.4992 62.2223 28.4992 55.8575C28.4992 52.3772 27.0175 49.9261 24.6826 48.8698L22.3016 47.7955Z" fill="#222222"/>
<path opacity="0.3" d="M22.3016 47.7955C20.3703 46.9288 17.8509 47.0145 15.1009 48.2469C9.00132 51.0004 4.06055 58.3944 4.06055 64.7636C4.06055 68.2485 5.54797 70.6996 7.88864 71.7559C8.28067 71.9274 9.8488 72.6587 10.2524 72.8257C12.1837 73.6924 14.7031 73.6066 17.4589 72.3743C23.5527 69.6162 28.4992 62.2223 28.4992 55.8575C28.4992 52.3772 27.0175 49.9261 24.6826 48.8698L22.3016 47.7955Z" fill="white"/>
<path d="M26.2806 63.7883C29.9457 57.044 28.9671 50.2607 24.0948 48.6375C19.2225 47.0142 12.3015 51.1656 8.63638 57.91C4.97121 64.6543 5.94978 71.4376 10.8221 73.0608C15.6944 74.6841 22.6154 70.5326 26.2806 63.7883Z" fill="#222222"/>
<path d="M24.3812 63.1556C27.256 57.8657 26.487 52.5447 22.6635 51.2709C18.8401 49.9971 13.4101 53.2528 10.5353 58.5427C7.66056 63.8327 8.42958 69.1536 12.253 70.4274C16.0764 71.7013 21.5064 68.4456 24.3812 63.1556Z" fill="#FAFAFA"/>
<path d="M13.7872 60.8861C13.7571 60.8524 13.7364 60.814 13.7265 60.7736C13.7165 60.7331 13.7176 60.6915 13.7296 60.6514C13.7467 60.5473 13.7919 60.4473 13.8622 60.358L16.5487 56.995C16.6122 56.9138 16.6929 56.819 16.7909 56.7061C16.8728 56.6012 16.9855 56.513 17.1195 56.4488L18.6415 55.7627C18.6762 55.7439 18.7175 55.7338 18.7597 55.7338C18.8019 55.7338 18.8432 55.7439 18.8779 55.7627C18.9139 55.7879 18.9416 55.8195 18.9587 55.8549C18.9757 55.8902 18.9816 55.9283 18.9759 55.9658V64.38C18.9753 64.4813 18.9416 64.5807 18.8779 64.6689C18.8277 64.7564 18.7455 64.8303 18.6415 64.881L17.0099 65.6258C16.9759 65.646 16.9344 65.6569 16.8918 65.6569C16.8491 65.6569 16.8076 65.646 16.7736 65.6258C16.7362 65.6023 16.707 65.5718 16.6889 65.537C16.6707 65.5023 16.6642 65.4645 16.6698 65.4272V59.726L15.2112 61.5632C15.1544 61.6432 15.068 61.7077 14.9633 61.7483C14.9267 61.7648 14.8836 61.7703 14.8421 61.7637C14.8007 61.757 14.7638 61.7387 14.7385 61.7122L13.7872 60.8861Z" fill="#455A64"/>
</g>
<defs>
<filter id="filter0_d_3_865" x="0.0605469" y="1.52573" width="133.526" height="79.8867" filterUnits="userSpaceOnUse" color-interpolation-filters="sRGB">
<feFlood flood-opacity="0" result="BackgroundImageFix"/>
<feColorMatrix in="SourceAlpha" type="matrix" values="0 0 0 0 0 0 0 0 0 0 0 0 0 0 0 0 0 0 127 0" result="hardAlpha"/>
<feOffset dy="4"/>
<feGaussianBlur stdDeviation="2"/>
<feComposite in2="hardAlpha" operator="out"/>
<feColorMatrix type="matrix" values="0 0 0 0 0 0 0 0 0 0 0 0 0 0 0 0 0 0 0.25 0"/>
<feBlend mode="normal" in2="BackgroundImageFix" result="effect1_dropShadow_3_865"/>
<feBlend mode="normal" in="SourceGraphic" in2="effect1_dropShadow_3_865" result="shape"/>
</filter>
</defs>
</svg>
