<svg width="150" height="38" viewBox="0 0 150 38" fill="none" xmlns="http://www.w3.org/2000/svg">
<path d="M54.9901 3.05707C55.2211 3.05707 55.424 3.02989 55.5987 2.97554C55.7764 2.9212 55.923 2.84511 56.0385 2.74728C56.157 2.64674 56.2458 2.52582 56.305 2.38451C56.3643 2.24321 56.3939 2.0856 56.3939 1.91168C56.3939 1.74049 56.3643 1.58696 56.305 1.45109C56.2488 1.31522 56.1629 1.19973 56.0474 1.10462C55.9319 1.00951 55.7853 0.9375 55.6076 0.888587C55.4329 0.836957 55.227 0.811141 54.9901 0.811141H54.0395V3.05707H54.9901ZM54.9901 0.0652175C55.4077 0.0652175 55.769 0.110054 56.074 0.199728C56.382 0.289402 56.6352 0.415761 56.8337 0.578805C57.035 0.73913 57.1846 0.933424 57.2823 1.16168C57.3801 1.38723 57.4289 1.63723 57.4289 1.91168C57.4289 2.19158 57.3771 2.44837 57.2734 2.68207C57.1698 2.91304 57.0158 3.11277 56.8114 3.28125C56.6071 3.44701 56.3524 3.57745 56.0474 3.67255C55.7453 3.76495 55.3929 3.81114 54.9901 3.81114H54.0395V5.93478H53V0.0652175H54.9901Z" fill="#0B0033"/>
<path d="M60.1463 2.87772C60.3832 2.87772 60.5905 2.8519 60.7682 2.80027C60.9459 2.74592 61.0939 2.6712 61.2124 2.57609C61.3309 2.48098 61.4197 2.36821 61.4789 2.23777C61.5382 2.10462 61.5678 1.95788 61.5678 1.79755C61.5678 1.4769 61.4523 1.23234 61.2213 1.06386C60.9903 0.89538 60.6408 0.811141 60.1729 0.811141H59.3289V2.87772H60.1463ZM63.1581 5.93478H62.2297C62.0461 5.93478 61.9128 5.86957 61.8299 5.73913L60.3373 3.76223C60.2869 3.69429 60.2321 3.64538 60.1729 3.61549C60.1137 3.5856 60.0248 3.57065 59.9064 3.57065H59.3289V5.93478H58.2894V0.0652175H60.1729C60.5934 0.0652175 60.9548 0.10462 61.2568 0.183424C61.5619 0.262228 61.8121 0.375 62.0076 0.521739C62.203 0.665761 62.3467 0.839674 62.4385 1.04348C62.5332 1.24728 62.5806 1.47418 62.5806 1.72418C62.5806 1.92799 62.5466 2.11821 62.4784 2.29484C62.4133 2.47147 62.317 2.63179 62.1897 2.77582C62.0653 2.91984 61.9113 3.04484 61.7277 3.15082C61.5441 3.25679 61.3353 3.33967 61.1013 3.39946C61.2287 3.47011 61.3383 3.56929 61.4301 3.69701L63.1581 5.93478Z" fill="#0B0033"/>
<path d="M69.728 3C69.728 3.43478 69.651 3.8356 69.497 4.20245C69.343 4.56929 69.1253 4.88587 68.844 5.15217C68.5656 5.41576 68.2295 5.62228 67.8356 5.77174C67.4447 5.9212 67.0093 5.99592 66.5296 5.99592C66.0528 5.99592 65.6174 5.9212 65.2235 5.77174C64.8326 5.62228 64.4965 5.41576 64.2152 5.15217C63.9338 4.88587 63.7161 4.56929 63.5621 4.20245C63.4081 3.8356 63.3311 3.43478 63.3311 3C63.3311 2.56522 63.4081 2.1644 63.5621 1.79755C63.7161 1.43071 63.9338 1.11413 64.2152 0.847826C64.4965 0.581522 64.8326 0.373641 65.2235 0.224185C65.6174 0.0747283 66.0528 0 66.5296 0C67.0093 0 67.4447 0.0747283 67.8356 0.224185C68.2295 0.373641 68.5656 0.581522 68.844 0.847826C69.1253 1.11413 69.343 1.43071 69.497 1.79755C69.651 2.1644 69.728 2.56522 69.728 3ZM68.6663 3C68.6663 2.66304 68.6159 2.36005 68.5153 2.09103C68.4175 1.82201 68.2754 1.59375 68.0888 1.40625C67.9052 1.21875 67.6816 1.07473 67.418 0.974185C67.1544 0.873641 66.8583 0.82337 66.5296 0.82337C66.2038 0.82337 65.9091 0.873641 65.6456 0.974185C65.382 1.07473 65.1569 1.21875 64.9703 1.40625C64.7838 1.59375 64.6401 1.82201 64.5394 2.09103C64.4387 2.36005 64.3884 2.66304 64.3884 3C64.3884 3.33967 64.4387 3.64402 64.5394 3.91304C64.6401 4.18207 64.7838 4.41033 64.9703 4.59783C65.1569 4.78261 65.382 4.92527 65.6456 5.02582C65.9091 5.12364 66.2038 5.17255 66.5296 5.17255C66.8583 5.17255 67.1544 5.12364 67.418 5.02582C67.6816 4.92527 67.9052 4.78261 68.0888 4.59783C68.2754 4.41033 68.4175 4.18207 68.5153 3.91304C68.6159 3.64402 68.6663 3.33967 68.6663 3Z" fill="#0B0033"/>
<path d="M75.971 3.04484V5.36821C75.3343 5.7894 74.5939 6 73.7499 6C73.2316 6 72.7622 5.92663 72.3417 5.77989C71.9241 5.63043 71.5673 5.42391 71.2711 5.16033C70.975 4.89402 70.7469 4.57745 70.587 4.2106C70.4271 3.84375 70.3471 3.44022 70.3471 3C70.3471 2.55707 70.4241 2.15217 70.5781 1.78533C70.7321 1.41576 70.9527 1.09918 71.24 0.835598C71.5273 0.569293 71.8738 0.36413 72.2795 0.220109C72.6852 0.0733696 73.1413 0 73.6477 0C73.9054 0 74.1438 0.0190218 74.3629 0.0570654C74.585 0.0923916 74.7909 0.142663 74.9804 0.20788C75.1699 0.273098 75.3447 0.351902 75.5046 0.444293C75.6645 0.536685 75.8111 0.639946 75.9444 0.754076L75.6467 1.19022C75.5993 1.25815 75.5386 1.30027 75.4646 1.31658C75.3906 1.33288 75.3106 1.31658 75.2247 1.26766C75.1388 1.22147 75.047 1.17255 74.9493 1.12092C74.8545 1.06929 74.7449 1.02174 74.6206 0.978261C74.4962 0.932065 74.3525 0.895381 74.1897 0.868207C74.0268 0.838315 73.8343 0.82337 73.6122 0.82337C73.2746 0.82337 72.9695 0.875 72.6971 0.978261C72.4276 1.0788 72.1966 1.22418 72.0041 1.4144C71.8116 1.6019 71.6635 1.83016 71.5599 2.09918C71.4562 2.36821 71.4044 2.66848 71.4044 3C71.4044 3.35054 71.4592 3.6644 71.5687 3.94158C71.6783 4.21603 71.8338 4.44973 72.0352 4.64266C72.2366 4.83288 72.4794 4.97826 72.7637 5.0788C73.051 5.17935 73.3708 5.22962 73.7232 5.22962C73.9868 5.22962 74.2208 5.2038 74.4251 5.15217C74.6324 5.10054 74.8353 5.02853 75.0337 4.93614V3.77038H74.1408C74.0727 3.77038 74.0194 3.75408 73.9809 3.72147C73.9424 3.68614 73.9231 3.6413 73.9231 3.58696V3.04484H75.971Z" fill="#0B0033"/>
<path d="M78.921 2.87772C79.1579 2.87772 79.3652 2.8519 79.5429 2.80027C79.7206 2.74592 79.8687 2.6712 79.9872 2.57609C80.1056 2.48098 80.1945 2.36821 80.2537 2.23777C80.3129 2.10462 80.3425 1.95788 80.3425 1.79755C80.3425 1.4769 80.227 1.23234 79.996 1.06386C79.765 0.89538 79.4156 0.811141 78.9477 0.811141H78.1036V2.87772H78.921ZM81.9329 5.93478H81.0044C80.8208 5.93478 80.6875 5.86957 80.6046 5.73913L79.112 3.76223C79.0617 3.69429 79.0069 3.64538 78.9477 3.61549C78.8884 3.5856 78.7996 3.57065 78.6811 3.57065H78.1036V5.93478H77.0641V0.0652175H78.9477C79.3682 0.0652175 79.7295 0.10462 80.0316 0.183424C80.3366 0.262228 80.5869 0.375 80.7823 0.521739C80.9778 0.665761 81.1214 0.839674 81.2132 1.04348C81.308 1.24728 81.3554 1.47418 81.3554 1.72418C81.3554 1.92799 81.3213 2.11821 81.2532 2.29484C81.188 2.47147 81.0918 2.63179 80.9644 2.77582C80.8401 2.91984 80.6861 3.04484 80.5025 3.15082C80.3188 3.25679 80.1101 3.33967 79.8761 3.39946C80.0034 3.47011 80.113 3.56929 80.2048 3.69701L81.9329 5.93478Z" fill="#0B0033"/>
<path d="M86.564 5.1644L86.5596 5.93478H82.5705V0.0652175H86.5596V0.835598H83.6144V2.60462H85.9688V3.35054H83.6144V5.1644H86.564Z" fill="#0B0033"/>
<path d="M90.9012 1.06793C90.8686 1.11685 90.8346 1.15353 90.799 1.17799C90.7635 1.19973 90.7191 1.2106 90.6658 1.2106C90.6095 1.2106 90.5458 1.18886 90.4747 1.14538C90.4066 1.1019 90.3207 1.05435 90.2171 1.00272C90.1164 0.94837 89.9965 0.899457 89.8573 0.855978C89.7181 0.809783 89.5522 0.786685 89.3597 0.786685C89.1821 0.786685 89.0251 0.807065 88.8889 0.847826C88.7556 0.888587 88.6431 0.945652 88.5513 1.01902C88.4594 1.09239 88.3899 1.17935 88.3425 1.27989C88.298 1.37772 88.2758 1.48505 88.2758 1.6019C88.2758 1.75136 88.3188 1.87636 88.4047 1.9769C88.4905 2.07473 88.6031 2.15897 88.7423 2.22962C88.8844 2.30027 89.0458 2.36277 89.2265 2.41712C89.4071 2.46875 89.5907 2.52446 89.7773 2.58424C89.9668 2.64402 90.1519 2.71196 90.3326 2.78804C90.5132 2.86413 90.6732 2.9606 90.8124 3.07745C90.9545 3.19429 91.0685 3.33696 91.1544 3.50543C91.2403 3.67391 91.2832 3.87908 91.2832 4.12092C91.2832 4.38179 91.2344 4.62636 91.1366 4.85462C91.0389 5.08288 90.8968 5.28261 90.7102 5.4538C90.5266 5.62228 90.2985 5.75543 90.0261 5.85326C89.7566 5.95109 89.4486 6 89.1021 6C88.8977 6 88.6978 5.98098 88.5024 5.94293C88.3099 5.90761 88.1248 5.85734 87.9471 5.79212C87.7724 5.72418 87.608 5.64266 87.454 5.54755C87.3 5.45245 87.1623 5.34647 87.0409 5.22962L87.343 4.7731C87.3696 4.73505 87.4037 4.70516 87.4451 4.68342C87.4866 4.66168 87.5325 4.65082 87.5828 4.65082C87.651 4.65082 87.7265 4.68071 87.8094 4.74049C87.8923 4.79755 87.9915 4.86141 88.107 4.93207C88.2255 5 88.3676 5.06386 88.5335 5.12364C88.6993 5.18071 88.8977 5.20924 89.1287 5.20924C89.5049 5.20924 89.7951 5.125 89.9994 4.95652C90.2067 4.78804 90.3104 4.55571 90.3104 4.25951C90.3104 4.09375 90.2674 3.95924 90.1816 3.85598C90.0957 3.75 89.9817 3.66168 89.8395 3.59103C89.7003 3.52038 89.5404 3.4606 89.3597 3.41168C89.1791 3.36277 88.9955 3.31114 88.8089 3.25679C88.6223 3.19973 88.4387 3.13451 88.2581 3.06114C88.0774 2.98505 87.916 2.88723 87.7739 2.76766C87.6347 2.64538 87.5221 2.49592 87.4362 2.31929C87.3504 2.13995 87.3074 1.91712 87.3074 1.65082C87.3074 1.43886 87.3518 1.2337 87.4407 1.03533C87.5325 0.836957 87.6643 0.661685 87.836 0.509511C88.0108 0.35462 88.2255 0.230979 88.4802 0.138587C88.7349 0.0461957 89.0251 0 89.3509 0C89.7181 0 90.0542 0.0529892 90.3592 0.158968C90.6672 0.264946 90.9323 0.415761 91.1544 0.611413L90.9012 1.06793Z" fill="#0B0033"/>
<path d="M95.618 1.06793C95.5854 1.11685 95.5513 1.15353 95.5158 1.17799C95.4803 1.19973 95.4358 1.2106 95.3825 1.2106C95.3263 1.2106 95.2626 1.18886 95.1915 1.14538C95.1234 1.1019 95.0375 1.05435 94.9339 1.00272C94.8332 0.94837 94.7132 0.899457 94.574 0.855978C94.4348 0.809783 94.269 0.786685 94.0765 0.786685C93.8988 0.786685 93.7419 0.807065 93.6056 0.847826C93.4724 0.888587 93.3598 0.945652 93.268 1.01902C93.1762 1.09239 93.1066 1.17935 93.0592 1.27989C93.0148 1.37772 92.9926 1.48505 92.9926 1.6019C92.9926 1.75136 93.0355 1.87636 93.1214 1.9769C93.2073 2.07473 93.3198 2.15897 93.459 2.22962C93.6012 2.30027 93.7626 2.36277 93.9432 2.41712C94.1239 2.46875 94.3075 2.52446 94.4941 2.58424C94.6836 2.64402 94.8687 2.71196 95.0494 2.78804C95.23 2.86413 95.3899 2.9606 95.5291 3.07745C95.6713 3.19429 95.7853 3.33696 95.8712 3.50543C95.9571 3.67391 96 3.87908 96 4.12092C96 4.38179 95.9511 4.62636 95.8534 4.85462C95.7557 5.08288 95.6135 5.28261 95.427 5.4538C95.2433 5.62228 95.0153 5.75543 94.7428 5.85326C94.4733 5.95109 94.1654 6 93.8189 6C93.6145 6 93.4146 5.98098 93.2192 5.94293C93.0267 5.90761 92.8416 5.85734 92.6639 5.79212C92.4891 5.72418 92.3248 5.64266 92.1708 5.54755C92.0168 5.45245 91.8791 5.34647 91.7577 5.22962L92.0597 4.7731C92.0864 4.73505 92.1204 4.70516 92.1619 4.68342C92.2034 4.66168 92.2493 4.65082 92.2996 4.65082C92.3677 4.65082 92.4432 4.68071 92.5262 4.74049C92.6091 4.79755 92.7083 4.86141 92.8238 4.93207C92.9423 5 93.0844 5.06386 93.2502 5.12364C93.4161 5.18071 93.6145 5.20924 93.8455 5.20924C94.2216 5.20924 94.5118 5.125 94.7162 4.95652C94.9235 4.78804 95.0271 4.55571 95.0271 4.25951C95.0271 4.09375 94.9842 3.95924 94.8983 3.85598C94.8124 3.75 94.6984 3.66168 94.5563 3.59103C94.4171 3.52038 94.2572 3.4606 94.0765 3.41168C93.8959 3.36277 93.7122 3.31114 93.5257 3.25679C93.3391 3.19973 93.1555 3.13451 92.9748 3.06114C92.7942 2.98505 92.6328 2.88723 92.4906 2.76766C92.3514 2.64538 92.2389 2.49592 92.153 2.31929C92.0671 2.13995 92.0242 1.91712 92.0242 1.65082C92.0242 1.43886 92.0686 1.2337 92.1575 1.03533C92.2493 0.836957 92.381 0.661685 92.5528 0.509511C92.7275 0.35462 92.9422 0.230979 93.1969 0.138587C93.4516 0.0461957 93.7419 0 94.0676 0C94.4348 0 94.771 0.0529892 95.076 0.158968C95.384 0.264946 95.6491 0.415761 95.8712 0.611413L95.618 1.06793Z" fill="#0B0033"/>
<path d="M139.093 37.8397H10.9887C8.11471 37.8397 5.35845 36.6986 3.32626 34.6674C1.29406 32.6363 0.152405 29.8815 0.152405 27.009C0.152405 24.1365 1.29406 21.3817 3.32626 19.3506C5.35845 17.3194 8.11471 16.1783 10.9887 16.1783H139.093C141.967 16.1783 144.723 17.3194 146.755 19.3506C148.787 21.3817 149.929 24.1365 149.929 27.009C149.929 29.8815 148.787 32.6363 146.755 34.6674C144.723 36.6986 141.967 37.8397 139.093 37.8397Z" fill="#FAFAFA"/>
<path d="M139.093 37.8391L139.925 37.782C140.74 37.7116 141.544 37.5541 142.326 37.3122C143.592 36.89 144.773 36.245 145.813 35.4076C147.227 34.2662 148.336 32.7915 149.04 31.116C149.438 30.1172 149.697 29.0683 149.808 27.9988C149.906 26.8155 149.816 25.6241 149.541 24.469C149.045 22.4327 147.961 20.5871 146.424 19.1615C144.887 17.7359 142.965 16.7932 140.897 16.4508C139.306 16.2869 137.705 16.236 136.107 16.2984H125.646L11.0011 16.3428C8.96216 16.3451 6.96652 16.9308 5.25006 18.0306C3.53361 19.1305 2.16812 20.6986 1.315 22.5495C0.461893 24.4004 0.156827 26.4567 0.435887 28.4754C0.714948 30.4941 1.56647 32.3907 2.88977 33.9411C4.60655 35.962 7.02161 37.263 9.65449 37.5851C10.9249 37.7312 12.2651 37.6613 13.5672 37.6804H40.0672L91.6125 37.7185L126.357 37.7693H135.802H138.26H139.099H138.26H135.802L126.389 37.9089L91.6442 37.9597L40.0989 37.9914H13.5672C12.2651 37.9914 10.9503 38.0422 9.61638 37.8962C7.56135 37.6366 5.62148 36.8021 4.02022 35.4888C2.41897 34.1755 1.22147 32.4368 0.565646 30.473C-0.0901786 28.5091 -0.17765 26.4001 0.31332 24.3888C0.80429 22.3775 1.85373 20.5457 3.34074 19.1045C5.39521 17.1166 8.14161 16.0036 11.0011 16L125.646 16.0508H136.107C137.716 15.992 139.327 16.0493 140.928 16.2222C142.435 16.4705 143.87 17.0376 145.14 17.8855C147.44 19.4098 149.073 21.7525 149.707 24.4373C149.979 25.6101 150.062 26.8187 149.954 28.0178C149.84 29.108 149.573 30.1765 149.16 31.1921C148.547 32.6609 147.62 33.9778 146.444 35.0504C145.267 36.123 143.871 36.9253 142.351 37.401C141.566 37.6382 140.756 37.7852 139.937 37.8391C139.385 37.8391 139.093 37.8391 139.093 37.8391Z" fill="#263238"/>
<path d="M82.5928 35.2679H11.0518C8.86184 35.2679 6.76152 34.3984 5.21296 32.8506C3.66439 31.3029 2.79443 29.2036 2.79443 27.0148C2.79443 24.8259 3.66439 22.7267 5.21296 21.1789C6.76152 19.6312 8.86184 18.7616 11.0518 18.7616H82.5928C84.7828 18.7616 86.8831 19.6312 88.4316 21.1789C89.9802 22.7267 90.8502 24.8259 90.8502 27.0148C90.8502 29.2036 89.9802 31.3029 88.4316 32.8506C86.8831 34.3984 84.7828 35.2679 82.5928 35.2679Z" fill="#0B0033"/>
<g opacity="0.4">
<path opacity="0.4" d="M13.4404 35.2679L23.705 18.7552H34.7064L24.6515 35.2679H13.4404Z" fill="white"/>
</g>
<g opacity="0.4">
<path opacity="0.4" d="M35.4941 35.2679L45.7651 18.7552H56.7602L46.7052 35.2679H35.4941Z" fill="white"/>
</g>
<g opacity="0.4">
<path opacity="0.4" d="M59.1743 35.2679L69.4389 18.7552H80.4403L70.379 35.2679H59.1743Z" fill="white"/>
</g>
</svg>
