<svg width="292" height="393" viewBox="0 0 292 393" fill="none" xmlns="http://www.w3.org/2000/svg">
<path d="M153.599 84.2532H17.1644V290.959H48.8143V115.128H153.42C175.414 115.477 193.474 133.269 193.474 154.725V238.454C193.474 259.909 175.593 277.701 153.42 278.05H115.869V185.949H84.2192V308.925H153.599C190.077 308.576 220.475 281.016 224.587 246.478H225.124V154.725C224.945 116.349 192.938 84.602 153.599 84.2532Z" fill="#FF2F51"/>
<path d="M100.135 147.217C81.8962 147.217 67.2335 161.695 67.2335 179.313C67.2335 196.931 82.075 211.409 100.135 211.409C118.374 211.409 133.037 196.931 133.037 179.313C133.037 161.695 118.195 147.217 100.135 147.217Z" fill="#FF2F51"/>
<path d="M32.9016 244.555C14.8415 244.555 0 259.033 0 276.825C0 294.618 14.8415 308.921 32.9016 308.921C51.1405 308.921 65.8032 294.443 65.8032 276.825C65.8032 259.207 51.1405 244.555 32.9016 244.555Z" fill="#FF2F51"/>
<path d="M292 141.989H291.642C289.139 109.195 274.834 78.6688 250.515 55.469C226.197 32.2691 194.726 18.6632 161.109 16.9189V16.7444H17.1644V47.6194H153.42C211.177 47.6194 259.098 93.3214 260.35 149.664V243.51C259.098 299.852 211.177 345.554 153.42 345.554H25.3897V376.429H153.42C227.091 376.429 287.53 319.912 291.642 249.092H291.821V149.489L292 141.989Z" fill="#FF2F51"/>
<path d="M32.9016 328.808C14.8415 328.808 0 343.286 0 360.904C0 378.522 14.8415 393 32.9016 393C51.1405 393 65.8032 378.522 65.8032 360.904C65.8032 343.286 51.1405 328.808 32.9016 328.808Z" fill="#FF2F51"/>
<path d="M32.9016 0C14.8415 0 0 14.4781 0 32.096C0 49.8884 14.8415 64.1921 32.9016 64.1921C51.1405 64.1921 65.8032 49.714 65.8032 32.096C65.982 14.4781 51.1405 0 32.9016 0Z" fill="#FF2F51"/>
</svg>
