<svg width="500" height="500" viewBox="0 0 500 500" fill="none" xmlns="http://www.w3.org/2000/svg">
<path d="M259.369 110.62H91.1636V367.292H130.184V148.958H259.149C286.265 149.391 308.53 171.485 308.53 198.126V302.095C308.53 328.737 286.485 350.83 259.149 351.263H212.854V236.898H173.833V389.602H259.369C304.342 389.169 341.819 354.946 346.889 312.059H347.551V198.126C347.33 150.474 307.869 111.053 259.369 110.62Z" fill="white"/>
<path d="M430 182.314H429.559C426.473 141.593 408.837 103.688 378.855 74.8798C348.873 46.0719 310.074 29.177 268.628 27.011V26.7944H91.1636V65.1328H259.149C330.355 65.1328 389.437 121.882 390.98 191.844V308.376C389.437 378.338 330.355 435.087 259.149 435.087H101.304V473.425H259.149C349.976 473.425 424.489 403.247 429.559 315.307H429.78V191.628L430 182.314Z" fill="white"/>
<path d="M193.455 188.806C170.968 188.806 152.891 206.784 152.891 228.661C152.891 250.537 171.189 268.515 193.455 268.515C215.941 268.515 234.018 250.537 234.018 228.661C234.018 206.784 215.72 188.806 193.455 188.806Z" fill="white"/>
<path d="M110.563 309.663C88.2976 309.663 70 327.641 70 349.734C70 371.828 88.2976 389.589 110.563 389.589C133.05 389.589 151.127 371.611 151.127 349.734C151.127 327.858 133.05 309.663 110.563 309.663Z" fill="white"/>
<path d="M110.563 414.291C88.2976 414.291 70 432.269 70 454.146C70 476.022 88.2976 494 110.563 494C133.05 494 151.127 476.022 151.127 454.146C151.127 432.269 133.05 414.291 110.563 414.291Z" fill="white"/>
<path d="M110.563 6C88.2976 6 70 23.9779 70 45.8546C70 67.9479 88.2976 85.7091 110.563 85.7091C133.05 85.7091 151.127 67.7313 151.127 45.8546C151.347 23.9779 133.05 6 110.563 6Z" fill="white"/>
</svg>
