<svg width="30" height="30" viewBox="0 0 30 30" fill="none" xmlns="http://www.w3.org/2000/svg">
<path d="M15 30C6.83823 30 0 23.3824 0 15C0 6.83824 6.61765 0 15 0C23.1618 0 30 6.61765 30 15C30 23.1618 23.3824 30 15 30Z" fill="#FF2F51"/>
<path fill-rule="evenodd"  d="M12.5753 15.0012V23.6041C12.5753 23.8247 12.5753 23.8247 12.7958 23.8247H16.1047C16.3253 23.8247 16.3253 23.8247 16.3253 23.6041V14.7806H18.7517C18.9723 14.7806 18.9723 14.7806 18.9723 14.56L19.1929 11.9129C19.1929 11.6923 19.1929 11.6923 18.9723 11.6923H16.3253V9.92762C16.3253 9.48644 16.7664 9.04527 17.2076 9.04527H18.9723C19.1929 9.04527 19.1929 9.04527 19.1929 8.82468V6.17762C19.1929 5.95703 19.1929 5.95703 18.9723 5.95703H15.8841C14.1194 5.95703 12.5753 7.50115 12.5753 9.26585V11.9129H11.0311C10.8105 11.9129 10.8105 11.9129 10.8105 12.1335V14.7806C10.8105 15.0011 10.8105 15.0012 11.0311 15.0012H12.5753Z" fill="white"/>
</svg>
