<svg width="30" height="30" viewBox="0 0 30 30" fill="none" xmlns="http://www.w3.org/2000/svg">
<path d="M27.7931 14.7789C27.7931 22.0583 22.0578 27.7936 14.7784 27.7936C7.49897 27.7936 1.76367 22.0583 1.76367 14.7789C1.76367 7.49945 7.49897 1.76416 14.7784 1.76416C22.0578 1.76416 27.7931 7.72004 27.7931 14.7789Z" fill="white"/>
<path d="M14.9973 30C6.7152 30 0 23.2836 0 15C0 6.71642 6.7152 0 14.9973 0C23.2794 0 29.9946 6.71642 29.9946 15C30.2184 23.2836 23.5032 30 14.9973 30ZM20.1456 8.95522C19.4741 8.95522 19.0264 9.40299 19.0264 10.0746C19.0264 10.5224 19.4741 10.9701 20.1456 10.9701C20.8171 10.9701 21.2648 10.5224 21.2648 9.85075C21.2648 9.40299 20.8171 8.95522 20.1456 8.95522ZM15.2211 10.2985C12.535 10.2985 10.5205 12.3134 10.5205 15C10.5205 17.6866 12.535 19.7015 15.2211 19.7015C17.9072 19.7015 19.9218 17.6866 19.9218 15C19.9218 12.3134 17.6834 10.2985 15.2211 10.2985ZM15.2211 17.9104C13.6542 17.9104 12.3112 16.5672 12.3112 15C12.3112 13.4328 13.6542 12.0896 15.2211 12.0896C16.788 12.0896 18.131 13.4328 18.131 15C18.131 16.5672 16.788 17.9104 15.2211 17.9104ZM24.6224 10.9701C24.6224 7.83582 22.1602 5.14925 18.8026 5.14925H11.192C8.05824 5.14925 5.37216 7.61194 5.37216 10.9701V18.5821C5.37216 21.7164 7.8344 24.403 11.192 24.403H18.8026C21.9363 24.403 24.6224 21.9403 24.6224 18.5821V10.9701ZM22.8317 18.5821C22.8317 20.8209 21.041 22.6119 18.8026 22.6119H11.192C8.9536 22.6119 7.16288 20.8209 7.16288 18.5821V10.9701C7.16288 8.73134 8.9536 6.9403 11.192 6.9403H18.8026C21.041 6.9403 22.8317 8.73134 22.8317 10.9701V18.5821Z" fill="#FF2F51"/>
</svg>
