<svg width="30" height="30" viewBox="0 0 30 30" fill="none" xmlns="http://www.w3.org/2000/svg">
<path d="M15 30C6.83823 30 0 23.3824 0 15C0 6.83824 6.61764 0 15 0C23.1618 0 30 6.61765 30 15C29.7794 23.1618 23.1618 30 15 30Z" fill="#222222"/>
<path d="M11.0884 11.1318H8.07324V21.4641H11.0884V11.1318Z" fill="white"/>
<path d="M9.58715 6.61816C9.14911 6.61816 8.72905 6.79217 8.41931 7.10191C8.10957 7.41165 7.93555 7.83174 7.93555 8.26978C7.93555 8.70782 8.10957 9.12793 8.41931 9.43767C8.72905 9.74741 9.14911 9.92141 9.58715 9.92141C10.0252 9.92141 10.4454 9.74741 10.7551 9.43767C11.0649 9.12793 11.2388 8.70782 11.2388 8.26978C11.2388 7.83174 11.0649 7.41165 10.7551 7.10191C10.4454 6.79217 10.0252 6.61816 9.58715 6.61816Z" fill="white"/>
<path d="M20.4943 11.0911C19.7514 10.8369 18.9505 10.805 18.1897 10.9995C17.4289 11.1939 16.7415 11.6062 16.2117 12.1858V12.1858L15.8275 10.8223H13.062V21.4618H16.3077V15.1626C16.3077 14.7093 16.4878 14.2745 16.8083 13.954C17.1288 13.6334 17.5636 13.4534 18.0169 13.4534V13.4534C18.4703 13.4534 18.905 13.6334 19.2256 13.954C19.5461 14.2745 19.7262 14.7093 19.7262 15.1626V21.4618H22.9526V16.1421C22.9526 16.1421 23.2983 11.8785 20.4943 11.0911Z" fill="white"/>
</svg>
