<svg width="30" height="30" viewBox="0 0 30 30" fill="none" xmlns="http://www.w3.org/2000/svg">
<path d="M15 30C6.61765 30 0 23.1618 0 15C0 6.61765 6.61765 0 15 0C23.1618 0 30 6.61765 30 15C30 23.1618 23.1618 30 15 30Z" fill="#222222"/>
<path d="M23.6022 9.4859C22.9405 9.70649 22.4993 9.92707 21.8375 9.92707C22.0581 9.92707 22.4993 9.26531 22.7199 9.26531C22.9405 9.04472 23.1611 8.60354 23.3817 8.16237C22.4993 8.38296 21.8375 8.60354 21.1758 8.82413C21.1758 8.82413 21.1758 8.82413 20.9552 8.82413L20.7346 8.60354C20.514 8.38296 20.0728 8.16237 19.6317 7.94178C19.1905 7.94178 18.7493 7.72119 18.0875 7.72119C17.6464 7.72119 17.2052 7.94178 16.764 8.16237C16.3228 8.38296 15.8817 8.82413 15.4405 9.26531C15.2199 9.4859 14.9993 10.1477 14.7787 10.5888C14.7787 11.03 14.7787 11.6918 14.7787 12.133C11.9111 11.6918 9.4846 10.8094 7.49931 8.60354H7.27872C6.39637 9.92707 6.83755 11.9124 7.94049 13.0153C8.16108 13.0153 8.16108 13.0153 8.38166 13.2359C8.38166 13.2359 7.7199 13.2359 7.05813 12.7947H6.83755C6.83755 13.0153 6.83755 13.0153 6.83755 13.2359C7.05813 14.5594 7.94049 15.6624 9.04343 16.1035C9.26402 16.1035 9.26402 16.3241 9.4846 16.3241C9.26402 16.3241 8.82284 16.3241 8.16108 16.3241C8.16108 16.3241 7.94049 16.3241 8.16108 16.5447C8.82284 18.3094 9.92578 18.7506 11.0287 18.9712C11.2493 18.9712 11.2493 18.9712 11.4699 18.9712C11.0287 19.633 9.92578 19.8535 9.4846 20.0741C8.38166 20.5153 7.49931 20.5153 6.39637 20.5153C6.17578 20.5153 6.17578 20.5153 6.17578 20.5153C6.39637 20.7359 6.61696 20.7359 6.83755 20.9565C7.49931 21.1771 8.16108 21.6182 8.82284 21.8388C12.3523 22.7212 16.3228 22.0594 19.1905 19.4124C21.3964 17.4271 22.0581 14.3388 22.0581 11.4712C22.0581 11.4712 22.0581 11.2506 22.0581 11.2506C22.4993 10.8094 22.9405 10.3683 23.3817 9.70649C23.6023 9.70649 23.6022 9.4859 23.6022 9.4859Z" fill="white"/>
</svg>
