<svg width="75" height="85" viewBox="0 0 75 85" fill="none" xmlns="http://www.w3.org/2000/svg">
<path d="M30.9539 78.3209C30.9539 79.2497 30.1983 80.0051 29.2631 80.0051C28.3278 80.0051 27.5723 79.2497 27.5723 78.3209C27.5723 77.3922 28.3278 76.6367 29.2631 76.6367C30.1983 76.6367 30.9539 77.3922 30.9539 78.3209Z" stroke="#0B0033"/>
<path d="M20.3416 55.6103C19.7122 55.6103 18.9705 55.493 18.2512 55.0772C17.1049 54.4054 16.3969 53.1686 16.1271 51.3986C16.1046 51.2067 15.9248 51.0574 15.7225 51.0574H4.98969C2.78693 51.0574 1 49.362 1 47.2722V38.8594C1 36.7696 2.78693 35.0742 4.98969 35.0742H22.7579C24.9606 35.0742 26.7476 36.7696 26.7476 38.8594V47.3148C26.7476 49.3727 24.9831 51.068 22.8141 51.1L21.0159 51.1214C20.7911 51.1214 20.6225 51.292 20.6113 51.5052C20.6001 52.4329 20.7124 53.3818 21.6452 54.0322C21.9824 54.2348 22.1847 54.544 22.1735 54.8426C22.1622 55.0558 22.0498 55.2478 21.8475 55.3544C21.8251 55.3651 21.8138 55.3757 21.7914 55.3757C21.634 55.4504 21.0721 55.6103 20.3416 55.6103ZM5.00094 35.714C3.16905 35.714 1.68556 37.1214 1.68556 38.8594V47.2722C1.68556 49.0102 3.16905 50.4176 5.00094 50.4176H15.7338C16.2732 50.4176 16.7228 50.8015 16.8014 51.3026C17.0375 52.8807 17.6443 53.9683 18.6108 54.5334C19.5774 55.0985 20.7686 55.0345 21.5329 54.8106C21.5104 54.7893 21.4542 54.672 21.2856 54.5654C20.0943 53.723 19.9482 52.5501 19.9707 51.5052C19.982 50.9508 20.4427 50.5029 21.0384 50.4923L22.8365 50.4709C24.6347 50.4496 26.107 49.0315 26.107 47.3255V38.8701C26.107 37.1321 24.6235 35.7246 22.7916 35.7246H5.00094V35.714Z" fill="#0B0033" stroke="#0B0033" stroke-width="0.2"/>
<path d="M13.9359 47.016C13.7898 47.016 13.6325 46.984 13.4976 46.9094C12.7109 46.5042 10.1148 45.0221 9.55287 43.0175C9.31686 42.1752 9.46296 41.3435 9.96869 40.5438C10.2834 40.0533 10.7441 39.7015 11.2499 39.5415C12.5311 39.1577 13.4302 40.0427 13.8685 40.6184C14.3405 40.0213 15.307 39.083 16.577 39.4242C16.9141 39.5095 17.2288 39.7015 17.521 39.9787C18.2066 40.6398 18.4763 41.4714 18.274 42.4097C17.8357 44.5316 15.2733 46.5468 14.2843 46.9413C14.1719 46.9946 14.0483 47.016 13.9359 47.016ZM11.8568 40.096C11.7332 40.096 11.5983 40.1173 11.4634 40.16C11.115 40.2666 10.7891 40.5225 10.5531 40.885C10.126 41.5354 10.0137 42.1858 10.2047 42.8576C10.6992 44.6276 13.1043 45.9817 13.8235 46.3549C13.891 46.3869 13.9584 46.3869 14.0258 46.3656C14.9362 46.003 17.2401 44.0944 17.6222 42.3031C17.7795 41.5674 17.5884 40.9596 17.049 40.4478C16.8355 40.2452 16.6219 40.1173 16.3971 40.0533C15.3182 39.7654 14.4529 40.917 14.2169 41.2795C14.1382 41.3968 14.0034 41.4608 13.8572 41.4608C13.7111 41.4608 13.5763 41.3861 13.5088 41.2689C13.3178 40.9596 12.7221 40.096 11.8568 40.096Z" fill="#0B0033" stroke="#0B0033" stroke-width="0.2"/>
<path d="M55.9172 30.3265H31.3847C30.5747 30.3265 29.9189 29.6745 29.9189 28.8691V13.8149C29.9189 13.0095 30.5747 12.3574 31.3847 12.3574H55.9172C56.7273 12.3574 57.383 13.0095 57.383 13.8149V28.8691C57.383 29.6553 56.7273 30.3265 55.9172 30.3265ZM31.3847 13.1054C30.999 13.1054 30.6904 13.4122 30.6904 13.7957V28.8499C30.6904 29.2334 30.999 29.5403 31.3847 29.5403H55.9172C56.303 29.5403 56.6116 29.2334 56.6116 28.8499V13.7957C56.6116 13.4122 56.303 13.1054 55.9172 13.1054H31.3847Z" fill="#0B0033" stroke="#0B0033" stroke-width="0.2"/>
<path d="M43.6519 23.0587C43.4398 23.0587 43.2276 23.0011 43.0541 22.8669L30.8649 13.6426C30.6913 13.5084 30.6721 13.2783 30.7878 13.1057C30.9228 12.9331 31.1542 12.9139 31.3278 13.029L43.5169 22.2532C43.5941 22.3108 43.6905 22.3108 43.7676 22.2532L55.9568 13.029C56.1304 12.8947 56.3618 12.9331 56.4968 13.1057C56.6318 13.2783 56.5932 13.5084 56.4196 13.6426L44.2305 22.8669C44.057 23.0011 43.8448 23.0587 43.6519 23.0587Z" fill="#0B0033" stroke="#0B0033" stroke-width="0.2"/>
<path d="M31.1351 29.7702C31.0001 29.7702 30.8844 29.7127 30.8073 29.5976C30.6916 29.425 30.7494 29.1757 30.923 29.0607L42.3599 21.6966C42.5335 21.5815 42.7842 21.6391 42.9 21.8117C43.0157 21.9843 42.9578 22.2336 42.7842 22.3486L31.3473 29.7127C31.2894 29.751 31.2123 29.7702 31.1351 29.7702Z" fill="#0B0033" stroke="#0B0033" stroke-width="0.2"/>
<path d="M56.1497 29.7702C56.0726 29.7702 56.0147 29.751 55.9376 29.7127L44.5006 22.3486C44.327 22.2336 44.2692 22.0034 44.3849 21.8117C44.5006 21.6391 44.7321 21.5815 44.9249 21.6966L56.3619 29.0607C56.5355 29.1757 56.5933 29.4059 56.4776 29.5976C56.4004 29.7127 56.2654 29.7702 56.1497 29.7702Z" fill="#0B0033" stroke="#0B0033" stroke-width="0.2"/>
<path d="M53.3622 59.7764V30.2684M53.1414 66.5263L53.311 79.9495C53.3392 82.1782 51.5402 84 49.3113 84H9.16455C6.95541 84 5.16455 82.2091 5.16455 80V50.8M5.16455 35.5105V5C5.16455 2.79086 6.95541 1 9.16455 1H49.3622C51.5713 1 53.3622 2.79086 53.3622 5V12.7947" stroke="#0B0033"/>
<path d="M49.857 54.1854V29.832M49.857 62.7072V68.6425C49.857 70.8516 48.0661 72.6425 45.857 72.6425H12.6699C10.4608 72.6425 8.66992 70.8516 8.66992 68.6425V50.8004M8.66992 35.0741V8.49512C8.66992 6.28598 10.4608 4.49512 12.6699 4.49512H45.857C48.0661 4.49512 49.857 6.28598 49.857 8.49512V12.7951" stroke="#0B0033"/>
<path d="M72.6202 81.533C73.4859 80.6552 73.9438 79.5215 73.9229 78.2831C73.9027 77.0823 73.4064 75.927 72.5483 75.0781C72.4737 75.0042 72.3624 74.931 72.2878 74.8572C69.907 72.9076 54.5424 60.2524 52.4595 58.5606C52.6966 57.393 52.4918 56.1202 51.5578 55.1224C48.8312 52.2402 42.5892 51.9317 42.3325 51.936C42.1858 51.9385 42.0404 52.016 41.9695 52.1673C41.8987 52.3186 41.9379 52.4681 42.0498 52.5788C44.0619 54.422 43.9019 55.8135 43.778 57.1668C43.654 58.5202 43.5307 59.9111 45.4637 61.4177C46.7271 62.3725 47.9413 62.5774 49.0011 62.3345C53.8252 67.7715 60.7056 75.5014 65.9414 81.4195C66.8013 82.3811 67.9478 82.9249 69.2321 82.941C70.5164 82.957 71.7552 82.4483 72.6202 81.533ZM52.9829 65.6836L56.0847 62.5162C56.717 63.0312 56.2706 62.6633 58.2422 64.2819L54.8527 67.7919C54.0674 66.9042 54.4417 67.3483 52.9829 65.6836ZM45.9304 60.8093C44.3319 59.5599 44.4248 58.5448 44.5494 57.229C44.6747 55.9507 44.7967 54.4848 43.3 52.7456C45.1376 52.9401 49.1473 53.5862 51.0525 55.6188C52.3969 57.0226 51.8828 59.1708 50.7306 60.4663C49.433 61.8393 47.6403 62.132 45.9304 60.8093ZM51.072 61.1362C51.5773 60.6398 51.9706 60.0326 52.216 59.3529L55.4896 62.0382L52.4967 65.1287L49.7669 62.0589C50.1671 61.8645 50.6756 61.5557 51.072 61.1362ZM66.4827 80.885L55.3017 68.3099L58.7633 64.7236L71.8211 75.4656C71.8957 75.5394 71.9697 75.5757 72.0443 75.6495C72.7898 76.3502 73.1724 77.2822 73.1894 78.2954C73.2065 79.3086 72.8188 80.2535 72.0979 81.0163C71.3404 81.7796 70.3204 82.2096 69.2561 82.1899C68.1919 82.1701 67.1934 81.6989 66.4827 80.885Z" fill="#0B0033" stroke="#0B0033" stroke-width="0.2"/>
</svg>
