<svg width="93" height="79" viewBox="0 0 93 79" fill="none" xmlns="http://www.w3.org/2000/svg">
<path d="M52.9256 6.93145C52.9256 10.4838 50.0484 13.3629 46.5002 13.3629C42.9519 13.3629 40.0747 10.4838 40.0747 6.93145C40.0747 3.37905 42.9519 0.5 46.5002 0.5C50.0484 0.5 52.9256 3.37905 52.9256 6.93145Z" stroke="#0B0033"/>
<path d="M59.4857 29.0735C59.5032 29.3098 59.3081 29.5358 59.0212 29.5358H46.5001L33.979 29.5358C33.6922 29.5358 33.497 29.3098 33.5145 29.0735C33.744 25.9687 35.0786 23.0363 37.293 20.82C39.7349 18.3759 43.0468 17.0029 46.5001 17.0029C49.9534 17.0029 53.2653 18.3759 55.7073 20.82C57.9217 23.0363 59.2562 25.9687 59.4857 29.0735Z" stroke="#0B0033"/>
<path d="M85.9046 47.242C85.9046 50.7944 83.0274 53.6734 79.4792 53.6734C75.9309 53.6734 73.0537 50.7944 73.0537 47.242C73.0537 43.6896 75.9309 40.8105 79.4792 40.8105C83.0274 40.8105 85.9046 43.6896 85.9046 47.242Z" stroke="#0B0033"/>
<path d="M92.4647 69.385C92.4822 69.6214 92.2871 69.8473 92.0002 69.8473H79.4791L66.958 69.8473C66.6712 69.8473 66.476 69.6214 66.4935 69.385C66.723 66.2802 68.0576 63.3478 70.272 61.1315C72.7139 58.6874 76.0258 57.3145 79.4791 57.3145C82.9324 57.3145 86.2443 58.6874 88.6863 61.1315C90.9007 63.3478 92.2352 66.2802 92.4647 69.385Z" stroke="#0B0033"/>
<path d="M19.9466 47.242C19.9466 50.7944 17.0694 53.6734 13.5212 53.6734C9.97288 53.6734 7.0957 50.7944 7.0957 47.242C7.0957 43.6896 9.97288 40.8105 13.5212 40.8105C17.0694 40.8105 19.9466 43.6896 19.9466 47.242Z" stroke="#0B0033"/>
<path d="M26.5067 69.385C26.5242 69.6214 26.3291 69.8473 26.0422 69.8473H13.5211L1 69.8473C0.71316 69.8473 0.518038 69.6214 0.535511 69.385C0.765042 66.2802 2.09958 63.3478 4.31395 61.1315C6.75592 58.6874 10.0678 57.3145 13.5211 57.3145C16.9744 57.3145 20.2863 58.6874 22.7283 61.1315C24.9426 63.3478 26.2772 66.2802 26.5067 69.385Z" stroke="#0B0033"/>
<path d="M13.2328 32.4941C13.4359 32.6812 13.7521 32.6682 13.9391 32.465L16.9857 29.1538C17.1727 28.9506 17.1596 28.6341 16.9566 28.447C16.7535 28.2598 16.4373 28.2728 16.2503 28.476L13.5422 31.4193L10.6006 28.7083C10.3975 28.5212 10.0813 28.5342 9.89434 28.7374C9.70738 28.9406 9.72045 29.257 9.92353 29.4442L13.2328 32.4941ZM29.091 10.9088C24.9096 11.5478 20.809 14.4554 17.814 18.3638C14.8152 22.2772 12.8704 27.2632 13.072 32.1467L14.0707 32.1056C13.8808 27.5047 15.7182 22.7428 18.6072 18.9727C21.5 15.1976 25.3928 12.486 29.2421 11.8978L29.091 10.9088Z" fill="#0B0033"/>
<path d="M63.6411 11.2506C63.4106 11.4026 63.3469 11.7129 63.4988 11.9435L65.9739 15.7021C66.1258 15.9327 66.4357 15.9965 66.6662 15.8444C66.8967 15.6924 66.9604 15.3821 66.8085 15.1515L64.6084 11.8105L67.947 9.60796C68.1775 9.45591 68.2412 9.14567 68.0893 8.91502C67.9374 8.68438 67.6275 8.62066 67.397 8.77272L63.6411 11.2506ZM80.7408 31.8645C81.1308 27.649 79.3018 22.9642 76.2354 19.1116C73.165 15.2541 68.8003 12.1614 64.0167 11.1782L63.8155 12.1582C68.3222 13.0845 72.4956 16.0188 75.4535 19.735C78.4153 23.4562 80.1045 27.8917 79.7455 31.7724L80.7408 31.8645Z" fill="#0B0033"/>
<path d="M59.6901 73.6603C59.7172 73.3855 59.5163 73.1408 59.2415 73.1137L54.7632 72.6729C54.4884 72.6458 54.2436 72.8467 54.2166 73.1215C54.1895 73.3963 54.3904 73.641 54.6652 73.6681L58.646 74.0599L58.2541 78.0407C58.2271 78.3155 58.4279 78.5602 58.7027 78.5872C58.9775 78.6143 59.2222 78.4134 59.2493 78.1386L59.6901 73.6603ZM32.9219 73.9688C35.9476 76.9272 40.7353 78.4563 45.6566 78.4992C50.5842 78.5422 55.7336 77.0971 59.5098 73.9978L58.8753 73.2248C55.3178 76.1447 50.4121 77.5406 45.6653 77.4992C40.9123 77.4578 36.4063 75.9772 33.621 73.2538L32.9219 73.9688Z" fill="#0B0033"/>
</svg>
