<svg width="87" height="87" viewBox="0 0 87 87" fill="none" xmlns="http://www.w3.org/2000/svg">
<path d="M39.3197 86.0003C60.4832 86.0003 77.6395 68.9248 77.6395 47.861C77.6395 26.7972 60.4832 9.72168 39.3197 9.72168C18.1563 9.72168 1 26.7972 1 47.861C1 68.9248 18.1563 86.0003 39.3197 86.0003Z" stroke="#0B0033" stroke-miterlimit="10" stroke-linecap="round" stroke-linejoin="round"/>
<path d="M39.3203 47.4609L80.0089 7.10254" stroke="#0B0033" stroke-miterlimit="10" stroke-linecap="round" stroke-linejoin="round"/>
<path d="M86.0002 7.79574L77.2214 16.5331L71.0903 15.8397L70.3936 9.73738L79.1723 1L79.869 7.10229L86.0002 7.79574Z" stroke="#0B0033" stroke-miterlimit="10" stroke-linecap="round" stroke-linejoin="round"/>
<path d="M39.119 49.8413C40.3289 49.8413 41.3097 48.8651 41.3097 47.6609C41.3097 46.4567 40.3289 45.4805 39.119 45.4805C37.9091 45.4805 36.9282 46.4567 36.9282 47.6609C36.9282 48.8651 37.9091 49.8413 39.119 49.8413Z" fill="#0B0033"/>
<path d="M39.3255 73.8011C53.7166 73.8011 65.3829 62.1897 65.3829 47.8664C65.3829 33.543 53.7166 21.9316 39.3255 21.9316C24.9344 21.9316 13.2681 33.543 13.2681 47.8664C13.2681 62.1897 24.9344 73.8011 39.3255 73.8011Z" stroke="#0B0033" stroke-miterlimit="10" stroke-linecap="round" stroke-linejoin="round"/>
<path d="M39.2937 61.5287C31.219 61.5287 24.6597 55.0003 24.6597 46.9636C24.6597 38.9268 31.219 32.3984 39.2937 32.3984C47.3684 32.3984 53.9277 38.9268 53.9277 46.9636C53.9277 55.0003 47.3684 61.5287 39.2937 61.5287ZM39.2937 33.2089C31.6713 33.2089 25.4739 39.3771 25.4739 46.9636C25.4739 54.55 31.6713 60.7183 39.2937 60.7183C46.9161 60.7183 53.1135 54.55 53.1135 46.9636C53.1135 39.3771 46.9161 33.2089 39.2937 33.2089Z" fill="#0B0033" stroke="#0B0033" stroke-width="0.2"/>
<path d="M53.5206 47.369H25.0668C24.8406 47.369 24.6597 47.1889 24.6597 46.9638C24.6597 46.7387 24.8406 46.5586 25.0668 46.5586H53.5206C53.7468 46.5586 53.9277 46.7387 53.9277 46.9638C53.9277 47.1889 53.7468 47.369 53.5206 47.369Z" fill="#0B0033" stroke="#0B0033" stroke-width="0.2"/>
<path d="M39.2943 61.5287C39.0682 61.5287 38.8872 61.3486 38.8872 61.1235V32.8037C38.8872 32.5785 39.0682 32.3984 39.2943 32.3984C39.5205 32.3984 39.7015 32.5785 39.7015 32.8037V61.101C39.7015 61.3261 39.5205 61.5287 39.2943 61.5287Z" fill="#0B0033" stroke="#0B0033" stroke-width="0.2"/>
<path d="M39.2941 61.5294C39.2036 61.5294 39.1132 61.5069 39.0453 61.4394C33.7979 57.1846 31.1289 52.5022 31.1289 47.482C31.1289 38.9951 38.7286 32.7593 39.0453 32.4892C39.2263 32.3541 39.4751 32.3766 39.6108 32.5567C39.7465 32.7368 39.7239 32.9844 39.5429 33.1195C39.4751 33.187 31.9205 39.4003 31.9205 47.482C31.9205 52.232 34.4764 56.6894 39.5429 60.7865C39.7239 60.9216 39.7465 61.1917 39.6108 61.3493C39.5203 61.4619 39.4072 61.5294 39.2941 61.5294Z" fill="#0B0033" stroke="#0B0033" stroke-width="0.2"/>
<path d="M39.2936 61.5293C39.1805 61.5293 39.0674 61.4843 38.9769 61.3717C38.8412 61.1916 38.8638 60.944 39.0447 60.8089C44.1112 56.7118 46.6671 52.232 46.6671 47.5045C46.6671 39.4002 39.1126 33.187 39.0447 33.142C38.8638 33.0069 38.8412 32.7367 38.9769 32.5792C39.1126 32.4216 39.384 32.3765 39.5423 32.5116C39.859 32.7818 47.4587 39.0175 47.4587 47.5045C47.4587 52.5021 44.7898 57.1846 39.5423 61.4618C39.4745 61.4843 39.384 61.5293 39.2936 61.5293Z" fill="#0B0033" stroke="#0B0033" stroke-width="0.2"/>
<path d="M28.7309 56.8464C28.6404 56.8464 28.5726 56.8239 28.5047 56.7788C28.3238 56.6438 28.3011 56.3961 28.4369 56.216C28.4369 56.1935 28.4595 56.1935 28.4821 56.171C29.4547 55.113 38.1627 46.4009 50.2183 56.0359C50.3992 56.171 50.4218 56.4412 50.2861 56.5987C50.1504 56.7563 49.879 56.8014 49.7206 56.6663C38.2306 47.4815 29.9975 55.7433 29.0928 56.7113C28.9797 56.8013 28.844 56.8464 28.7309 56.8464Z" fill="#0B0033" stroke="#0B0033" stroke-width="0.2"/>
<path d="M38.9771 42.3711C32.9832 42.3711 29.0703 38.4315 28.4596 37.7562C28.437 37.7336 28.437 37.7337 28.4143 37.7111C28.2786 37.5311 28.3239 37.2834 28.4822 37.1484C28.6405 37.0133 28.9119 37.0583 29.0477 37.2158C29.9524 38.1839 38.1628 46.4457 49.6755 37.2609C49.8565 37.1258 50.1053 37.1483 50.241 37.3284C50.3767 37.5085 50.3541 37.7561 50.1731 37.8912C45.9887 41.2455 42.1889 42.3711 38.9771 42.3711Z" fill="#0B0033" stroke="#0B0033" stroke-width="0.2"/>
</svg>
