<svg width="63" height="86" viewBox="0 0 63 86" fill="none" xmlns="http://www.w3.org/2000/svg">
<path d="M41.622 49.8115C41.622 49.8115 36.9301 53.2687 31.6208 53.2687C25.6942 53.2687 21.6197 49.8115 21.6197 49.8115C9.27256 49.8115 1 59.8127 1 72.1598V80.4323C1 83.0252 3.09899 85.1242 5.69188 85.1242H57.3028C59.8957 85.1242 61.9947 83.0252 61.9947 80.4323V72.1598C62.2416 59.6892 53.9691 49.8115 41.622 49.8115Z" stroke="black" stroke-miterlimit="10" stroke-linecap="round" stroke-linejoin="round"/>
<path d="M45.6969 50.6641C45.6969 50.6641 38.7825 71.7776 31.8682 75.6052" stroke="black" stroke-miterlimit="10" stroke-linecap="round" stroke-linejoin="round"/>
<path d="M17.915 50.6641C17.915 50.6641 24.8294 71.7776 31.7438 75.6052" stroke="black" stroke-miterlimit="10" stroke-linecap="round" stroke-linejoin="round"/>
<path d="M32.5 53.5C32.5 53.5 34.2138 55.2333 42.6098 57.7027" stroke="black" stroke-miterlimit="10" stroke-linecap="round" stroke-linejoin="round"/>
<path d="M31 53.5C31 53.5 29.399 55.2333 21.0029 57.7027" stroke="black" stroke-miterlimit="10" stroke-linecap="round" stroke-linejoin="round"/>
<path d="M41.3748 49.812L39.3993 42.2803" stroke="black" stroke-miterlimit="10" stroke-linecap="round" stroke-linejoin="round"/>
<path d="M21.9899 49.812L23.9654 42.2803" stroke="black" stroke-miterlimit="10" stroke-linecap="round" stroke-linejoin="round"/>
<path d="M43.5001 27.4998C43.5001 27.8702 43.5001 27.1293 43.5001 27.4998ZM43.5001 27.4998C43.5001 38.2417 38.2878 46.3548 31.6204 46.3548C24.9529 46.3548 19.6437 37.5884 19.6437 26.8464C19.6437 26.723 19.6437 26.476 19.6437 26.3525" stroke="black" stroke-miterlimit="10" stroke-linecap="round" stroke-linejoin="round"/>
<path d="M21.9899 11.5359C18 15.4995 16.5 21.9995 17 25.9995C17 25.9995 18.5001 26.9995 19.5001 26.9995C19.5001 24.9995 22.5001 20.4995 25.5706 21.1666C29.8921 23.1422 30.6329 23.5126 34.7074 23.1422C37.8681 22.9315 41.4878 27.0835 43.5001 27.4995C45.0252 27.8148 44.5001 26.4995 46.5001 25.9995C46.5001 25.9995 47.9188 17.339 41.7453 11.9063C39.3993 9.93078 36.0656 8.32566 30.5094 8.69607C27.2992 8.81954 24.4594 9.4369 21.9899 11.5359Z" stroke="black" stroke-miterlimit="10" stroke-linecap="round" stroke-linejoin="round"/>
<path d="M13.3302 42.3288H12.7077C11.171 42.3288 9.90662 41.0644 9.90662 39.5277V26.7865C9.90662 25.2497 11.171 23.9854 12.7077 23.9854H13.3302C14.8669 23.9854 16.1313 25.2497 16.1313 26.7865V39.5082C16.1313 41.0644 14.8669 42.3288 13.3302 42.3288ZM12.6883 25.0358C11.7156 25.0358 10.9375 25.8138 10.9375 26.7865V39.5082C10.9375 40.4808 11.7156 41.2589 12.6883 41.2589H13.3108C14.2834 41.2589 15.0615 40.4808 15.0615 39.5082V26.7865C15.0615 25.8138 14.2834 25.0358 13.3108 25.0358H12.6883Z" fill="black"/>
<path d="M16.5579 40.3439H15.5853C15.3907 40.3439 15.2351 40.1883 15.2351 39.9937V26.2994C15.2351 26.1048 15.3907 25.9492 15.5853 25.9492H16.5579C18.4836 25.9492 20.0593 27.5249 20.0593 29.4506V36.862C20.0593 38.7877 18.4836 40.3439 16.5579 40.3439ZM15.9548 39.6436H16.5773C18.114 39.6436 19.3784 38.3987 19.3784 36.8425V29.4312C19.3784 27.8945 18.1335 26.63 16.5773 26.63H15.9548V39.6436Z" fill="black"/>
<path d="M50.9494 42.3288H50.3269C48.7901 42.3288 47.5258 41.0644 47.5258 39.5277V26.7865C47.5258 25.2497 48.7901 23.9854 50.3269 23.9854H50.9494C52.4861 23.9854 53.7505 25.2497 53.7505 26.7865V39.5082C53.7505 41.0644 52.5056 42.3288 50.9494 42.3288ZM50.3269 25.0358C49.3542 25.0358 48.5762 25.8138 48.5762 26.7865V39.5082C48.5762 40.4808 49.3542 41.2589 50.3269 41.2589H50.9494C51.922 41.2589 52.7001 40.4808 52.7001 39.5082V26.7865C52.7001 25.8138 51.922 25.0358 50.9494 25.0358H50.3269Z" fill="black"/>
<path d="M48.0514 40.3438H47.0788C45.153 40.3438 43.5774 38.7681 43.5774 36.8424V29.4311C43.5774 27.5053 45.153 25.9297 47.0788 25.9297H48.0514C48.2459 25.9297 48.4016 26.0853 48.4016 26.2798V39.9742C48.4016 40.1882 48.2459 40.3438 48.0514 40.3438ZM47.0788 26.6494C45.5421 26.6494 44.2777 27.8943 44.2777 29.4505V36.8618C44.2777 38.3986 45.5226 39.663 47.0788 39.663H47.7013V26.6688H47.0788V26.6494Z" fill="black"/>
<path d="M10.4124 29.9376H8.93401C8.73949 29.9376 8.58386 29.7819 8.58386 29.5874C8.58386 29.3929 8.73949 29.2373 8.93401 29.2373H10.4124C10.6069 29.2373 10.7625 29.3929 10.7625 29.5874C10.7625 29.7819 10.6069 29.9376 10.4124 29.9376Z" fill="black"/>
<path d="M10.4124 37.0362H8.93401C8.73949 37.0362 8.58386 36.8806 8.58386 36.686C8.58386 36.4915 8.73949 36.3359 8.93401 36.3359H10.4124C10.6069 36.3359 10.7625 36.4915 10.7625 36.686C10.7625 36.8806 10.6069 37.0362 10.4124 37.0362Z" fill="black"/>
<path d="M54.8196 29.9376H53.3412C53.1467 29.9376 52.9911 29.7819 52.9911 29.5874C52.9911 29.3929 53.1467 29.2373 53.3412 29.2373H54.8196C55.0141 29.2373 55.1697 29.3929 55.1697 29.5874C55.1697 29.7819 55.0141 29.9376 54.8196 29.9376Z" fill="black"/>
<path d="M54.8196 37.0362H53.3412C53.1467 37.0362 52.9911 36.8806 52.9911 36.686C52.9911 36.4915 53.1467 36.3359 53.3412 36.3359H54.8196C55.0141 36.3359 55.1697 36.4915 55.1697 36.686C55.1697 36.8806 55.0141 37.0362 54.8196 37.0362Z" fill="black"/>
<path d="M40.7565 49.9531C37.897 49.9531 37.4107 49.9142 37.3912 49.9142C37.0994 49.8948 36.8854 49.6225 36.9049 49.3502C36.9244 49.0584 37.1773 48.8444 37.469 48.8638C37.5079 48.8638 38.5389 48.9416 45.7168 48.8833C46.7867 48.8833 47.7787 48.6109 48.5957 48.1052C54.2369 44.6427 54.2758 37.893 54.2758 37.7957V25.4046C54.2369 24.432 53.2837 1.0504 31.8084 1.0504C22.3935 1.20602 15.7603 5.31048 12.1227 13.2859C9.37997 19.2772 9.43834 25.3268 9.45779 25.4046V37.4456C9.45779 37.7374 9.22437 37.9708 8.93259 37.9708C8.64081 37.9708 8.40734 37.7374 8.40734 37.4456V25.4046C8.40734 24.9378 8.29063 13.85 15.5074 6.39977C19.5146 2.25644 25.0001 0.0972613 31.8084 0C54.3147 0 55.3262 25.1323 55.3262 25.3852V37.7957C55.3262 38.1848 55.2873 45.2263 49.1404 49C48.1678 49.603 46.9812 49.9337 45.7168 49.9337C43.577 49.9532 41.943 49.9531 40.7565 49.9531Z" fill="black"/>
<path d="M32.6775 52.4581C30.1293 52.4581 28.0479 51.0187 28.0479 49.229C28.0479 47.4589 30.1293 46 32.6775 46C35.2257 46 37.3071 47.4394 37.3071 49.229C37.3071 51.0187 35.2257 52.4581 32.6775 52.4581ZM32.6775 46.7197C30.5183 46.7197 28.7482 47.848 28.7482 49.2485C28.7482 50.6296 30.5183 51.7773 32.6775 51.7773C34.8367 51.7773 36.6068 50.6491 36.6068 49.2485C36.6068 47.848 34.8367 46.7197 32.6775 46.7197Z" fill="black"/>
<path d="M18 39.5V39.5C17.7195 41.7441 19.241 43.8165 21.4661 44.2211L23 44.5" stroke="black"/>
<path d="M45.5 39.5V39.5C45.5 42.1059 43.6364 44.3388 41.0726 44.805L40 45" stroke="black"/>
</svg>
