<svg width="68" height="83" viewBox="0 0 68 83" fill="none" xmlns="http://www.w3.org/2000/svg">
<path d="M64.3676 11.6641C63.4075 11.3898 62.0359 11.3898 60.6643 11.3898C54.0806 11.527 47.6341 9.60674 42.1478 5.90344L35.8384 1.51435C34.8783 0.828551 33.5067 0.828551 32.5466 1.51435L26.3745 5.76628C21.0252 9.46958 14.5788 11.527 8.13228 11.3898C6.62353 11.3898 5.11478 11.3898 4.0175 11.6641C2.23443 12.0756 1 13.7215 1 15.5046L2.92023 47.1884C3.33171 55.6922 7.7208 63.6475 14.5788 68.5852L34.1925 82.3011L53.8063 68.5852C60.8014 63.6475 65.0534 55.6922 65.4648 47.1884L67.3851 15.5046C67.3851 13.5844 66.1506 11.9384 64.3676 11.6641Z" stroke="black" stroke-miterlimit="10" stroke-linecap="round" stroke-linejoin="round"/>
<path d="M34.1922 56.7898C43.661 56.7898 51.3371 49.1138 51.3371 39.6449C51.3371 30.176 43.661 22.5 34.1922 22.5C24.7233 22.5 17.0473 30.176 17.0473 39.6449C17.0473 49.1138 24.7233 56.7898 34.1922 56.7898Z" stroke="black" stroke-miterlimit="10" stroke-linecap="round" stroke-linejoin="round"/>
<circle cx="34.1903" cy="34.7558" r="6.25584" stroke="black"/>
<path d="M46 51.9998C46 51.9998 45.9905 50.4218 43.5169 47.9482C41.0433 45.4746 37.6884 44.085 34.1902 44.085C30.692 44.085 27.3371 45.4746 24.8635 47.9482C22.3899 50.4218 22.5003 51.9998 22.5003 51.9998" stroke="black"/>
</svg>
