<svg width="87" height="83" viewBox="0 0 87 83" fill="none" xmlns="http://www.w3.org/2000/svg">
<path d="M40.2538 18.7656L25.3774 11.376L10.501 18.7656M40.2538 18.7656L25.3774 26.1551M40.2538 18.7656V37.2395L25.3774 44.6291M10.501 18.7656L25.3774 26.1551M10.501 18.7656V37.2395L25.3774 44.6291M25.3774 26.1551V44.6291" stroke="#0B0033" stroke-linecap="round" stroke-linejoin="round"/>
<path d="M53.1572 29.0342L58.6284 31.3926V32.3228L52.564 29.5469V28.9756L53.1572 29.0342ZM58.6284 26.9907L53.1646 29.3564L52.564 29.4077V28.8364L58.6284 26.0679V26.9907ZM65.147 23.3359L60.6938 34.9155H59.9028L64.356 23.3359H65.147ZM72.083 29.3052L66.5459 26.9614V26.0459L72.7349 28.8145V29.4004L72.083 29.3052ZM66.5459 31.3926L72.0977 29.0195L72.7349 28.9463V29.5322L66.5459 32.3081V31.3926Z" fill="#0B0033"/>
<rect x="0.5" y="0.5" width="85.6331" height="67.2564" rx="5.5" stroke="#0B0033"/>
<rect x="0.875" y="56.0059" width="84.883" height="0.875082" fill="#0B0033" stroke="#0B0033" stroke-width="0.2"/>
<circle cx="43.3166" cy="62.1311" r="1.78771" stroke="#0B0033" stroke-width="0.8"/>
<path d="M26.2197 76.1054L30.9247 67.4795H55.7085L60.4135 76.1054H26.2197Z" stroke="#0B0033"/>
<rect x="16.2515" y="75.626" width="54.1302" height="6.00066" rx="3.00033" stroke="#0B0033"/>
</svg>
