<svg width="83" height="84" viewBox="0 0 83 84" fill="none" xmlns="http://www.w3.org/2000/svg">
<path d="M36.5843 83.9999H14.7175C13.8887 83.9999 13.23 83.3412 13.23 82.5124V75.5422C13.23 74.7135 13.8887 74.0547 14.7175 74.0547H36.563C37.3918 74.0547 38.0506 74.7135 38.0506 75.5422V82.4911C38.0718 83.3199 37.3918 83.9999 36.5843 83.9999ZM14.7175 75.3297C14.59 75.3297 14.505 75.4147 14.505 75.5422V82.4911C14.505 82.6186 14.59 82.7036 14.7175 82.7036H36.563C36.6905 82.7036 36.7755 82.6186 36.7755 82.4911V75.5422C36.7755 75.4147 36.6905 75.3297 36.563 75.3297H14.7175Z" fill="black"/>
<path d="M18.2665 75.3294C17.9052 75.3294 17.629 75.0532 17.629 74.6919V71.1006C17.629 69.7831 17.0765 68.5505 16.099 67.6793C9.06504 61.3679 0.586101 53.3352 0.0760891 50.8489C-0.561426 47.7675 2.9024 25.327 6.89749 20.2269C7.51376 19.4194 8.17252 19.0156 8.85254 18.9731C9.36255 18.9519 9.85131 19.1644 10.2338 19.5681C12.8901 22.4157 11.8064 36.781 10.9138 45.09C10.8288 45.7913 11.1051 46.4925 11.6363 46.9813L21.3903 55.7152C21.6453 55.949 21.6666 56.3527 21.4328 56.6078C21.1991 56.8628 20.7953 56.884 20.5403 56.6503L10.7863 47.9163C9.95756 47.1725 9.53256 46.0675 9.63881 44.9412C11.0413 31.7659 10.9138 22.1395 9.29879 20.4182C9.12879 20.2269 9.0013 20.2057 8.89504 20.2269C8.61879 20.2482 8.25752 20.5032 7.87501 20.9919C3.96492 25.9858 0.798603 48.1288 1.30862 50.5726C1.64862 52.1877 7.62001 58.3715 16.949 66.723C18.1815 67.828 18.904 69.4218 18.904 71.1006V74.6919C18.904 75.0532 18.6065 75.3294 18.2665 75.3294Z" fill="black"/>
<path d="M33.2917 75.3298C32.9305 75.3298 32.6542 75.0536 32.6542 74.6923V71.016C32.6542 70.1447 32.803 69.2947 33.0792 68.4872C33.9505 66.0434 34.3755 60.8583 30.4867 56.9482L28.9141 55.3756C22.5177 48.9367 15.2713 41.6478 10.8725 44.0704C10.575 44.2404 10.1712 44.1341 10.0012 43.8154C9.8312 43.5179 9.93745 43.1141 10.2562 42.9441C15.4838 40.054 22.7728 47.3854 29.8067 54.4619L31.3792 56.0344C35.7356 60.3908 35.2468 66.1709 34.2693 68.8909C34.0355 69.5497 33.908 70.2722 33.908 70.9947V74.6711C33.9293 75.0536 33.653 75.3298 33.2917 75.3298Z" fill="black"/>
<path d="M31.3171 80.9184H15.4855C15.2517 80.9184 15.0605 80.7271 15.0605 80.4934C15.0605 80.2596 15.2517 80.0684 15.4855 80.0684H31.3171C31.5509 80.0684 31.7421 80.2596 31.7421 80.4934C31.7421 80.7271 31.5509 80.9184 31.3171 80.9184Z" fill="black"/>
<path d="M35.6293 80.9184H32.7605C32.5267 80.9184 32.3354 80.7271 32.3354 80.4934C32.3354 80.2596 32.5267 80.0684 32.7605 80.0684H35.6293C35.863 80.0684 36.0543 80.2596 36.0543 80.4934C36.0543 80.7271 35.863 80.9184 35.6293 80.9184Z" fill="black"/>
<path d="M67.6311 83.9999H45.7856C44.9569 83.9999 44.2981 83.3412 44.2981 82.5124V75.5422C44.2981 74.7135 44.9569 74.0547 45.7856 74.0547H67.6311C68.4599 74.0547 69.1187 74.7135 69.1187 75.5422V82.4911C69.1187 83.3199 68.4599 83.9999 67.6311 83.9999ZM45.7856 75.3297C45.6581 75.3297 45.5731 75.4147 45.5731 75.5422V82.4911C45.5731 82.6186 45.6581 82.7036 45.7856 82.7036H67.6311C67.7587 82.7036 67.8437 82.6186 67.8437 82.4911V75.5422C67.8437 75.4147 67.7374 75.3297 67.6311 75.3297H45.7856Z" fill="black"/>
<path d="M64.1038 75.3296C63.7425 75.3296 63.4663 75.0533 63.4663 74.6921V71.1007C63.4663 69.4219 64.1888 67.8281 65.4213 66.7231C74.729 58.3717 80.7217 52.1878 81.0617 50.5728C81.5717 48.1289 78.4054 25.9859 74.4953 20.9921C74.1128 20.5033 73.7728 20.2483 73.4753 20.227C73.3903 20.227 73.2415 20.2483 73.0715 20.4183C71.4565 22.1396 71.3077 31.7661 72.7315 44.9414C72.859 46.0464 72.4127 47.1727 71.584 47.9164L61.83 56.6504C61.575 56.8841 61.1712 56.8629 60.9375 56.6079C60.7037 56.3529 60.725 55.9491 60.98 55.7154L70.7339 46.9814C71.2652 46.5139 71.5415 45.7914 71.4565 45.0901C70.5639 36.7812 69.4802 22.4159 72.1365 19.5683C72.519 19.1433 73.0077 18.952 73.5178 18.9733C74.1978 18.9945 74.8565 19.4195 75.4728 20.227C79.4466 25.3272 82.9105 47.7464 82.273 50.849C81.7629 53.3353 73.284 61.3893 66.2501 67.6794C65.2726 68.5507 64.72 69.8044 64.72 71.1007V74.6921C64.7413 75.0533 64.4438 75.3296 64.1038 75.3296Z" fill="black"/>
<path d="M49.0592 75.3296C48.6979 75.3296 48.4217 75.0533 48.4217 74.6921V71.0157C48.4217 70.2932 48.2941 69.5707 48.0604 68.9119C47.0829 66.1919 46.5941 60.4117 50.9505 56.0554L52.523 54.4829C59.5569 47.3852 66.8458 40.0538 72.0947 42.9651C72.3922 43.1351 72.5197 43.5176 72.3497 43.8364C72.1797 44.1339 71.7972 44.2614 71.4784 44.0914C67.0796 41.6688 59.8332 48.9577 53.4368 55.3966L51.8642 56.9692C47.9541 60.8793 48.4004 66.0431 49.2717 68.5082C49.5692 69.3157 49.6967 70.1657 49.6967 71.037V74.7133C49.6967 75.0533 49.4204 75.3296 49.0592 75.3296Z" fill="black"/>
<path d="M66.8876 80.9184H51.056C50.8222 80.9184 50.631 80.7271 50.631 80.4934C50.631 80.2596 50.8222 80.0684 51.056 80.0684H66.8876C67.1214 80.0684 67.3126 80.2596 67.3126 80.4934C67.3126 80.7271 67.1214 80.9184 66.8876 80.9184Z" fill="black"/>
<path d="M49.6127 80.9184H46.7439C46.5102 80.9184 46.3189 80.7271 46.3189 80.4934C46.3189 80.2596 46.5102 80.0684 46.7439 80.0684H49.6127C49.8465 80.0684 50.0377 80.2596 50.0377 80.4934C50.0377 80.7271 49.8465 80.9184 49.6127 80.9184Z" fill="black"/>
<path d="M60.5983 32.5435H20.114C19.4933 32.5435 19 32.0501 19 31.4295V1.79824C19 0.811595 19.8116 0 20.7982 0H26.8932C27.6093 0 28.2618 0.429667 28.5323 1.08213L29.5349 3.38961C29.7417 3.85111 30.1873 4.15347 30.6965 4.15347H58.816C61.3084 4.15347 61.7123 6.36499 61.7123 8.83782C63.9519 7.96716 64.2067 8.62829 65 11L63.5 20L61.7123 31.4136C61.7123 32.0501 61.2031 32.5435 60.5983 32.5435ZM20.1776 31.3658L60.7653 31.4136L63 20L64.5 11C64.6633 9.32838 63.4135 8.97655 60.5983 8.61145C60.5596 6.36499 60.1852 5.34699 58.8001 5.34699H30.6965C29.7258 5.34699 28.8346 4.7741 28.4527 3.86702L27.4502 1.55954C27.3547 1.33675 27.1319 1.19353 26.8932 1.19353H20.7982C20.4641 1.19353 20.1935 1.46406 20.1935 1.79824V31.3658H20.1776Z" fill="black"/>
<path d="M60.7405 32.5429H20.3039C19.9538 32.5429 19.6196 32.3837 19.3968 32.1132C19.174 31.8427 19.0785 31.4767 19.1581 31.1425L23.2956 10.2478C23.5184 9.13386 24.5051 8.32227 25.6509 8.32227H63.0321C63.7482 8.32227 64.4166 8.64054 64.8621 9.18161C65.3236 9.72267 65.5146 10.4388 65.3873 11.139L61.7749 31.6994C61.6794 32.1769 61.2497 32.5429 60.7405 32.5429ZM19.731 31.2539L20.3198 31.3653L19.731 31.2539ZM25.6349 9.48396C25.0621 9.48396 24.5528 9.89772 24.4414 10.4547L20.3039 31.3493H60.6132L64.2097 10.9003C64.2733 10.5502 64.1779 10.1842 63.9392 9.91363C63.7004 9.6431 63.3663 9.48396 63.0162 9.48396H25.6349Z" fill="black"/>
</svg>
